<?xml version="1.0" standalone="no"?>
<!DOCTYPE svg PUBLIC "-//W3C//DTD SVG 1.1//EN" "http://www.w3.org/Graphics/SVG/1.1/DTD/svg11.dtd" >
<svg xmlns="http://www.w3.org/2000/svg">
<metadata></metadata>
<defs>
<font id="KeplerStdExtDispItalic" horiz-adv-x="1116" >
<font-face units-per-em="2048" ascent="1434" descent="-614" />
<missing-glyph horiz-adv-x="389" />
<glyph unicode="&#xfb01;" horiz-adv-x="1089" d="M-457 -414q0 34 27 64.5t61 30.5q29 0 47 -46q28 -59 59.5 -88.5t82.5 -29.5q76 0 118 67.5t93 237.5q84 253 264 991l-168 14l14 27h166q55 189 110.5 295.5t129.5 177.5q131 123 323 123q123 0 185.5 -51.5t60.5 -130.5q-2 -42 -28.5 -73.5t-77.5 -31.5q-34 0 -58 22 t-6 54q2 4 7.5 14t8 15t5 14t2.5 18q4 117 -117 117q-132 0 -221 -151q-77 -133 -152 -412q306 -3 417 5t167 30l4 -6q-44 -82 -162 -443q-69 -212 -90 -307q-22 -98 19 -98q61 0 134.5 74t106.5 149l23 -22q-54 -107 -145.5 -186t-196.5 -79q-43 0 -70 13t-37 32.5t-9.5 50 t6.5 56t18 61.5q177 538 208 639l-405 -12q-187 -731 -274 -963q-41 -105 -115.5 -194.5t-169.5 -147.5q-86 -53 -191 -53q-80 0 -127 43t-47 90z" />
<glyph unicode="&#xfb02;" horiz-adv-x="1091" d="M-455 -414q0 34 27.5 64.5t56.5 30.5q30 0 52 -46q26 -59 57 -88.5t84 -29.5q74 0 116.5 68t94.5 239q79 246 264 985l-170 20l10 25h172q82 330 232 461q81 73 158 104t173 31q133 0 197 -61q119 39 166 51q-103 -250 -231 -684q-158 -518 -179 -627q-10 -54 -3 -74 t32 -20q51 0 124.5 67t111.5 156l20 -25q-54 -113 -145.5 -187.5t-194.5 -74.5q-165 0 -98 215q53 181 170.5 560t167.5 548q-8 48 -53.5 84.5t-116.5 36.5q-156 0 -250 -215q-37 -82 -111 -346h240l-14 -27l-238 -18q-180 -709 -274 -961q-42 -106 -115.5 -195t-167.5 -145 q-89 -55 -191 -55q-82 0 -128 43.5t-46 89.5z" />
<glyph unicode="&#xfb03;" horiz-adv-x="1644" d="M-451 -414q0 37 27.5 66t56.5 29t52 -46q29 -61 57.5 -89.5t79.5 -28.5q76 0 117 67t94 240q82 253 266 991l-166 14l12 25h164q43 153 90 245.5t117 157.5q74 71 154.5 103.5t179.5 32.5q81 0 143.5 -30.5t87.5 -68.5q76 79 169 117.5t188 38.5q124 0 182 -45.5 t55 -124.5q-2 -41 -30 -73.5t-80 -32.5q-34 0 -54 20q-20 30 -6 57q3 5 8.5 15t8 14.5t4.5 13t2 17.5q2 52 -23.5 79t-91.5 27q-136 0 -227 -157q-80 -144 -148 -406q303 -3 414.5 4.5t167.5 28.5l4 -8q-20 -39 -37.5 -79t-36.5 -93.5t-28 -79t-32 -98.5t-28 -89 q-70 -213 -92 -315q-21 -90 19 -90q61 0 136 75t107 152l23 -22q-52 -106 -146.5 -187.5t-199.5 -81.5q-42 0 -67.5 14t-35.5 34.5t-9 51.5t7 57t17 58q17 54 92 279t117 356l-402 -4q-68 -291 -144.5 -570t-117.5 -384q-91 -213 -272 -312q-98 -57 -193 -57q-49 0 -91 31 t-42 80q0 35 28.5 62.5t51.5 27.5q26 0 45 -33q33 -52 62 -74t69 -22q54 0 83 36t64 124q36 93 121.5 419t163.5 672h-385q-185 -718 -278 -969q-42 -107 -114 -195.5t-165 -144.5q-89 -55 -195 -55q-78 0 -124 41t-46 92zM481 854h385q57 214 133 344q-28 162 -170 162 q-165 0 -256 -223q-51 -123 -92 -283z" />
<glyph unicode="&#xfb04;" horiz-adv-x="1646" d="M-455 -412q0 36 29.5 65.5t56.5 29.5q28 0 52 -48q26 -59 57 -88.5t82 -29.5q74 0 117.5 69t95.5 238q73 226 264 991l-170 14l14 25h166q37 143 82.5 233t114.5 154q162 152 356 152q71 0 130.5 -24.5t82.5 -59.5q64 68 155 104.5t185 36.5q142 0 213 -64q28 8 76 26.5 t84 27.5q-111 -282 -232 -686q-149 -496 -174 -625q-11 -54 -5.5 -74t32.5 -20q52 0 126 67t112 156l20 -25q-56 -114 -146.5 -188t-193.5 -74q-167 0 -102 215q36 117 108 345.5t128 411.5t102 351q-12 50 -55 85.5t-113 35.5q-153 0 -244 -207q-64 -146 -115 -354h238 l-12 -27l-238 -12q-68 -291 -144.5 -569t-117.5 -383q-85 -205 -275 -309q-59 -33 -101 -46.5t-93 -13.5q-47 0 -90 31t-43 80q0 35 29 62.5t53 27.5q27 0 47 -35q30 -49 58.5 -70.5t68.5 -21.5q54 0 87 37t66 121q36 97 122.5 425.5t162.5 665.5h-383q-189 -735 -276 -969 q-42 -106 -115.5 -195t-167.5 -145q-89 -55 -195 -55q-77 0 -124.5 43.5t-47.5 91.5zM479 854h383q49 193 135 352q-10 73 -53.5 112.5t-107.5 39.5q-172 0 -265 -225q-66 -162 -92 -279z" />
<glyph horiz-adv-x="0" />
<glyph horiz-adv-x="2048" />
<glyph unicode=" "  horiz-adv-x="389" />
<glyph unicode="&#x09;" horiz-adv-x="389" />
<glyph unicode="&#xa0;" horiz-adv-x="389" />
<glyph unicode="!" horiz-adv-x="442" d="M45 88q3 53 37.5 91t87.5 38q47 0 72.5 -34t23.5 -81q-3 -58 -39.5 -90t-87.5 -32h-2q-38 0 -65.5 29t-26.5 79zM221 428q97 346 113 651q4 108 16 154q10 44 66.5 91.5t97.5 47.5h2q35 0 67.5 -46.5t16.5 -100.5q-8 -35 -74 -150q-152 -264 -274 -647h-31z" />
<glyph unicode="&#x22;" horiz-adv-x="548" d="M264 1008q39 102 61.5 207.5t16.5 150.5q19 12 61.5 28.5t55.5 16.5q22 0 28 -32t2 -64q-26 -74 -202 -316zM520 1008q39 102 60.5 207.5t13.5 150.5q88 45 125 45q21 0 27.5 -36t-1.5 -58q-5 -19 -21.5 -49.5t-44.5 -73.5t-46 -69t-52.5 -74t-37.5 -52z" />
<glyph unicode="#" horiz-adv-x="890" d="M123 565q19 36 41 105q17 0 40.5 -0.5t65 -1.5t80.5 -2l96 225q-129 3 -208 -4q31 83 36 102q43 -2 213 -2q28 58 65 148t42 102l55 6q-108 -232 -119 -256h220q83 177 110 250l62 6q-68 -120 -123 -256q64 0 123.5 1t66.5 1q-20 -30 -41 -102q-13 0 -74.5 1t-117.5 1 l-94 -221q174 3 212 6q-15 -31 -38 -109q-21 0 -213 4q-32 -81 -117 -299l-62 -4q34 63 131 303h-219q-19 -44 -123 -299l-61 -10q42 83 137 309q-54 0 -186 -4zM393 666h223l95 225h-222z" />
<glyph unicode="$" d="M47 152q69 141 125 350l35 12q-38 -105 -41 -195q-6 -106 62 -171.5t180 -79.5q78 233 167 518q-63 29 -165 90q-142 86 -142 244q0 84 39 157t109 125q118 84 299 84q50 0 80 -6l49 162l57 16l-63 -182q55 -8 118.5 -38.5t90.5 -63.5q3 -4 14 5t29 33t36 56l13 -25 q-67 -163 -133 -387l-29 6q22 91 23.5 155t-23 109.5t-62 72.5t-92.5 42q-133 -414 -157 -493q84 -41 140.5 -74.5t76 -49.5t43.5 -38q42 -37 62 -81.5t20 -113.5q0 -121 -95 -223q-157 -148 -403 -148q-46 0 -70 3l-59 -191l-57 -16l69 213q-182 17 -346 123zM414 1014 q0 -83 48 -138.5t167 -111.5q34 104 89 277.5t66 207.5q-40 4 -77 4q-129 0 -211 -70.5t-82 -166.5v-2zM451 57q20 -2 63 -2q89 0 163 24.5t124.5 82t50.5 141.5v2q0 80 -46.5 131.5t-193.5 130.5q-19 -59 -79.5 -249t-81.5 -261z" />
<glyph unicode="%" horiz-adv-x="1482" d="M209 66q87 93 536 581t570 615q-68 -34 -155 -57t-169 -23q-83 0 -157 24q14 -35 14 -102q0 -113 -45.5 -214t-135.5 -167t-204 -66q-108 0 -171 57t-63 171q0 110 51.5 211.5t145.5 167t205 65.5q60 0 121 -26l18 20q92 -102 252 -102q61 0 114.5 9.5t96 27t62.5 28 t48 27.5q30 18 76 73l82 13q-50 -54 -303.5 -325t-504.5 -546t-449 -505zM369 844q0 -152 123 -152q68 0 125 44.5t90 112.5t51 139.5t18 133.5q0 174 -137 174h-2q-49 0 -96 -30q-76 -65 -124 -189t-48 -233zM813 289q0 106 50 207.5t142 169t201 67.5h2q109 0 165.5 -58.5 t56.5 -164.5q0 -112 -43.5 -213t-132 -168.5t-203.5 -67.5q-108 0 -173 58t-65 170zM954 248q0 -152 121 -152q67 0 123.5 45.5t90 113.5t52 140.5t17.5 132.5q0 170 -135 170h-2q-59 0 -99 -32q-77 -62 -122.5 -185t-45.5 -233z" />
<glyph unicode="&#x26;" horiz-adv-x="1552" d="M100 340q0 75 26.5 139t73 110.5t111 80.5t140.5 53t161 25v8q-46 12 -78 25.5t-66.5 39t-52.5 67.5t-18 99q0 70 25 127.5t68 97t101.5 66t123.5 39t135 12.5q79 0 142 -16t101 -40.5t63 -55.5t34.5 -58t9.5 -51q0 -68 -28 -97.5t-62 -29.5t-53.5 20t-7.5 50 q18 41 18 77q2 73 -53.5 120.5t-153.5 47.5q-70 0 -125 -29.5t-87.5 -78.5t-49 -106.5t-16.5 -118.5q0 -92 32 -140.5t80 -60.5q21 -1 76.5 3t69.5 5l4 -10l-58 -51q-75 12 -108 12q-51 0 -100.5 -13.5t-95.5 -42t-81 -69t-56 -100t-21 -129.5q0 -86 30 -152.5t83.5 -106.5 t121.5 -60.5t148 -20.5q208 0 349.5 133.5t141.5 341.5l14 2l39 -101q-45 -145 -146 -246.5t-227.5 -147.5t-271.5 -46q-76 0 -146 11.5t-136.5 39.5t-115.5 70t-78.5 107.5t-29.5 148.5zM766 414q52 121 148 196.5t194 75.5q26 0 256 -10q105 -5 159 21t58 85q10 29 -2 74 l4 4q18 -3 29.5 -18.5t9.5 -34.5q-3 -70 -52 -133.5t-106 -93.5q-77 -41 -157 -41q-35 1 -127.5 7t-145.5 7q-97 1 -153.5 -37t-96.5 -127z" />
<glyph unicode="'" horiz-adv-x="284" d="M268 1008q39 101 62 206.5t18 151.5q18 13 60 29t57 16q21 0 29 -36t0 -58q-5 -19 -21.5 -50t-44 -72.5t-47.5 -70t-52 -73t-38 -52.5z" />
<glyph unicode="(" horiz-adv-x="681" d="M106 184q0 301 125.5 605t339.5 495q138 124 332 197l10 -27q-144 -46 -274 -196t-218 -348.5t-140 -425.5t-52 -433q0 -318 174 -438q-12 -15 -26 -29q-75 46 -129.5 114.5t-84.5 149t-43.5 163.5t-13.5 173z" />
<glyph unicode=")" horiz-adv-x="681" d="M-141 -389q104 33 209 128.5t198 258.5q126 208 201.5 478t75.5 538q0 321 -174 438q12 15 26 29q75 -46 129.5 -114.5t84.5 -149t43.5 -163.5t13.5 -173q0 -305 -125 -606.5t-340 -493.5q-138 -124 -332 -197z" />
<glyph unicode="*" horiz-adv-x="714" d="M236 999q-4 18 9.5 47.5t39.5 34.5q7 2 85.5 -6.5t137.5 4.5l2 -18q-55 -16 -122 -62.5t-77 -48.5q-26 -7 -48.5 12t-26.5 37zM322 1283q5 31 16 44q11 8 26 14.5t33 6t29 -12.5q7 -8 36.5 -86t65.5 -121l-14 -14q-29 32 -70.5 55.5t-73 37.5t-40.5 24q-13 21 -8 52z M406 840q5 11 30 40.5t53.5 70.5t42.5 83l17 -2q-17 -56 -15 -140.5t-2 -94.5q-7 -23 -36 -33t-45 -4q-18 6 -35.5 30t-9.5 50zM561 1133q18 54 17 144t0 95q9 20 37.5 29.5t43.5 5.5q18 -6 35 -29.5t8 -46.5q-4 -11 -53.5 -79.5t-68.5 -121.5zM582 1038l16 13 q36 -41 109 -75.5t79 -43.5q12 -20 5 -50t-21 -42q-9 -7 -24 -12.5t-35 -5t-31 13.5q-5 7 -16.5 43.5t-32 81t-49.5 77.5zM602 1104q42 12 86.5 40t77 51t47.5 26q22 4 42 -16.5t24 -37.5q5 -17 -11 -48t-39 -32q-11 -3 -88 5t-133 -5z" />
<glyph unicode="+" horiz-adv-x="970" d="M86 434v76h350v350h82v-350h346v-76h-346v-379h-82v379h-350z" />
<glyph unicode="," horiz-adv-x="399" d="M-84 -213q89 14 164 72.5t98 160.5q1 10 -5 12.5t-15 -5.5q-34 -23 -74 -23q-35 0 -57.5 24t-20.5 58q3 53 41 91t90 38q50 0 80 -37.5t27 -101.5q-6 -117 -102 -210.5t-216 -101.5z" />
<glyph unicode="-" horiz-adv-x="581" d="M72 403l37 91q213 -6 446 0l-35 -91q-235 9 -448 0z" />
<glyph unicode="." horiz-adv-x="399" d="M23 78q2 52 37 89.5t85 37.5q47 0 73 -33.5t24 -79.5q-3 -55 -38.5 -88t-86.5 -33h-2q-37 0 -65 29t-27 78z" />
<glyph unicode="/" horiz-adv-x="755" d="M-39 -176q93 157 458.5 808.5t434.5 770.5l47 -33q-117 -184 -413.5 -712t-475.5 -863z" />
<glyph unicode="0" d="M113 356q-1 162 47 334.5t150 329.5t237 237q120 72 272 72h2q90 0 157 -30t106.5 -85t58.5 -124t20 -154q1 -158 -41 -325.5t-136 -324t-222 -235.5q-130 -80 -295 -80q-180 0 -267 103.5t-89 281.5zM281 276q0 -127 47.5 -200.5t150.5 -73.5q70 0 125.5 27.5 t108.5 89.5q83 102 149 271t99.5 339.5t33.5 308.5q0 258 -186 258h-2q-65 0 -118 -28t-111 -92q-125 -142 -211 -414.5t-86 -485.5z" />
<glyph unicode="1" d="M145 -8l11 24l141 17q52 7 71 15.5t27 35.5q46 118 185 580q90 295 159 546q3 15 -2 22t-22 7q-20 0 -93 -2t-118 -2l14 27q371 43 438 67l11 -2q-49 -123 -191 -608t-176 -635q-6 -26 3.5 -35t39.5 -12l178 -21l-10 -24q-81 0 -187 4t-155 4q-72 0 -164 -4t-160 -4z" />
<glyph unicode="2" d="M-29 4q60 96 66 109q295 150 514 321.5t297 294.5q51 82 75.5 150t24.5 153q0 121 -61.5 191.5t-175.5 70.5q-130 0 -217.5 -92.5t-104.5 -255.5q-3 -39 -21.5 -65.5t-52.5 -26.5q-80 0 -77 98q0 65 51.5 148.5t132.5 138.5q133 90 319 90q189 0 295 -86 q48 -40 75.5 -105t27.5 -141q0 -118 -58 -210.5t-178 -176.5q-240 -173 -719 -465q535 7 680 19q24 3 37 11t31 26q20 22 110 166l21 -19q-91 -167 -158 -358q-27 5 -149 8q-94 2 -518 2q-200 0 -261 -4z" />
<glyph unicode="3" d="M35 244q0 46 24 78t64 32q32 0 47 -18.5t16 -71.5q2 -110 72.5 -184t194.5 -74q171 0 273.5 122.5t102.5 305.5q0 240 -299 240q-76 0 -151 -21l-4 11l45 51q39 -3 121 2q102 5 185.5 45.5t136 119t52.5 183.5q0 97 -55 157t-153 60q-280 0 -363 -311h-10l-37 73 q17 46 57.5 94.5t100 92t143 71t174.5 27.5q167 0 250.5 -70.5t83.5 -191.5q0 -167 -164 -260q-129 -72 -285 -102v-9q118 -7 192.5 -37t127.5 -86q57 -57 57 -172q0 -112 -61 -201.5t-162 -148.5q-134 -80 -377 -80q-171 0 -285 78.5t-114 194.5z" />
<glyph unicode="4" d="M57 463q215 204 480 442t413 365q137 34 185 59l10 -6q-39 -119 -82 -268t-94.5 -333t-79.5 -282q173 3 262 39l-8 -26q-39 -25 -119 -43t-152 -21q-41 -144 -102 -399q-103 3 -203 -25l-4 8q12 28 27 74t26.5 84t36 120.5t39.5 131.5q-156 0 -375 13.5t-258 31.5z M150 477q38 -14 218 -27.5t339 -13.5q119 385 229 768q-490 -423 -786 -727z" />
<glyph unicode="5" d="M51 233q0 46 23.5 77.5t64.5 31.5q29 0 44 -18.5t18 -69.5q3 -112 67.5 -180t188.5 -68q175 0 281 137t106 353q0 96 -45 155q-28 41 -71.5 65.5t-127.5 24.5q-114 0 -211.5 -57.5t-163.5 -153.5l-24 37q97 207 169.5 434t88.5 326q45 -25 146 -42t186 -17 q186 0 281.5 21.5t146.5 80.5l10 -20q-69 -125 -175.5 -179.5t-303.5 -54.5q-74 0 -162.5 10t-120.5 21q-13 -35 -43.5 -119.5t-50 -136.5t-47.5 -123.5t-52 -124.5q89 75 200 116.5t206 41.5q192 0 280.5 -87t88.5 -237q0 -135 -65 -242t-177 -176q-142 -88 -369 -88 q-171 0 -279 73.5t-108 188.5z" />
<glyph unicode="6" d="M113 385q0 210 101 415t282 343q235 186 530 186q81 0 119 -14l-8 -29q-9 0 -33.5 2t-40.5 2q-114 0 -221 -41t-201 -120t-169.5 -202.5t-121.5 -279.5q215 195 422 195q144 0 226.5 -85t82.5 -239q0 -109 -43 -209t-118.5 -174.5t-184.5 -119t-233 -44.5 q-194 0 -291.5 107.5t-97.5 306.5zM293 293q0 -58 11 -106.5t35 -90t70 -65.5t109 -25q125 -3 213 90q72 74 114 199.5t42 247.5q0 64 -17 115t-60.5 86.5t-109.5 35.5h-2q-66 0 -125.5 -21t-103 -56t-74.5 -73.5t-53 -80.5q-49 -93 -49 -256z" />
<glyph unicode="7" d="M254 944q32 55 77.5 185.5t55.5 185.5q32 -10 119 -12q111 -3 397 -3h381l4 -8q-28 -57 -65.5 -114.5t-70.5 -99.5t-85 -103q-81 -95 -128 -152t-115 -142.5t-109.5 -144t-92.5 -136.5t-83 -142.5t-61.5 -139t-47.5 -147.5q-27 -7 -62.5 2t-64.5 25q-18 13 -22 38.5 t6 49.5q48 129 258 336q289 326 598 719q-96 10 -416 10q-165 0 -234.5 -7.5t-96 -24t-52.5 -62.5q-16 -27 -39.5 -71.5t-28.5 -53.5z" />
<glyph unicode="8" d="M78 268q0 153 145 250q68 45 271 135q-102 77 -145.5 139t-43.5 148q0 148 111 256q136 133 346 133h2q155 0 253.5 -78.5t98.5 -210.5q0 -129 -145 -217q-26 -17 -58 -32t-85 -37.5t-87 -38.5q154 -108 218.5 -182t64.5 -173q0 -172 -158 -282q-153 -107 -366 -107 q-117 0 -210.5 32t-152.5 100.5t-59 164.5zM223 291q0 -134 83 -209.5t220 -75.5h2q62 0 118.5 16t104 48t75.5 86.5t28 124.5q0 88 -85.5 171t-244.5 181q-301 -133 -301 -342zM465 1032q0 -89 56 -152t190 -147q270 119 270 328q0 103 -63 168t-179 65h-4 q-119 0 -194.5 -71t-75.5 -191z" />
<glyph unicode="9" d="M145 -12l5 30q28 -8 96 -8q113 0 212.5 37t175 99.5t137.5 149.5t103 183t68 203q-102 -102 -202.5 -155.5t-229.5 -53.5q-42 0 -83 9.5t-83.5 33t-74.5 59t-52 93t-20 129.5q0 231 180 399q151 133 371 133q196 0 302.5 -115t106.5 -311q0 -258 -118 -480t-332 -349 q-93 -55 -210 -80t-212 -25q-88 0 -140 19zM381 799q0 -119 61 -189.5t164 -70.5q60 0 114 20t93.5 53.5t68 67.5t48.5 72q49 87 49 239q0 134 -59 219.5t-172 85.5h-3q-135 0 -235 -118q-129 -152 -129 -379z" />
<glyph unicode=":" horiz-adv-x="399" d="M25 76q3 51 36.5 87t83.5 36q45 0 70 -32.5t23 -78.5q-3 -54 -37.5 -85.5t-83.5 -31.5h-2q-37 0 -64 28.5t-26 76.5zM186 680q3 53 36.5 89t84.5 36q45 0 69.5 -32.5t22.5 -78.5q-3 -53 -37.5 -84.5t-82.5 -31.5h-3q-37 0 -64 27.5t-26 74.5z" />
<glyph unicode=";" horiz-adv-x="399" d="M-82 -211q87 12 160 70t96 157q1 10 -5 11.5t-15 -4.5q-31 -23 -72 -23q-35 0 -55.5 22t-18.5 58q3 51 40.5 89t84.5 38q50 0 79 -34.5t26 -96.5q-6 -115 -99.5 -210.5t-208.5 -101.5zM188 680q3 53 36.5 89t84.5 36q45 0 69.5 -32.5t22.5 -78.5q-3 -53 -37.5 -84.5 t-82.5 -31.5h-2q-37 0 -64.5 27.5t-26.5 74.5z" />
<glyph unicode="&#x3c;" horiz-adv-x="970" d="M137 444v72l678 377v-90l-588 -320v-6l588 -319v-90z" />
<glyph unicode="=" horiz-adv-x="970" d="M86 272v76h780v-76h-780zM86 594v76h780v-76h-780z" />
<glyph unicode="&#x3e;" horiz-adv-x="970" d="M137 68v88l584 321v6l-584 318v92l678 -377v-72z" />
<glyph unicode="?" horiz-adv-x="915" d="M283 76q3 53 37 90t86 37q47 0 71 -34t21 -79q-3 -54 -37.5 -86.5t-83.5 -32.5h-2q-38 0 -66.5 28.5t-25.5 76.5zM305 1081q0 118 121.5 201.5t282.5 83.5q138 0 229.5 -76t91.5 -209q0 -99 -44 -165t-136 -121q-211 -124 -277 -170q-71 -47 -96.5 -94.5t-7.5 -108.5 l-23 -10q-26 37 -45 87t-18 87q6 89 92 153q50 39 179.5 126t158.5 108q43 32 64.5 70t21.5 96q0 94 -55.5 144t-141.5 50q-110 0 -179.5 -50.5t-69.5 -149.5q0 -15 5 -34.5t8.5 -33.5t1.5 -30t-13 -29q-27 -27 -72 -27q-31 0 -54.5 29t-23.5 73z" />
<glyph unicode="@" horiz-adv-x="1462" d="M86 197q1 177 62.5 333t169 269.5t262 179t333.5 65.5q125 0 223.5 -36.5t159 -99.5t92 -144.5t31.5 -175.5q0 -91 -30 -184.5t-84 -171t-137.5 -126.5t-180.5 -49q-105 0 -122 51q-13 40 22 154q4 15 16 51q-65 -99 -166 -176.5t-196 -77.5q-121 0 -121 140 q0 136 85 277.5t204 207.5q89 47 184 47q45 0 78.5 -22t44.5 -56l20 58q84 0 123 -2q-55 -127 -105.5 -286.5t-64.5 -232.5q-11 -51 -1 -71.5t54 -20.5q78 0 144 47t106 119t62 151.5t22 151.5q0 201 -125 322t-358 121q-141 0 -258 -55.5t-197 -153.5q-211 -256 -211 -615 q0 -113 31 -202.5t80 -135.5q119 -110 295 -110q137 0 241 49.5t195 153.5l8 -31q-185 -213 -510 -213q-221 0 -351.5 131t-129.5 369zM561 195q0 -33 11.5 -53.5t31.5 -20.5q55 0 109 31.5t98.5 85t81.5 117.5t65 137q9 25 14.5 43.5t11 44.5t3 44.5t-11 36t-29.5 26.5 t-53 9q-45 0 -96 -29.5t-84 -76.5q-87 -117 -119.5 -206.5t-32.5 -186.5v-2z" />
<glyph unicode="A" horiz-adv-x="1374" d="M-133 -8l6 26q98 11 143.5 35t106.5 107q151 208 420.5 585t339.5 484q35 57 41 74l4 24h11q39 1 76 13q43 14 70 42l15 -4q3 -193 39 -764q28 -391 53 -530q3 -26 15.5 -38t39.5 -15l107 -13l-4 -26q-22 0 -117 4t-152 4q-40 0 -137 -4t-131 -4l8 28q48 3 72.5 6.5 t45 8.5t27.5 16t10.5 25t2.5 39q-5 108 -13.5 270t-9.5 186q-281 0 -505 -26q-219 -330 -261 -400q-15 -26 -21 -44t-2 -32t15 -22t36.5 -14t55.5 -9t78 -6l-8 -26q-17 0 -106 4t-132 4q-78 0 -156.5 -4t-82.5 -4zM487 592q129 11 467 20q-1 27 -32 602q-281 -390 -435 -622 z" />
<glyph unicode="B" horiz-adv-x="1339" d="M-57 -8l6 26q101 6 144.5 17t53.5 37q60 156 205 633q135 445 162 561q7 29 -26.5 38t-159.5 17l8 27q27 0 134 -4.5t142 -4.5q46 0 173.5 4.5t162.5 4.5q144 0 212.5 -22t113.5 -69q53 -53 53 -151q0 -263 -264 -340q-105 -29 -211 -35l-4 -10q221 -23 319 -100 q86 -69 86 -193q0 -148 -85.5 -248t-227.5 -145q-116 -43 -311 -43q-68 0 -201 4t-199 4q-184 0 -286 -8zM354 61q-1 -3 -1 -5q0 -15 28 -22q35 -9 133 -9q528 0 528 440v2q0 86 -36 139q-72 101 -344 101q-30 0 -125 -7q-11 -36 -56.5 -187t-77 -261t-49.5 -191zM549 741 q23 -2 123 -2q71 0 135 11t126 38t106.5 69t72 109.5t27.5 153.5v2q0 29 -9.5 61.5t-23.5 51.5q-27 38 -84.5 57t-190.5 19q-99 0 -112 -35q-29 -80 -170 -535z" />
<glyph unicode="C" horiz-adv-x="1456" d="M170 520q0 194 92 384t256 315q215 161 529 161q138 0 252.5 -47.5t168.5 -120.5l86 125l17 -18q-33 -77 -82 -233t-66 -242h-24q18 94 18 168q0 127 -53 196q-46 60 -124 97.5t-179 37.5q-229 0 -395 -155q-139 -134 -210 -321t-71 -382q0 -229 100 -344 q54 -63 137.5 -98t174.5 -35q235 0 382 98.5t226 282.5h10q1 -15 2 -45.5t2 -46.5q-86 -154 -267 -246t-384 -92q-286 0 -442 136.5t-156 424.5z" />
<glyph unicode="D" horiz-adv-x="1597" d="M-59 -8l12 26l102 9q42 3 62.5 18.5t38.5 60.5q38 92 184 561.5t170 583.5q8 33 -0.5 43t-46.5 13l-141 16l16 25h10q32 0 122 -4q108 -5 144 -5q74 0 191 5.5t196 5.5q292 0 433 -105q168 -125 168 -401v-10q-2 -167 -68.5 -321.5t-195.5 -277.5t-302 -184 q-177 -61 -434 -61q-63 0 -188 5t-189 5q-39 0 -153 -4t-131 -4zM360 72q-1 -16 7.5 -24.5t47.5 -14.5t115 -6q163 0 251.5 15t150.5 42q134 59 238.5 182.5t162.5 287t62 341.5v14q0 203 -84 293q-60 63 -159.5 88t-236.5 25h-2q-78 0 -120.5 -4.5t-55.5 -11t-18 -17.5 q-59 -148 -197.5 -620t-161.5 -590z" />
<glyph unicode="E" horiz-adv-x="1306" d="M-63 -8l8 26l133 13q33 3 51 20.5t35 63.5q73 204 180.5 561t163.5 581q6 26 -2.5 37.5t-42.5 14.5l-137 12l8 27q42 0 145 -4.5t154 -4.5h399q236 0 348 15q-20 -35 -59 -165t-51 -200h-27q1 18 9 96t8 117q-1 26 -3.5 40t-14.5 27t-28 18.5t-53.5 9.5t-81 5t-118.5 1 h-201q-21 0 -31 -6.5t-16 -26.5q-64 -180 -172 -553q25 -6 229 -6q94 0 147 16.5t87.5 55t72.5 120.5h25q-76 -180 -137 -485l-25 4q10 67 10 115q0 17 -1 31q-5 56 -48.5 80t-144.5 24q-205 0 -232 -4q-22 -77 -61 -210.5t-61.5 -216t-36.5 -149.5q-1 -11 -2.5 -19.5 t6 -14.5t19.5 -10t39.5 -6.5t64 -3.5t94.5 -1q221 0 307.5 13.5t134.5 55.5q36 26 79 77t66 83.5t64 93.5l25 -8q-18 -34 -90 -188.5t-85 -179.5q-232 16 -604 16h-237q-49 0 -158 -4t-151 -4z" />
<glyph unicode="F" horiz-adv-x="1224" d="M-53 -6l10 24l113 13q33 3 51 14.5t31 42.5q45 111 202 614q130 423 156 564q3 21 -3 30.5t-26 10.5l-151 14l10 27q29 0 149.5 -4.5t174.5 -4.5h315q311 0 459 21q-30 -76 -57.5 -157t-48.5 -149t-27 -87h-29q12 51 21 123q7 54 7 90q0 12 -1 22q-1 30 -8 46.5t-22 29.5 t-52.5 18t-87 7t-138.5 2h-221q-50 0 -59 -29q-37 -92 -176 -582q25 -4 245 -4q57 0 91 1.5t68.5 9t54.5 19.5t42.5 35.5t39.5 53.5t38 78l25 -6q-34 -86 -77.5 -230.5t-70.5 -263.5h-22q9 59 13 96q1 15 1 30q0 21 -3 39q-5 32 -18.5 49t-41 29.5t-66 16.5t-98.5 4 q-211 0 -238 -2q-114 -380 -155 -559q-6 -27 5.5 -38.5t45.5 -16.5q90 -11 155 -17l-10 -24q-29 0 -149 3t-174 3q-49 0 -162 -3t-131 -3z" />
<glyph unicode="G" horiz-adv-x="1579" d="M182 514q0 284 149.5 500t385.5 305q162 61 368 61q167 0 291 -52.5t174 -123.5l95 133l16 -14q-1 -3 -13 -31.5t-22.5 -54t-26.5 -66t-30 -79.5t-28.5 -82t-26 -86t-19.5 -80h-29q16 82 16 151q0 134 -61 219q-93 129 -338 129q-194 0 -348 -110 q-167 -124 -256.5 -329.5t-89.5 -446.5q0 -111 32.5 -201.5t80.5 -136.5q114 -123 319 -123q266 0 330 149q45 100 96 318q8 35 8 58q0 20 -7 30q-13 21 -79 27l-141 12l10 26q26 -1 93.5 -3t126 -3.5t96.5 -1.5q71 0 254 6v-24q-83 -6 -108.5 -18t-41.5 -48 q-51 -126 -88 -286q-30 -130 -33 -177q-30 -8 -118.5 -34t-130.5 -36t-120.5 -21t-158.5 -11q-141 0 -254 33t-197.5 99.5t-130 174t-45.5 248.5z" />
<glyph unicode="H" horiz-adv-x="1622" d="M-53 -8l8 26q98 3 145 20t64 60q31 83 61.5 182.5t68 227.5t60.5 203q120 386 156 549q7 35 -26 44.5t-146 16.5l6 27q119 -9 274 -9q48 0 153 4.5t140 4.5l-8 -27q-99 -5 -139 -19t-55 -53q-48 -123 -166 -526q53 -2 356 -2q317 0 393 2q116 386 150 537q7 32 -26 43.5 t-136 17.5l6 27q45 -1 139.5 -5t135.5 -4q55 0 155.5 4.5t126.5 4.5l-6 -27q-94 -5 -137.5 -20t-61.5 -56q-21 -55 -43 -123t-35.5 -115.5t-42.5 -151t-44 -155.5q-14 -49 -42 -149t-44.5 -158.5t-38 -142.5t-37.5 -154q-2 -8 -2 -15q0 -28 29 -40q36 -14 161 -23l-12 -26 q-43 0 -155.5 4t-162.5 4q-54 0 -155.5 -4t-124.5 -4l10 26q107 8 149 24t58 64q50 144 172 572q-72 2 -391 2q-91 0 -218 -1t-141 -1q-139 -488 -161 -590q-9 -37 26 -49.5t146 -20.5l-7 -26q-26 0 -138.5 4t-155.5 4q-52 0 -155 -4t-136 -4z" />
<glyph unicode="I" horiz-adv-x="686" d="M-55 -8l10 24l100 11q46 5 66 19t37 56q34 86 184 572q117 367 162 551q10 32 10 51q0 10 -3 16q-8 18 -52 21l-111 8l10 27q26 0 119 -4.5t141 -4.5q71 0 170.5 4.5t114.5 4.5l-10 -27l-96 -10q-40 -3 -56.5 -16t-35.5 -56q-56 -139 -179 -565q-31 -107 -74.5 -251.5 t-65 -218t-26.5 -106.5q-7 -39 4.5 -52.5t45.5 -16.5l125 -13l-15 -24q-32 0 -149.5 4t-139.5 4h-27q-64 0 -147 -4q-101 -4 -112 -4z" />
<glyph unicode="J" horiz-adv-x="677" d="M-219 -205l6 6q62 -43 137 -43q31 0 50 4t44 20.5t45.5 49.5t45.5 92t53 146q41 122 143 467q174 591 201 716q6 31 -2 43t-37 15q-46 4 -129 10l14 27q35 0 122.5 -4.5t139.5 -4.5q43 0 146 4.5t129 4.5l-10 -27q-11 -2 -113 -14q-25 -3 -38 -15t-21 -37 q-43 -122 -234 -806q-82 -291 -137 -422q-61 -143 -166 -220q-125 -90 -274 -90q-34 0 -63 8t-38 21q-6 8 -14 49z" />
<glyph unicode="K" horiz-adv-x="1464" d="M-53 -8l10 24l100 11q47 4 65.5 19t33.5 52q54 140 190 588q128 419 160 563q8 36 -4 49.5t-56 16.5l-106 8l12 25q19 -1 72 -3.5t105.5 -4t97.5 -1.5q58 0 152 4.5t120 4.5l-10 -25l-105 -12q-34 -3 -47.5 -11.5t-23.5 -35.5q-66 -160 -176 -559q89 24 274.5 144 t344 244.5t204.5 178.5q14 19 10.5 24t-24.5 7l-129 14l10 22q5 0 48 -0.5t90.5 -0.5t88.5 1q162 3 234 9l-9 -25q-99 -8 -148 -22.5t-106 -55.5q-507 -371 -673 -475q401 -605 499 -700q24 -24 61.5 -36t119.5 -16l-9 -24q-64 3 -120 3q-151 0 -240 -20q-18 30 -207 299 t-244 357q-26 34 -40 41t-46 0q-122 -405 -168 -592q-6 -29 6.5 -38.5t57.5 -14.5l113 -13l-15 -24q-19 0 -133 4t-170 4q-54 0 -152.5 -4t-117.5 -4z" />
<glyph unicode="L" horiz-adv-x="1232" d="M-55 -8l6 26q15 2 64.5 6.5t66.5 6.5q51 3 70 53q67 163 200 618q119 406 156 558q8 26 -2.5 36.5t-52.5 14.5l-119 8l10 27q9 0 114 -3.5t171 -3.5q30 0 289 7l-11 -27l-110 -10q-42 -5 -59 -16t-29 -44q-59 -157 -172 -542q-139 -466 -179 -641q-2 -10 2 -15.5 t22.5 -9.5t51.5 -5t94 -1q165 0 242.5 5.5t117 19t79.5 46.5q12 10 24.5 22t25.5 27.5t22.5 27.5t23.5 32t21.5 31t22 34t20 31.5t20.5 33.5l18 30h29q-51 -104 -168 -387q-15 2 -37 4t-56.5 3t-66 2t-84 1.5t-90.5 1t-106 0.5h-109.5h-121.5h-124q-66 0 -286 -8z" />
<glyph unicode="M" horiz-adv-x="1935" d="M-94 -8l14 26q20 3 47 6.5t42.5 5.5t35.5 6t33 10.5t27 17t24.5 27t20.5 38.5q174 418 417 1124q9 22 3 34.5t-35 15.5l-173 16l17 29q230 -9 248 -9q73 0 143 9q3 -35 18.5 -135t38.5 -241t43 -264t44.5 -267.5t31.5 -188.5q150 214 455.5 632t337.5 464q79 -9 139 -9 q27 0 72.5 2t97 4t72.5 3l-11 -27q-10 -1 -38.5 -4t-54 -5.5t-46.5 -6.5q-25 -3 -39.5 -15.5t-23.5 -40.5q-46 -161 -145.5 -574.5t-127.5 -576.5q-7 -42 12 -55t89 -18l80 -7l-15 -26q-212 8 -309 8q-58 0 -150.5 -4t-121.5 -4l12 26q79 5 113.5 12.5t51 23t27.5 50.5 q52 160 322 1184h-2q-292 -408 -543.5 -768.5t-363.5 -531.5q-9 0 -21.5 -2t-25 -5t-15.5 -4q-10 92 -41.5 326t-69.5 516t-57 434h-2q-50 -151 -141.5 -419.5t-142.5 -424t-76 -247.5q-7 -26 -9.5 -44t-0.5 -32.5t12 -24t23.5 -17t39 -12t53.5 -8t72 -6.5l-14 -26 q-21 0 -105 4t-139 4q-44 0 -109.5 -2t-112.5 -4t-48 -2z" />
<glyph unicode="N" horiz-adv-x="1558" d="M-63 -8l16 26q49 0 117 15q62 12 100 92q60 136 326 1067q6 21 6 37q0 71 -101 80l-116 12l14 27q23 0 104 -4.5t121 -4.5q41 0 138 9q69 -150 163.5 -335.5t248 -476t175.5 -333.5q247 859 269 1038q4 35 -14.5 50t-69.5 20l-119 10l14 27h12q33 0 99 -4q80 -5 112 -5 q37 0 132 5q79 4 111 4h11l-10 -27q-14 -1 -117 -16q-52 -6 -77 -66q-48 -115 -157 -486t-202 -765q-37 0 -108 -23q-41 94 -122 260t-138.5 279t-187 365.5t-159.5 312.5q-23 -84 -67 -246.5t-68.5 -255t-55.5 -210t-50.5 -197.5t-30.5 -132q-5 -25 -5 -43q0 -20 6 -32 q12 -22 46 -29q7 -1 62 -9t88 -10l-15 -26q-20 0 -107 4t-165 4q-31 0 -116 -4t-113 -4z" />
<glyph unicode="O" horiz-adv-x="1605" d="M164 467q0 229 108 440.5t295 337.5q199 135 473 135h2q266 0 417 -139.5t151 -392.5q0 -186 -78.5 -371.5t-214.5 -308.5q-228 -209 -580 -209q-96 0 -180.5 18t-157 57.5t-124.5 98t-81.5 144t-29.5 190.5zM373 393q0 -199 94 -299t260 -100q116 0 210.5 39.5 t182.5 132.5q128 140 204.5 366t76.5 431q0 181 -92.5 282t-261.5 101h-3q-107 0 -206.5 -42.5t-175.5 -123.5q-127 -138 -208 -364t-81 -423z" />
<glyph unicode="P" horiz-adv-x="1271" d="M-53 -8l10 26l94 7q51 3 74 21.5t41 64.5q10 23 19 47.5t20.5 58.5t20 61.5t24.5 80t27 89t34 113.5t39 129q115 372 156 555q8 37 0.5 46t-43.5 14l-141 18l18 25q18 0 114 -4.5t152 -4.5q37 0 129 4.5t176 4.5q162 0 240.5 -26.5t128.5 -76.5q88 -85 88 -241 q0 -111 -51 -213t-141 -162q-148 -103 -363 -103q-134 0 -213 29l4 35q58 -25 166 -25q124 0 215 68q86 65 132 175.5t46 229.5q0 137 -67 201q-74 74 -242 74q-67 0 -99 -10.5t-42 -36.5q-62 -151 -203 -650q-124 -435 -137 -510q-8 -41 3.5 -56t61.5 -19l144 -13l-15 -26 q-12 0 -122 4t-199 4q-74 0 -181.5 -4t-117.5 -4z" />
<glyph unicode="Q" horiz-adv-x="1605" d="M164 469q0 222 109 439t290 335q210 137 475 137q267 0 419.5 -134.5t152.5 -391.5q0 -193 -75 -378t-212 -306q-108 -96 -244 -147.5t-268 -61.5l2 -6q57 -18 209.5 -86t220.5 -94q74 -30 147 -43q69 -11 106 -11h6q38 1 67 7v-17q-37 -35 -114.5 -60.5t-158.5 -25.5 q-113 0 -211.5 52t-230.5 157q-68 54 -117.5 82.5t-73.5 36.5t-73 18q-426 81 -426 498zM373 391q0 -190 95 -295.5t267 -105.5q216 0 391 184q129 141 204 364t75 408q0 193 -93.5 296.5t-269.5 103.5h-4q-107 0 -206.5 -44.5t-174.5 -130.5q-120 -132 -202 -351.5 t-82 -428.5z" />
<glyph unicode="R" horiz-adv-x="1337" d="M-45 -6l16 24l76 7q54 4 76.5 20t40.5 57q14 32 36.5 103t70.5 231.5t79 259.5q75 242 158 547q9 37 -1 50.5t-58 17.5l-130 12l17 25h10q30 0 114 -4q102 -5 144 -5q27 0 144.5 4.5t199.5 4.5q132 0 208.5 -20t121.5 -64q61 -58 61 -179q0 -78 -29.5 -141.5t-78 -106 t-118.5 -74.5t-144 -49.5t-160 -27.5v-10q182 -22 260 -72.5t86 -134.5q9 -26 9 -67q0 -82 -36 -222q-9 -37 -9 -65q-1 -41 19 -65q34 -38 97 -38q41 0 68 8l-17 -28q-44 -12 -117 -12q-145 0 -203 52q-41 37 -41 110q0 30 7 67q6 30 19 83t18 77q11 55 13 97q0 5 1 10 q0 36 -10 62q-11 28 -26.5 48t-42 31.5t-51.5 17.5t-60 10q-71 13 -158 17q-41 2 -69 3q-31 0 -44 -3q-112 -373 -153 -560q-11 -41 4 -56t76 -19l100 -9l-14 -24q-9 0 -116 3t-179 3q-58 0 -159.5 -3t-125.5 -3zM537 698q25 -4 71 -4q153 0 269 43t187 138.5t71 234.5 q0 93 -45 141q-35 33 -85 47.5t-143 14.5h-61q-38 0 -57 -10.5t-31 -38.5q-10 -24 -176 -566z" />
<glyph unicode="S" horiz-adv-x="1095" d="M39 96q26 59 64 176t59 199l31 10q-30 -133 -33 -215q-1 -137 87.5 -204.5t246.5 -67.5q72 0 136 18.5t114.5 55t80 95.5t29.5 134q0 67 -24 112t-76 83q-20 16 -54 38.5t-63 40.5t-78 48.5t-74 46.5q-99 61 -144.5 126.5t-45.5 176.5q0 95 47 179.5t125 143.5 q118 88 313 88q127 0 210 -43t116 -92l84 109l12 -17q-89 -193 -155 -409l-25 4q21 84 21 153q0 89 -35 151q-62 112 -230 112q-149 0 -235 -79.5t-86 -215.5q0 -73 32.5 -126t102.5 -96q70 -46 174 -108t131 -80q70 -48 102.5 -107.5t32.5 -144.5q0 -149 -114 -270 q-156 -162 -447 -162q-141 0 -253 42.5t-179 94.5z" />
<glyph unicode="T" horiz-adv-x="1378" d="M225 995q25 44 77.5 171t78.5 204q40 -16 143 -24q137 -7 369 -7h149q344 0 429.5 4t140.5 27q-20 -40 -65.5 -166.5t-67.5 -216.5l-31 -14q23 113 29 248q-1 40 -23 56q-22 17 -110 25q-79 8 -246 7h-41q-31 -86 -94 -297.5t-86 -284.5q-149 -489 -177 -635 q-7 -32 3.5 -44t46.5 -15q143 -14 161 -15l-14 -26q-11 0 -136 4t-198 4q-47 0 -164 -4t-161 -4l10 26q44 2 133 11q40 5 62.5 16t33.5 37q70 175 213 653q20 66 48 158.5t43 141.5t32.5 107t27.5 97t17 70q-115 0 -179.5 -2.5t-115 -7t-78 -18t-46.5 -30t-42 -47.5 q-86 -105 -151 -225z" />
<glyph unicode="U" horiz-adv-x="1517" d="M246 451q25 94 122 420t111 382q7 26 0.5 40.5t-30.5 15.5l-123 12l10 27q44 0 137 -5t137 -4q61 0 146.5 4.5t109.5 4.5l-10 -27l-104 -12q-26 -3 -42 -13t-24 -34q-62 -157 -143 -433t-109 -434q-8 -61 -10 -103v-10q0 -36 10 -68q12 -36 26.5 -59t37.5 -46 q39 -39 117.5 -66t152.5 -27q73 0 129.5 9t114 33t102.5 65.5t87 108.5t75 159q64 185 130.5 437t94.5 393q6 24 6 40q1 19 -7 27q-14 16 -68 21l-113 12l10 27q23 0 102.5 -5t118.5 -4q45 0 122 4.5t110 4.5l-6 -27q-79 -4 -113 -13t-51 -29.5t-35 -70.5 q-29 -87 -121 -396.5t-133 -422.5q-45 -123 -110.5 -213.5t-172.5 -148.5q-62 -33 -158.5 -50.5t-197.5 -17.5q-120 0 -228.5 38.5t-160.5 102.5q-69 82 -69 205q0 67 20 146z" />
<glyph unicode="V" horiz-adv-x="1343" d="M180 1321l13 27h11q31 0 101 -4q85 -5 127 -5q58 0 154 4.5t137 4.5l-10 -27q-77 -4 -110.5 -12t-42 -21t-7.5 -43q0 -94 27.5 -474.5t50.5 -627.5q75 106 226 319t225 318.5t162.5 237t135.5 211.5q24 44 19.5 57t-43.5 19q-32 5 -83 10t-59 6l11 27q11 0 94.5 -4.5 t132.5 -4.5q35 0 120.5 4.5t119.5 4.5l-9 -27q-96 -7 -141 -30t-96 -89q-149 -188 -401.5 -540.5t-460.5 -665.5q-68 -3 -125 -31l-6 4q-11 273 -42 664t-61 614q-4 35 -19 46t-57 16z" />
<glyph unicode="W" horiz-adv-x="1986" d="M199 1321l14 27q28 0 113 -4.5t135 -4.5q63 0 284 9l-8 -27q-106 -9 -135 -24t-33 -64q-8 -130 -16 -1045q39 71 179 322.5t240.5 436.5t176.5 337q12 28 18 53q7 -2 20 -2q40 0 134 19q0 -282 47 -1172q290 454 430.5 681t210.5 358q19 36 19 54q0 5 -2 9q-8 16 -54 21 l-121 16l7 27q20 0 103.5 -4.5t123.5 -4.5q49 0 126 4.5t118 4.5l-11 -27q-93 -7 -133.5 -25.5t-79.5 -64.5q-121 -150 -412 -606.5t-386 -628.5q-90 -12 -119 -27l-4 4q-1 89 -4.5 220.5t-8 251t-12.5 342.5t-14 389q-106 -196 -256 -466.5t-241.5 -439t-141.5 -274.5 q-89 -11 -125 -27l-6 4v41q1 90 3 310q3 246 3 475q-1 33 -1 65q0 259 -9 381q-3 34 -13 45.5t-39 14.5q-111 16 -120 16z" />
<glyph unicode="X" horiz-adv-x="1449" d="M-106 -8l6 26q91 9 145.5 29t110.5 62t153 138.5t235 241.5t191 199q-154 394 -248 578q-18 39 -84 45l-112 12l12 25q18 0 108 -4.5t152 -4.5q129 0 285 9l-12 -25q-92 -8 -115.5 -20t-9.5 -50q36 -93 92.5 -233t77.5 -195q307 307 391 422q19 25 14 40.5t-41 19.5 l-127 16l8 25q17 0 103 -4.5t149 -4.5q66 0 149.5 4.5t98.5 4.5l-4 -25q-124 -11 -173.5 -30.5t-135.5 -92.5q-34 -29 -93 -88t-152.5 -153.5t-170.5 -170.5q48 -113 120 -285t108.5 -257.5t64.5 -145.5q15 -33 41.5 -48t79.5 -21l100 -13l-6 -26q-40 0 -142.5 4t-148.5 4 q-47 0 -143 -4t-160 -4l6 26q55 5 88 10t51 12.5t21 17.5t-2 24q-32 82 -73 184t-87.5 218t-66.5 167q-47 -51 -143 -155l-150 -162.5t-112 -124.5t-83 -98q-28 -38 -18.5 -52.5t69.5 -23.5l123 -17l-10 -26q-12 0 -104.5 4t-159.5 4q-65 0 -150.5 -4t-115.5 -4z" />
<glyph unicode="Y" horiz-adv-x="1234" d="M170 1321l8 27q24 0 120.5 -4.5t160.5 -4.5q123 0 243 9l-10 -27q-62 -5 -91.5 -13t-35.5 -18t-2 -28q65 -210 203 -584q364 413 479 569q17 28 13.5 41t-29.5 17q-58 12 -135 16l12 27q15 0 92.5 -4.5t130.5 -4.5q19 0 99 4.5t131 4.5l-9 -27q-92 -8 -138 -26.5 t-109 -77.5q-135 -128 -480 -535q-42 -47 -67 -133q-27 -86 -64 -236t-47 -219q-1 -5 -1 -10q0 -44 50 -49q23 -3 150 -17l-6 -26q-46 0 -162.5 4t-173.5 4q-76 0 -172.5 -4t-141.5 -4l11 26q88 11 137 17q40 5 60.5 22t41.5 68q42 102 133 446q5 23 5 46.5t-5 48.5 q-11 51 -83 253t-121 306q-27 59 -59.5 73.5t-137.5 22.5z" />
<glyph unicode="Z" horiz-adv-x="1458" d="M-14 16q245 229 637 622t643 662h-344q-188 0 -276 -8.5t-121.5 -26t-61.5 -59.5q-67 -105 -133 -264l-27 16q34 89 61.5 210t30.5 200q64 -27 150 -27q57 -2 301 -2h387q37 0 295 13q-51 -88 -98 -135q-24 -26 -83.5 -84t-172 -170t-240.5 -244q-189 -192 -387 -396.5 t-279 -285.5q193 0 313.5 1t226 2.5t163 7.5t103 11.5t68.5 18t36.5 24t29.5 33.5q94 122 158 283l23 -21q-79 -241 -115 -411q-49 6 -211 10q-86 4 -270 4h-469q-240 0 -332 -6z" />
<glyph unicode="[" horiz-adv-x="681" d="M0 -379q11 39 44.5 157t88 312t125.5 447q214 774 246 903q41 -6 157.5 -5.5t204.5 5.5l-16 -29q-94 0 -188 -14q-34 -7 -48 -41q-55 -116 -247 -819q-197 -711 -215 -840q-1 -17 10.5 -23t42.5 -8l172 -4l-25 -31q-260 7 -352 -10z" />
<glyph unicode="\" horiz-adv-x="827" d="M377 1374l55 29q16 -143 108.5 -808.5t106.5 -770.5l-55 -29q-37 348 -105 817q-95 685 -110 762z" />
<glyph unicode="]" horiz-adv-x="681" d="M-100 -379l18 31q85 0 186 14q34 3 50 39q51 115 247 819q193 700 213 842q1 15 -11.5 22t-43.5 9l-168 4l21 31q259 -7 354 8q-227 -798 -260 -916q-169 -609 -244 -903q-40 7 -158 6.5t-204 -6.5z" />
<glyph unicode="^" horiz-adv-x="1040" d="M178 633l350 696h82l348 -696h-90l-303 614l-293 -614h-94z" />
<glyph unicode="_" horiz-adv-x="1024" d="M-102 -227h1024v-119h-1024v119z" />
<glyph unicode="`" horiz-adv-x="905" d="M455 1346q4 25 17.5 37t29.5 12q40 0 73 -68q22 -51 117 -332l-18 -8q-49 72 -113 158t-74 102q-40 57 -32 99z" />
<glyph unicode="a" horiz-adv-x="1148" d="M76 195q0 159 88 326.5t239 271.5q147 96 285 96q196 0 217 -135l31 106h168q-54 -149 -116.5 -359.5t-96.5 -363.5q-6 -34 -6 -55q-1 -16 3 -24q8 -19 32 -19q60 0 118.5 65t98.5 150l20 -21q-45 -104 -130 -183t-191 -79q-39 0 -65 12.5t-35.5 35.5t-12.5 48t4 59.5 t14 59.5t17.5 57.5t13.5 45.5h-4q-100 -141 -228 -229.5t-270 -88.5q-97 0 -145.5 58.5t-48.5 165.5zM256 186q0 -61 26.5 -103t82.5 -42q211 0 383 307q46 77 80 176t34 156q0 86 -33 128t-108 42q-135 0 -254 -133q-98 -112 -154.5 -258.5t-56.5 -270.5v-2z" />
<glyph unicode="b" horiz-adv-x="1103" d="M106 209q27 97 108 365t144.5 487t77.5 295q3 16 -2.5 21t-17.5 5l-140 7l9 24q230 11 358 37q-35 -99 -93 -285t-116 -380t-69 -228q115 158 239 245t270 87q203 0 204 -221q0 -9 -1 -19q-7 -176 -106.5 -345t-239.5 -247q-156 -86 -330 -86q-137 0 -208 45 q-97 41 -97 131q0 29 10 62zM266 156q0 -152 170 -152h2q41 0 92.5 20t92.5 52q98 78 180.5 248t91.5 342q1 12 1 24q0 144 -105 144q-96 0 -207 -89.5t-195 -242.5q-123 -237 -123 -346z" />
<glyph unicode="c" horiz-adv-x="952" d="M90 285q0 109 43 217t118 194t187 139.5t240 53.5q137 0 203.5 -53.5t66.5 -141.5q0 -60 -33.5 -94.5t-72.5 -34.5q-52 0 -64 45q-11 22 10 58q25 48 25 80q0 54 -30 82t-107 28q-168 0 -289 -182q-56 -86 -86.5 -196t-30.5 -210q0 -121 57.5 -184t157.5 -63 q271 0 402 305h10l-2 -84q-23 -42 -66 -87t-102.5 -88t-141 -70.5t-165.5 -27.5q-330 0 -330 314z" />
<glyph unicode="d" horiz-adv-x="1181" d="M76 211q0 169 89 330t234 258q143 90 301 90q181 0 232 -113q143 439 170 574q5 14 -0.5 23t-20.5 9q-33 2 -153 2l12 29q80 0 199 12t178 25q-63 -167 -208 -635t-196 -690q-5 -25 -7 -37.5t-2 -26t7.5 -19t20.5 -5.5q52 0 120.5 70t100.5 147l21 -25 q-27 -52 -58.5 -95.5t-72 -81.5t-92 -59.5t-107.5 -21.5q-82 -1 -100 57q-6 20 -6 46q0 50 24 125q6 28 22 80q-25 -37 -58 -75.5t-82.5 -81.5t-103 -75.5t-121.5 -54t-136 -21.5q-101 0 -154 64.5t-53 175.5zM258 195q0 -71 31 -116.5t92 -45.5q80 0 179 74t185 204 q63 93 101.5 197t38.5 178t-34.5 122t-117.5 48q-130 0 -244 -111q-101 -103 -166 -250t-65 -298v-2z" />
<glyph unicode="e" horiz-adv-x="937" d="M86 266q0 146 69 285t197 235q67 49 150.5 76t167.5 27q61 0 107 -14t73 -36t44 -52.5t22.5 -58t5.5 -58.5q0 -120 -213 -195q-142 -50 -430 -80q-13 -63 -13 -133q0 -109 48 -173t153 -64q136 0 239.5 81.5t159.5 219.5h13l4 -80q-86 -133 -216.5 -204t-279.5 -71 q-145 0 -223 73.5t-78 221.5zM289 438q198 11 338 58q67 25 105 77.5t38 124.5t-33.5 115t-87.5 43h-4q-36 0 -71.5 -11t-76 -40.5t-76 -75t-70.5 -120t-62 -171.5z" />
<glyph unicode="f" horiz-adv-x="540" d="M-457 -412q0 29 22.5 57.5t51.5 32.5q7 2 13 2q29 0 42 -34q29 -64 61 -96.5t87 -32.5q40 0 69.5 17.5t54.5 60t43 92t44 135.5q94 293 264 987l-166 16l12 29h164q51 181 100.5 286t116.5 175q62 65 139 100t154 35q93 0 142 -44t49 -106q0 -47 -30.5 -72.5t-70.5 -25.5 q-31 0 -43 12.5t-10.5 27.5t7 42.5t5.5 42.5q0 88 -82 88q-117 0 -194 -196q-48 -122 -111 -365h203l-12 -31l-201 -14q-201 -765 -274 -961q-87 -222 -285 -340q-87 -55 -193 -55q-75 0 -123.5 42.5t-48.5 92.5z" />
<glyph unicode="g" horiz-adv-x="962" d="M-121 -256q0 89 73 148t189 59q32 0 82 -10l10 -25q-15 1 -29 1q-39 0 -74 -9q-49 -14 -84.5 -55.5t-35.5 -106.5q0 -112 117 -187t287 -75q148 0 230.5 64t82.5 151q0 131 -166 174q-64 17 -171.5 46.5t-127.5 35.5q-94 23 -147.5 67t-53.5 121q0 60 42 108t124 77 q-57 63 -57 164q0 169 126.5 283t303.5 114h2q150 0 225 -78q133 88 201 88q32 0 56 -18.5t24 -34.5q0 -25 -57 -76q-70 35 -131 35q-38 0 -72 -14q45 -63 45 -150q0 -178 -121.5 -289.5t-306.5 -111.5q-135 0 -217 67q-72 -25 -72 -94q0 -33 35.5 -61.5t93.5 -40.5 q222 -56 309 -74q256 -53 256 -254q0 -84 -45 -151t-119.5 -107.5t-163 -62t-182.5 -21.5q-81 0 -162.5 18t-154.5 53t-118.5 95.5t-45.5 136.5zM332 432q0 -49 13 -83.5t35 -51t44 -23t47 -6.5q82 0 145 76q52 58 84.5 155.5t32.5 180.5q0 88 -30.5 133t-100.5 45h-2 q-95 0 -166 -92q-45 -63 -73.5 -158t-28.5 -176z" />
<glyph unicode="h" horiz-adv-x="1138" d="M23 -14q100 294 229.5 712t187.5 656q1 8 1 15t-6 11t-19 4h-137l6 27q24 0 98 6t157 15.5t115 17.5q-54 -128 -290 -905q55 73 113.5 132t127 107.5t145 75.5t154.5 27q44 0 70.5 -10t48.5 -31q35 -31 35 -93q0 -54 -27 -132q-28 -82 -91 -252.5t-87 -245.5 q-14 -41 -14 -62q0 -5 1 -9q4 -20 29 -19q58 0 122.5 69t101.5 154l20 -29q-131 -256 -321 -256q-36 0 -60.5 10t-35 29t-14.5 40t1.5 51t12.5 55t18 57q23 63 85.5 228.5t82.5 230.5q8 25 11.5 50t0 50t-22 41t-51.5 16q-80 0 -177 -60t-185 -171q-60 -77 -95.5 -146 t-70.5 -161q-27 -76 -94 -295q-137 -7 -176 -10z" />
<glyph unicode="i" horiz-adv-x="542" d="M119 180q19 62 89.5 277.5t102.5 322.5q6 17 3 25t-21 8h-146l11 25q241 18 350 51l6 -6q-56 -134 -136 -387t-110 -375q-8 -34 -8 -53t7 -27t22 -8q63 0 136.5 71.5t106.5 151.5l21 -25q-49 -102 -141 -181t-199 -79q-116 0 -116 101q0 44 22 108zM401 1202 q1 48 35 78.5t74 30.5h2q36 0 57 -25q19 -23 19 -58v-7q-1 -44 -32.5 -75.5t-72.5 -31.5q-35 0 -58.5 24t-23.5 64z" />
<glyph unicode="j" horiz-adv-x="495" d="M-440 -414q0 32 26.5 58t53.5 28q5 0 9.5 -1t7.5 -2.5t6 -4.5l4.5 -4.5t3.5 -6.5t2.5 -7t2.5 -8t2 -7q26 -60 59 -89t83 -29q45 0 80 32t65 103q55 125 172 536q132 462 160 588q6 27 -1 35t-26 8l-143 -4l8 25q243 24 357 51l6 -6q-24 -83 -90 -320.5t-123 -434.5 t-92 -296q-32 -92 -76.5 -155.5t-112.5 -114.5q-140 -99 -266 -99q-85 0 -131.5 39t-46.5 86zM373 1202q1 47 34 78t72 31h2q37 0 57 -25q19 -22 19 -58v-7q-1 -44 -32 -75.5t-72 -31.5q-35 0 -57.5 24t-22.5 64z" />
<glyph unicode="k" horiz-adv-x="1040" d="M31 -12q48 143 215.5 691.5t195.5 674.5q3 18 -2 26t-26 9l-140 2l13 22q270 16 364 37q-20 -51 -41 -111t-46 -136.5t-42.5 -132.5t-46.5 -152t-42 -139.5t-44 -150.5t-39 -132q90 19 162.5 65.5t140.5 120.5q4 5 13 14q33 35 51 54t52.5 50t60.5 47t61 29t67 13 q18 0 32.5 -3t23 -9t14.5 -12.5t9 -15t4 -15.5t1 -15q0 -26 -17 -41.5t-36 -19.5q-10 -2 -33 14q-26 23 -67 23q-74 0 -182 -111q-92 -97 -187 -147q32 -3 59 -11.5t52 -25t44 -39.5t32.5 -56.5t19.5 -74.5q24 -144 33 -201q6 -40 24.5 -65t42.5 -25q50 0 95 47t100 160 l16 -27q-54 -134 -134.5 -195t-174.5 -61q-57 0 -93 40t-46 134q-4 31 -7 62t-7 68.5t-7 64.5q-9 72 -42 111.5t-85 39.5q-23 0 -53 -8t-49 -18q-68 -231 -129 -457q-129 -5 -180 -12z" />
<glyph unicode="l" horiz-adv-x="516" d="M90 184q23 76 76.5 245t95.5 306q128 415 180 629q4 15 -3 20t-29 7h-119l10 24q191 0 354 35q-51 -118 -233 -717q-147 -487 -172 -604q-9 -38 -9 -59q-1 -9 1 -15q6 -20 34 -20q52 0 125 66.5t113 156.5l21 -25q-59 -119 -151.5 -190.5t-190.5 -71.5q-120 0 -120 112 q0 42 17 101z" />
<glyph unicode="m" horiz-adv-x="1771" d="M43 -18q74 187 147.5 421.5t104.5 366.5q7 23 1.5 34t-26.5 11h-123l5 23q26 3 82.5 9.5t90.5 10.5t81.5 12.5t85.5 18.5q-17 -63 -119 -406q50 66 83.5 108t94.5 105t113.5 100t123 65t140.5 28q53 0 86 -21q34 -20 44 -56q9 -32 9 -66q-1 -4 -1 -10q-2 -40 -13 -89 q-5 -26 -11 -45.5t-16 -50t-16 -51.5q41 59 80 107.5t94 103t108.5 92t120.5 62t133 24.5q80 0 121 -45q21 -24 25 -68q1 -13 1 -25q1 -29 -5 -57q-8 -40 -23 -78q-22 -62 -91.5 -242.5t-94.5 -250.5q-10 -35 -10 -54q1 -9 3 -15q6 -18 35 -17q55 0 126 68t108 149l20 -27 q-52 -107 -147.5 -181.5t-188.5 -74.5q-123 0 -123 102q0 46 25 113q165 419 193 500q12 27 12 53q0 19 -6 39q-16 45 -70 45q-91 0 -202 -99t-202.5 -244t-144.5 -294q-39 -112 -65 -188q-78 -3 -183 -16q69 175 140.5 380.5t97.5 313.5q11 41 11 71q0 74 -70 74 q-85 0 -190.5 -84.5t-203.5 -232t-157 -318.5q-10 -28 -32 -90.5t-34 -97.5q-43 -3 -178 -16z" />
<glyph unicode="n" horiz-adv-x="1165" d="M47 -18q77 204 149 434.5t101 365.5q5 15 0.5 22t-23.5 7h-131l7 25q198 14 346 53q-53 -182 -125 -412q52 80 109 148.5t128 130.5t153 97.5t165 35.5q80 0 121 -35q27 -24 33 -69q3 -22 4 -42q0 -22 -4 -43q-7 -40 -21 -77q-23 -62 -89 -238.5t-93 -249.5 q-12 -34 -13 -56q0 -38 37 -38q55 0 122.5 66t104.5 147l21 -25q-53 -109 -145.5 -183.5t-186.5 -74.5q-61 0 -89 34q-27 32 -28 76q0 48 23 107q18 49 87 228t95 256q8 22 11.5 46.5t0 49.5t-22 41t-50.5 16q-69 0 -140.5 -41.5t-130.5 -105.5t-114 -147.5t-94.5 -161.5 t-67.5 -152q-39 -104 -78 -219q-96 -3 -172 -16z" />
<glyph unicode="o" horiz-adv-x="1067" d="M84 279q0 156 77 303t210 227q140 80 301 80h2q164 0 253 -81t89 -247q0 -151 -74.5 -295t-198.5 -217q-138 -78 -307 -78q-71 0 -129 13.5t-110.5 46t-82.5 95.5t-30 153zM254 217q0 -112 48.5 -164.5t123.5 -52.5q127 0 215 92q90 93 148.5 255.5t58.5 301.5 q0 213 -172 213h-2q-140 0 -244 -129q-75 -91 -125.5 -241.5t-50.5 -274.5z" />
<glyph unicode="p" horiz-adv-x="1140" d="M-276 -526l10 26l106 17q59 7 82 59q35 83 145.5 436.5t208.5 687.5q-37 -27 -99.5 -62.5t-92.5 -43.5q-9 10 -23 20q76 39 141.5 89.5t100.5 99.5q58 183 68 227q131 35 176 62l4 -9q-58 -167 -164 -524q53 71 104.5 126t114 103.5t133.5 74.5t146 26q110 0 165.5 -65 t55.5 -183q0 -89 -26.5 -183t-79.5 -181t-125 -155.5t-170 -109.5t-207 -41q-81 0 -148 28.5t-100 90.5q-57 -180 -135 -483q-8 -47 -0.5 -61t35.5 -17l137 -12l-11 -27h-194q-222 0 -358 -16zM303 180q0 -172 172 -172q68 0 126 28t118 95q88 97 148.5 253.5t60.5 272.5 q0 75 -31 126t-96 51h-2q-71 0 -160 -68t-174 -180q-77 -98 -119.5 -207.5t-42.5 -198.5z" />
<glyph unicode="q" horiz-adv-x="1126" d="M72 203q0 83 28.5 175t81 181t138.5 166.5t192 122.5q81 41 195 41q80 0 142 -31.5t83 -103.5l41 123h166q-97 -273 -205 -650q-17 -60 -41.5 -144.5t-37 -129.5t-29.5 -105t-26 -93.5t-18.5 -72t-15 -64t-8.5 -46.5q-4 -24 4 -34t29 -13l110 -14l-8 -25q-47 5 -131 5 q-41 0 -92 -1q-78 0 -312 -18l4 24q36 4 144 25q30 6 42.5 17.5t24.5 41.5q30 71 222 705q-233 -314 -512 -314q-211 0 -211 232zM250 180q0 -65 28.5 -107t83.5 -42q185 0 367 239q61 80 110 198.5t50 203.5q0 82 -38 130t-118 48h-2q-111 0 -221 -92q-124 -116 -192 -273 t-68 -305z" />
<glyph unicode="r" horiz-adv-x="804" d="M55 -18q76 203 145.5 449.5t80.5 340.5q3 23 -3.5 31t-21.5 8h-127l14 25q227 18 334 53q-23 -112 -96 -391h4q202 391 393 391q56 0 80.5 -33.5t24.5 -69.5q0 -59 -30 -90.5t-69 -31.5q-43 0 -49 41q-7 47 -17.5 58t-31.5 11q-51 0 -111.5 -61t-107 -140t-90.5 -176 q-66 -144 -139 -401q-72 -2 -183 -14z" />
<glyph unicode="s" horiz-adv-x="802" d="M18 53q41 77 99 305l26 7q-9 -23 -15.5 -74t-6.5 -85q-1 -96 61 -148q62 -54 172 -54q56 0 103.5 16.5t81.5 58t34 103.5q0 41 -15 67.5t-52 51.5q-57 36 -189 102q-139 69 -139 205q0 128 109 211q88 70 227 70q79 0 140 -28t85 -62l62 92l14 -17q-62 -136 -110 -333 l-25 -9q11 56 11 104q-1 78 -29 132q-46 88 -166 88q-78 0 -131.5 -41.5t-53.5 -120.5q0 -84 76 -129q28 -17 103 -55.5t100 -52.5q70 -37 99.5 -78.5t29.5 -114.5q0 -61 -29.5 -113t-71.5 -85q-109 -95 -292 -95q-83 0 -170.5 25.5t-137.5 56.5z" />
<glyph unicode="t" horiz-adv-x="641" d="M99 72v5q0 45 16 105q28 94 99.5 323.5t94.5 305.5l-168 12l17 31h164q16 48 77 266q94 10 193 51q-8 -20 -26 -74.5t-42 -129t-37 -113.5h254l-22 -31l-246 -12q-163 -515 -205 -696q-5 -20 -5 -37q0 -58 63 -58q76 0 156.5 85t109.5 174l18 -48q-63 -132 -161.5 -196 t-200.5 -64q-74 0 -111 27t-38 74z" />
<glyph unicode="u" horiz-adv-x="1146" d="M117 188q30 107 98.5 319.5t87.5 268.5q7 17 1 26t-28 9l-131 -4l17 27q17 2 84.5 8t98 9.5t82 13.5t91.5 24q-38 -57 -118 -301.5t-121 -419.5q-7 -39 -7 -68.5t19 -47t59 -17.5q74 0 148.5 39.5t133 102t102.5 130.5t69 133q70 176 110 336q6 17 0.5 26t-26.5 9 l-131 -4l12 27q214 14 354 55q-53 -130 -127 -364t-112 -396q-8 -39 -9 -60q0 -9 2 -15q5 -20 31 -21q51 0 121 67t111 158l20 -22q-57 -116 -142.5 -190.5t-193.5 -74.5t-108 98q0 37 16 89q2 8 8.5 29t13.5 45.5t15 50.5q-97 -139 -231.5 -225.5t-262.5 -86.5 q-117 1 -153 53q-19 28 -19 72q0 39 15 92z" />
<glyph unicode="v" horiz-adv-x="927" d="M72 815l6 23q222 19 328 49q-5 -38 -8 -77t-4 -89q-2 -49 -2 -83v-42v-60q0 -68 1 -102q0 -59 3 -185.5t3 -154.5q75 70 146 149t137.5 169t109.5 182t48 166q1 24 -0.5 59t-1.5 39q23 17 57.5 32t46.5 15q11 0 18 -30t7 -70q0 -73 -60 -170q-72 -114 -246.5 -310.5 t-310.5 -334.5q-60 -3 -114 -19q1 90 1 172q0 468 -20 639q-2 18 -10.5 25.5t-28.5 7.5h-106z" />
<glyph unicode="w" horiz-adv-x="1443" d="M88 811l8 27q237 21 338 49q-17 -64 -36 -304t-27 -462q78 105 211.5 305t195.5 303q3 16 8.5 63.5t8.5 63.5q46 3 166 25q-27 -135 -27 -535q0 -184 8 -262q59 61 106 113t108 130.5t102.5 146.5t71 147t30.5 147v90q20 17 50 32t40 15q12 0 23.5 -35.5t11.5 -70.5 q0 -72 -60 -181q-59 -103 -228 -301.5t-298 -326.5q-81 -8 -121 -19q-4 75 -4 304q0 153 2 374q-14 -21 -185.5 -272t-260.5 -387q-46 -4 -127 -19q19 207 33 462q9 168 8 265q0 50 -2 82q-1 23 -11 30t-38 7z" />
<glyph unicode="x" horiz-adv-x="1024" d="M-35 57q0 42 25.5 66t58.5 24q20 0 34 -14t20 -31t17.5 -31t26.5 -14q31 0 64.5 20.5t77 69.5t88.5 109.5t115 161.5q-57 237 -82 315q-13 44 -27 59t-39 15q-45 0 -147 -16l2 24q238 43 342 76q16 -62 45 -173t43 -165q140 183 232 266.5t173 83.5q53 0 80 -31 q0 -4 -4 -16h-14q-39 0 -76 -10q-44 -12 -101.5 -45.5t-128 -105.5t-151.5 -181q33 -146 78 -293q25 -84 43.5 -119.5t48.5 -35.5q88 0 186 192l15 -20q-31 -75 -73 -130.5t-84 -84.5t-79.5 -42.5t-71.5 -13.5q-25 0 -45.5 11t-34 26t-27 45.5t-21.5 55.5t-21 69 q-33 135 -51 201q-18 -25 -51.5 -74.5t-50 -73t-42 -57.5t-48 -59.5t-46.5 -49.5q-56 -58 -100 -82t-96 -24q-50 0 -76.5 30.5t-26.5 71.5z" />
<glyph unicode="y" horiz-adv-x="944" d="M-201 -401q0 36 23 63t59 27q41 0 53 -47q12 -97 86 -97q34 0 70 22t63.5 51t64.5 87t60 98.5t64 116.5q-27 34 -37 141q-54 558 -88 707q-5 20 -17 27t-42.5 10t-114.5 4l12 25q53 0 172.5 19.5t167.5 37.5q3 -67 28.5 -332t43.5 -426q101 188 270 457 q102 165 188.5 233t172.5 78l4 -20q-58 -19 -119 -76.5t-135 -153.5q-97 -124 -218.5 -319.5t-232.5 -401.5q-153 -278 -243.5 -374.5t-208.5 -96.5q-73 0 -111 45q-35 42 -35 90v5z" />
<glyph unicode="z" horiz-adv-x="942" d="M-37 6q20 29 61.5 75.5t63.5 63.5q133 101 362.5 286t356.5 308q-436 -5 -498 -18q-46 -7 -83 -53t-95 -156l-16 18q140 300 155 371q23 -26 84 -33q57 -8 375 -8q179 0 238 25l6 -17q-43 -83 -121 -151q-42 -39 -105.5 -93.5t-149 -124t-144.5 -117.5t-156.5 -126 t-120.5 -96q50 0 220.5 -38t219.5 -38q112 0 167 46t57 124q0 12 -3 31t-3 33t6 24q31 51 45 51h2q14 0 14 -53q-2 -194 -207 -332q-33 -24 -81.5 -40.5t-86.5 -16.5q-90 0 -276 57q-98 31 -160 31q-53 0 -110 -49z" />
<glyph unicode="{" horiz-adv-x="681" d="M113 512v31q125 0 177.5 40.5t78.5 161.5q15 64 38 197.5t31 171.5q19 94 67 165t109 108t123 53.5t119 11.5l-10 -35q-126 5 -192 -50.5t-83 -190.5q-5 -37 -13.5 -100.5t-12.5 -95.5t-11 -73.5t-14 -72.5q-31 -141 -95 -206.5t-194 -103.5q185 -78 140 -293 q-5 -22 -12 -47.5t-12 -42.5t-17.5 -52t-17 -48t-22 -60.5t-22.5 -60.5q-66 -178 -42 -246t167 -69l-12 -33q-84 -3 -150.5 32t-99.5 110t0 190q9 32 65.5 205.5t69.5 232.5q22 94 -13 131t-140 39z" />
<glyph unicode="|" horiz-adv-x="509" d="M193 -512v2048h96v-2048h-96z" />
<glyph unicode="}" horiz-adv-x="681" d="M-102 -428l12 39q126 -5 190.5 50.5t81.5 186.5q6 42 13 103t11.5 95t11.5 75.5t15 73.5q33 139 98.5 206t192.5 103q-187 67 -143 284q7 33 18.5 71.5t21 64.5t30 82.5t30.5 85.5q66 189 42.5 255t-161.5 70l9 33q58 5 111 -15t92.5 -63t52.5 -110t-9 -158 q-9 -33 -64.5 -198t-66.5 -224q-20 -93 14.5 -128t141.5 -38l-2 -31q-121 2 -174.5 -41t-79.5 -165q-15 -63 -37.5 -198t-30.5 -171q-16 -74 -51.5 -134.5t-80 -99t-96.5 -64t-100.5 -34.5t-92.5 -6z" />
<glyph unicode="~" horiz-adv-x="970" d="M90 324q6 78 23 136.5t38 91t49 52t51 25.5t48 6q103 0 197 -127q47 -65 82.5 -97t72.5 -32q25 0 43 8t37.5 32t33.5 76.5t21 133.5l74 -15q-13 -163 -65 -237t-146 -74q-58 0 -104.5 34t-102.5 105q-35 47 -50 65t-42.5 37t-56.5 19q-104 0 -131 -250z" />
<glyph unicode="&#xa1;" horiz-adv-x="405" d="M-131 -362q8 39 76 149q159 280 268 651h29q-94 -362 -109 -653q-4 -125 -14 -158q-11 -42 -65 -88.5t-95 -46.5h-2q-33 0 -67.5 46.5t-20.5 99.5zM197 764q3 54 38.5 88.5t88.5 34.5h2q38 0 65.5 -29.5t26.5 -79.5q-3 -54 -37 -91.5t-86 -37.5q-49 0 -74.5 33t-23.5 82z " />
<glyph unicode="&#xa2;" d="M160 553q0 115 48 219t132.5 181t207.5 120t263 37l47 160l53 14l-57 -178q121 -9 185.5 -70.5t64.5 -144.5q0 -48 -25 -77.5t-59 -29.5q-37 0 -51 20t-4 44q18 52 18 90q0 112 -139 137q-37 -121 -122 -393t-130 -420q304 0 436 277h10l2 -76q-55 -89 -176 -163.5 t-286 -84.5l-54 -190l-59 -19l67 205q-171 3 -271.5 89t-100.5 253zM348 530q0 -106 50 -179t149 -87q32 94 69.5 212t56.5 181.5t68.5 226.5t59.5 195q-128 -3 -232 -75t-162.5 -196.5t-58.5 -275.5v-2z" />
<glyph unicode="&#xa3;" d="M-59 12l79 80q6 5 53 35t79 55t69.5 77.5t52.5 113.5q33 129 48 291q-99 0 -228 -7l31 48q62 -3 199 -3q29 246 75 342q73 163 217 234q104 51 218 51q81 0 139.5 -19.5t88.5 -53t43 -69t13 -75.5q0 -56 -28.5 -89.5t-61.5 -33.5q-43 0 -56.5 21t-4.5 49q16 50 16 78 q1 81 -47 120t-123 39q-93 0 -154 -63.5t-94 -204.5q-4 -19 -7.5 -36t-6.5 -36.5t-5.5 -32.5t-5 -35t-4 -32.5t-4 -37t-3 -35t-3.5 -40.5t-4 -41q305 0 396 7l-37 -52q-108 7 -365 7q-35 -214 -121 -336q-77 -102 -250 -203q723 11 752 29q7 4 15 7.5t10.5 6t7.5 9.5t14 22 q24 38 76 151l35 10q-68 -161 -131 -370l-11 -6q-267 16 -692 16q-81 0 -161.5 -2.5t-108.5 -1.5z" />
<glyph unicode="&#xa4;" d="M94 219l185 131q-65 77 -62 207q2 102 50.5 200.5t129.5 164.5l-125 127l88 81l97 -161q111 71 256 71h2q149 0 225 -73l164 161l61 -79l-190 -136q60 -72 57 -208q-2 -102 -47 -198.5t-125 -156.5l137 -139l-88 -74l-108 166q-122 -76 -266 -76q-50 0 -117.5 21 t-102.5 55l-170 -164zM338 520q-1 -117 56.5 -179t160.5 -62q75 0 136 28t101.5 73.5t68.5 106.5t40.5 125t13.5 131q2 112 -52 181t-167 69h-2q-81 0 -150.5 -44.5t-112.5 -114.5t-67.5 -152t-25.5 -162z" />
<glyph unicode="&#xa5;" d="M104 -8l11 26q28 1 81 9t56 8q38 6 56 19t30 42q3 11 25.5 80t46 143.5t39.5 129.5q-199 0 -291 -5l22 48q18 -1 67.5 -3t103 -3.5t108.5 -2.5l49 181q-246 0 -309 -7l26 52q10 0 44.5 -2.5t98 -4.5t146.5 -2q-23 101 -76 271.5t-76 220.5q-25 58 -53.5 72t-105.5 16 l8 23q41 0 120.5 -3.5t114.5 -3.5q63 0 149 3.5t114 3.5l2 -21q-20 -2 -58.5 -5t-58.5 -5q-24 -2 -34 -11.5t-7 -31.5q7 -39 56.5 -218t72.5 -280q295 337 397 479q26 36 9 49q-22 15 -142 23l10 21q26 0 97 -3.5t104 -3.5q29 0 99 3.5t104 3.5l-2 -23q-70 0 -116.5 -19 t-104.5 -73q-59 -55 -191 -203.5t-248 -286.5q136 0 308 11l-35 -50q-14 0 -55.5 1t-110 2t-127.5 2l-51 -183q217 0 307 8l-29 -49q-48 5 -287 9q-55 -201 -92 -377q-4 -18 6.5 -27.5t34.5 -11.5q74 -8 146 -15l-13 -26q-33 1 -141 4.5t-184 3.5q-29 0 -123 -3.5t-148 -4.5 z" />
<glyph unicode="&#xa6;" horiz-adv-x="509" d="M190 -358v716h99v-716h-99zM190 666v716h99v-716h-99z" />
<glyph unicode="&#xa7;" horiz-adv-x="868" d="M33 4q0 46 24.5 79.5t63.5 33.5q41 0 57 -47q11 -24 -6 -41q-29 -29 -29 -64q0 -36 35 -65t98 -29q81 0 132 43.5t51 120.5q0 64 -56 141q-11 16 -100 135t-113 162q-36 67 -36 158q-1 137 77 258.5t195 210.5q46 34 72 51t77 35t103 18h2q92 0 142 -42.5t50 -96.5 q0 -42 -24 -69t-49 -27q-28 0 -48 16t-6 43q15 21 15 59q0 35 -31.5 58.5t-93.5 23.5q-64 0 -112 -46t-48 -111q0 -56 25 -97q12 -22 66.5 -91.5t112.5 -150.5t85 -138q22 -49 22 -107q0 -113 -65.5 -232.5t-157.5 -199.5q-97 -89 -170 -122.5t-147 -33.5q-86 0 -149.5 41 t-63.5 123zM246 723q0 -117 73 -215q158 -209 187 -254q73 -108 29 -244q75 54 117 138t42 182q0 65 -32 137q-27 61 -132.5 201t-107.5 143q-63 116 -16 236q-68 -55 -114 -146t-46 -176v-2z" />
<glyph unicode="&#xa8;" horiz-adv-x="905" d="M403 1202q1 45 34 76t71 31h2q36 0 56 -24t18 -62q-1 -44 -31.5 -74.5t-71.5 -30.5q-33 0 -55.5 23.5t-22.5 60.5zM743 1202q1 45 34 76t71 31h2q36 0 56 -24t18 -62q-1 -44 -31.5 -74.5t-71.5 -30.5q-34 0 -56 23t-22 61z" />
<glyph unicode="&#xa9;" horiz-adv-x="1464" d="M199 672q0 172 79 316t220 228t315 84h2q174 0 314.5 -84t218 -227.5t77.5 -316.5q0 -172 -78.5 -315t-219.5 -227.5t-314 -84.5t-314 82.5t-220.5 226t-79.5 318.5zM254 674q0 -256 159 -423t402 -167q158 0 285 75.5t199.5 211t72.5 303.5t-72.5 303t-199.5 210 t-285 75h-2q-242 0 -400.5 -166t-158.5 -422zM471 674q0 160 101.5 256t277.5 96q121 0 201 -51q15 -8 20 2l19 47l18 -4q-20 -108 -10 -260h-21q-11 121 -63 176q-60 63 -152 63q-120 0 -178.5 -84.5t-58.5 -220.5q0 -157 63 -229q33 -40 81.5 -61t100.5 -21q90 0 158 47 t92 131l21 -8q-16 -68 -67 -118t-114 -72.5t-129 -22.5q-204 0 -294 123q-66 85 -66 211z" />
<glyph unicode="&#xaa;" horiz-adv-x="729" d="M158 764q0 62 30 133.5t80.5 133.5t125.5 103.5t155 41.5q96 0 115 -84l16 51h127q-42 -90 -84.5 -219t-54.5 -205q-2 -17 0 -23t12 -6q36 0 75.5 39t71.5 107l13 -29q-86 -168 -228 -168q-95 0 -55 133q9 33 21 62q-33 -42 -62 -72t-67.5 -60.5t-83.5 -46.5t-93 -16 q-55 0 -84.5 33.5t-29.5 91.5zM299 760q0 -70 43 -70q84 0 184 123q41 49 75 125.5t34 114.5q0 47 -19.5 69.5t-50.5 22.5h-2q-72 0 -139 -80q-53 -60 -89 -146t-36 -159z" />
<glyph unicode="&#xab;" horiz-adv-x="897" d="M117 440l20 23q103 32 207.5 125t192.5 227l16 -22q-68 -143 -236 -336q-8 -9 -12 -13q35 -66 58 -169.5t22 -190.5l-18 -23q-32 144 -103.5 251.5t-146.5 127.5zM463 438l20 23q191 71 371 327l14 -18q-37 -78 -109 -175t-130 -155q31 -67 55.5 -171t24.5 -160l-19 -23 q-25 120 -87.5 217t-139.5 135z" />
<glyph unicode="&#xac;" horiz-adv-x="970" d="M84 594v78h782v-461h-82v383h-700z" />
<glyph unicode="&#xad;" horiz-adv-x="581" d="M72 403l37 91q213 -6 446 0l-35 -91q-235 9 -448 0z" />
<glyph unicode="&#xae;" horiz-adv-x="339" d="M221 1133q0 66 43.5 110.5t108.5 44.5h2q64 0 106.5 -44.5t42.5 -110.5q0 -70 -43 -113t-108 -43t-108.5 43.5t-43.5 112.5zM246 1130q0 -58 36.5 -96.5t90.5 -38.5q57 0 93 36.5t36 98.5q0 60 -37 100t-92 40h-2q-54 0 -89.5 -37.5t-35.5 -102.5zM295 1202l2 10h82 q53 0 53 -36q0 -7 -2 -13t-4.5 -10t-8 -7t-8.5 -4.5t-10 -4t-8 -2.5q23 -5 30.5 -15t12.5 -37q3 -18 17 -18q10 0 14 2v-12q-14 -4 -31 -4q-14 0 -22.5 10.5t-10.5 25.5q0 4 -1 10.5t-1 10.5q-6 20 -28 20h-19v-53q0 -7 8 -10h17v-12h-80v12l14 2q11 0 11 8q2 12 2 64 q0 49 -2 55q0 5 -11 8h-16zM352 1139h19q30 0 30 30v2q0 17 -6.5 24t-25.5 7q-15 0 -15 -4q-2 -4 -2 -59z" />
<glyph unicode="&#xaf;" horiz-adv-x="905" d="M426 1108l35 96h436l-35 -96h-436z" />
<glyph unicode="&#xb0;" horiz-adv-x="579" d="M283 1098q9 107 83 169t177 62h2q89 0 146.5 -57.5t51.5 -157.5q-7 -99 -79 -159t-166 -60q-101 0 -161.5 52.5t-53.5 150.5zM387 1112q-13 -86 17 -137t85 -51q39 0 69 19t47 50.5t26 63t12 65.5q11 174 -106 176q-72 1 -109 -57.5t-41 -128.5z" />
<glyph unicode="&#xb1;" horiz-adv-x="970" d="M86 0v76h780v-76h-780zM86 498v75h350v326h82v-326h348v-75h-348v-344h-82v344h-350z" />
<glyph unicode="&#xb2;" horiz-adv-x="708" d="M160 961q24 34 41 67q325 146 436 279q59 70 59 163q0 63 -29.5 98.5t-86.5 35.5q-78 0 -114 -47.5t-56 -139.5q-9 -57 -56 -57q-33 0 -46 18t-13 54q0 27 18.5 60t53 65t94.5 53.5t133 21.5q105 0 175.5 -45t70.5 -139q0 -115 -131 -188q-37 -21 -159 -85.5t-222 -119.5 q108 3 197 6t129 4.5t51 1.5q31 4 45 27q34 40 61 92l16 -17q-81 -156 -102 -217q-1 0 -37.5 1.5t-130 3t-233.5 1.5q-113 0 -162 -4z" />
<glyph unicode="&#xb3;" horiz-adv-x="708" d="M201 1096q0 32 19.5 50.5t49.5 18.5q47 0 47 -63q0 -133 136 -133q85 0 138.5 59t53.5 148q0 69 -41 95.5t-119 26.5q-32 0 -90 -10l-2 6l27 31q20 0 74 4q97 4 148.5 44.5t51.5 107.5q0 54 -31.5 84t-91.5 30q-81 0 -138.5 -43t-78.5 -125h-8l-20 46q21 52 105 105.5 t190 53.5q105 0 161 -38.5t56 -100.5q0 -46 -25.5 -74.5t-67.5 -50.5q-60 -28 -170 -47v-8q64 -1 115 -18t74 -40q37 -32 37 -98q-2 -68 -56 -118.5t-132 -73.5t-167 -23q-99 0 -172 42t-73 112z" />
<glyph unicode="&#xb4;" horiz-adv-x="905" d="M520 999q226 318 228 320q46 65 96 65q16 0 27 -11.5t10 -33.5q0 -41 -76 -110q-5 -4 -27.5 -24t-43.5 -38.5t-51.5 -46.5t-67 -62.5t-74.5 -72.5z" />
<glyph unicode="&#xb5;" horiz-adv-x="1128" d="M-109 -442q15 45 68.5 194t96.5 271.5t48 146.5q12 47 106 348.5t105 341.5q95 0 201 27q-43 -58 -132.5 -324t-113.5 -418q-8 -48 8 -77t54 -29q71 0 138 35t120 94.5t92.5 120.5t73.5 131q31 65 77.5 206t69.5 234q55 0 191 29q-66 -151 -144 -396.5t-110 -406.5 q-6 -31 -1 -43t23 -12q47 0 109 55.5t98 140.5l14 -39q-41 -83 -125 -152t-186 -69q-60 0 -92 29q-23 23 -10 86l59 203q-100 -149 -217 -230t-229 -78q-24 0 -53 11t-46 37q-70 -250 -135 -535l-10 -4q-34 9 -79 31t-69 41z" />
<glyph unicode="&#xb6;" horiz-adv-x="1085" d="M119 -205q0 60 33 104t79 44q55 0 72 -33q8 -13 -8 -16q-46 -6 -79.5 -38.5t-33.5 -76.5q0 -66 47 -101.5t121 -35.5q85 0 139 40.5t107.5 161t116.5 359.5l22 82q-159 -43 -205 -43q-135 0 -222 103.5t-87 252.5q-3 158 85.5 287.5t232.5 189.5q59 29 182 29 q42 0 152 -2.5t199 -2.5t145 5l-13 -27l-137 -16q-18 -2 -25.5 -4t-18.5 -11t-19 -28t-17 -53l-178 -654q-85 -310 -136 -436.5t-136 -196.5q-88 -69 -203 -69q-42 0 -78.5 9.5t-68 30t-50 58t-18.5 88.5z" />
<glyph unicode="&#xb7;" horiz-adv-x="385" d="M104 428q3 52 38.5 89.5t86.5 37.5q44 0 71 -34t24 -79q-3 -56 -38 -88t-87 -32h-2q-37 0 -65.5 28.5t-27.5 77.5z" />
<glyph unicode="&#xb8;" horiz-adv-x="905" d="M164 -369l12 29q39 -27 96 -27q36 0 62 21t26 57q0 38 -30.5 59t-87.5 21l-4 16q11 11 79.5 88.5t92.5 102.5h34q-3 -3 -19.5 -22.5t-41.5 -48.5t-39 -46q51 -12 88 -42.5t37 -88.5q0 -78 -54.5 -117t-125.5 -39q-35 0 -72 12.5t-53 24.5z" />
<glyph unicode="&#xb9;" horiz-adv-x="708" d="M256 952l8 25l90 10q46 5 56 35q29 64 92.5 253t85.5 281q3 8 -1 12t-14 3q-13 -1 -133 -6l19 24q186 18 280 43l4 -4q-39 -108 -106 -323q-4 -13 -82 -281q-5 -18 0 -26t25 -11l98 -10l-12 -25q-32 0 -102 3t-105 3q-39 0 -102 -3t-101 -3z" />
<glyph unicode="&#xba;" horiz-adv-x="712" d="M184 834q0 152 110.5 247t266.5 95h2q106 0 172 -52t66 -151q0 -155 -112.5 -244.5t-270.5 -89.5q-39 0 -76 9t-74.5 29t-60.5 60.5t-23 96.5zM319 795q0 -64 31.5 -96.5t77.5 -32.5q76 0 139 63q46 49 73.5 132t27.5 159q0 129 -109 129h-2q-75 0 -141 -76 q-43 -50 -70 -127.5t-27 -150.5z" />
<glyph unicode="&#xbb;" horiz-adv-x="880" d="M76 104q35 76 106 171t133 161q-32 66 -57 170t-22 160l16 22q26 -121 89 -217.5t140 -134.5l-20 -22q-62 -24 -120 -64t-106.5 -90.5t-80 -89.5t-66.5 -88zM391 80q10 23 22.5 46t23.5 42t27 42.5t26 38.5t28 38t25.5 33t27 33t24 28t23.5 27l19 22q-33 66 -56.5 168.5 t-23.5 189.5l21 25q32 -145 102 -252t145 -127l-20 -22q-102 -33 -207 -127.5t-190 -227.5z" />
<glyph unicode="&#xbc;" horiz-adv-x="1466" d="M174 649l8 25l90 10q46 5 56 35q32 82 95 266t83 268q3 8 -0.5 12t-13.5 3q-12 -1 -134 -6l17 24q183 17 284 43l5 -4q-33 -92 -102.5 -310.5t-88.5 -293.5q-5 -18 0 -26t25 -11l98 -10l-10 -25q-33 0 -103 3t-104 3q-41 0 -104.5 -3t-100.5 -3zM203 51 q262 296 593.5 684t575.5 680l29 -41q-737 -850 -1172 -1366zM721 365q102 81 295.5 239.5t212.5 173.5q45 2 117 23l8 -4q-46 -158 -123 -445q90 2 155 31l-4 -23q-64 -39 -161 -45q-7 -26 -45 -192q-60 0 -146 -19l-6 9q5 21 14 50t22.5 73.5t22.5 74.5q-105 0 -217.5 9.5 t-142.5 19.5zM793 377q22 -8 117.5 -17.5t183.5 -9.5q22 67 61 197t53 174q-223 -171 -415 -344z" />
<glyph unicode="&#xbd;" horiz-adv-x="1466" d="M158 649l8 25l90 10q45 5 55 35q30 66 94.5 255t86.5 279q2 8 -2 12t-13 3q-15 -1 -135 -6l18 24q188 18 283 43l4 -4q-36 -99 -104 -315.5t-84 -288.5q-5 -17 -0.5 -25.5t22.5 -11.5l101 -10l-13 -25q-33 0 -103 3t-104 3q-40 0 -103 -3t-101 -3zM176 51 q519 584 1170 1364l28 -41q-588 -674 -1169 -1366zM713 121q7 11 21.5 34.5t19.5 32.5q325 146 436 279q59 73 59 164q0 64 -30 99.5t-86 35.5q-41 0 -71.5 -15t-49 -43t-29 -58.5t-18.5 -71.5q-13 -58 -58 -58q-59 0 -59 74q0 27 18.5 59.5t52.5 65t94.5 54.5t133.5 22 q104 0 175 -45.5t71 -139.5q0 -113 -131 -188q-32 -19 -81 -45t-136.5 -73t-165.5 -89q108 3 197 6t129.5 4.5t51.5 1.5q32 4 46 27q29 34 61 92l16 -16q-87 -161 -102 -217q-1 0 -37.5 1.5t-130 3t-233.5 1.5q-113 0 -162 -4z" />
<glyph unicode="&#xbe;" horiz-adv-x="1466" d="M174 793q0 32 19.5 50.5t50.5 18.5q45 0 45 -63q0 -133 135 -133q85 0 139.5 58.5t54.5 147.5q0 69 -41.5 96t-117.5 27q-34 0 -92 -10l-2 6l26 31q22 0 76 4q96 4 148.5 45t52.5 109q0 53 -32.5 82.5t-92.5 29.5q-80 0 -137 -43t-78 -125h-11l-20 45q21 52 105 106 t190 54q107 0 163 -38t56 -101q0 -75 -94 -125q-61 -28 -168 -47v-8q131 -3 190 -58q35 -35 35 -98q-2 -68 -56 -118.5t-131.5 -73.5t-164.5 -23q-101 0 -174.5 42t-73.5 112zM266 51q559 632 1170 1364l26 -41q-621 -717 -1169 -1366zM756 340v25q94 76 282.5 230.5 t223.5 182.5q43 2 116 23l8 -4q-36 -123 -122 -445q90 2 155 31l-4 -23q-64 -39 -162 -45q-9 -32 -24 -96t-23 -96q-58 0 -143 -19l-8 9q6 19 26.5 85t34.5 113q-105 0 -217.5 9.5t-142.5 19.5zM825 377q22 -8 117.5 -17.5t183.5 -9.5q23 72 63.5 203.5t51.5 167.5 q-205 -157 -416 -344z" />
<glyph unicode="&#xbf;" horiz-adv-x="909" d="M-59 -225q0 103 43.5 170t138.5 121q171 98 278 170q71 48 97 94.5t8 107.5l22 11q16 -24 30.5 -53.5t24.5 -63t9 -58.5q-6 -87 -92 -153q-51 -40 -185.5 -129.5t-156.5 -104.5q-42 -32 -64 -70.5t-22 -95.5q0 -94 56 -144t142 -50q111 0 180.5 50.5t69.5 150.5 q0 18 -8 45t-8 46.5t16 35.5q26 26 74 26q29 0 51.5 -29t22.5 -73q0 -118 -120.5 -201.5t-281.5 -83.5q-139 0 -232 75t-93 206zM477 770q3 54 37.5 86.5t81.5 32.5h2q39 0 67 -28.5t27 -76.5q-2 -34 -17.5 -63t-43.5 -46.5t-62 -17.5q-47 0 -71 34t-21 79z" />
<glyph unicode="&#xc0;" horiz-adv-x="1374" d="M-133 -8l6 26q98 11 143.5 35t106.5 107q151 208 420.5 585t339.5 484q35 57 41 74l4 24q44 -2 87 12.5t70 42.5l15 -4q3 -193 39 -764q28 -391 53 -530q3 -26 15.5 -38t39.5 -15l107 -13l-4 -26q-22 0 -117 4t-152 4q-40 0 -137 -4t-131 -4l8 28q48 3 72.5 6.5t45 8.5 t27.5 16t10.5 25t2.5 39q-5 108 -13.5 270t-9.5 186q-281 0 -505 -26q-219 -330 -261 -400q-15 -26 -21 -44t-2 -32t15 -22t36.5 -14t55.5 -9t78 -6l-8 -26q-17 0 -106 4t-132 4q-78 0 -156.5 -4t-82.5 -4zM487 592q129 11 467 20q-1 27 -32 602q-281 -390 -435 -622z M666 1638q-14 40 7.5 61.5t58.5 18t67 -27.5q53 -37 270 -222l-14 -14q-58 23 -131 51t-130.5 48.5t-64.5 23.5q-20 10 -38.5 27.5t-24.5 33.5z" />
<glyph unicode="&#xc1;" horiz-adv-x="1374" d="M-133 -8l6 26q98 11 143.5 35t106.5 107q151 208 420.5 585t339.5 484q35 57 41 74l4 24q44 -2 87 12.5t70 42.5l15 -4q3 -193 39 -764q28 -391 53 -530q3 -26 15.5 -38t39.5 -15l107 -13l-4 -26q-22 0 -117 4t-152 4q-40 0 -137 -4t-131 -4l8 28q48 3 72.5 6.5t45 8.5 t27.5 16t10.5 25t2.5 39q-5 108 -13.5 270t-9.5 186q-281 0 -505 -26q-219 -330 -261 -400q-15 -26 -21 -44t-2 -32t15 -22t36.5 -14t55.5 -9t78 -6l-8 -26q-17 0 -106 4t-132 4q-78 0 -156.5 -4t-82.5 -4zM487 592q129 11 467 20q-1 27 -32 602q-281 -390 -435 -622z M950 1473q36 25 162.5 116.5t144.5 104.5q53 40 103 20q18 -6 23 -27t-9 -49q-16 -34 -86 -61q-42 -15 -323 -123z" />
<glyph unicode="&#xc2;" horiz-adv-x="1374" d="M-133 -8l6 26q98 11 143.5 35t106.5 107q151 208 420.5 585t339.5 484q35 57 41 74l4 24q44 -2 87 12.5t70 42.5l15 -4q3 -193 39 -764q28 -391 53 -530q3 -26 15.5 -38t39.5 -15l107 -13l-4 -26q-22 0 -117 4t-152 4q-40 0 -137 -4t-131 -4l8 28q48 3 72.5 6.5t45 8.5 t27.5 16t10.5 25t2.5 39q-5 108 -13.5 270t-9.5 186q-281 0 -505 -26q-219 -330 -261 -400q-15 -26 -21 -44t-2 -32t15 -22t36.5 -14t55.5 -9t78 -6l-8 -26q-17 0 -106 4t-132 4q-78 0 -156.5 -4t-82.5 -4zM487 592q129 11 467 20q-1 27 -32 602q-281 -390 -435 -622z M748 1466q207 106 323 246l23 4q70 -150 215 -250l-15 -20q-139 52 -243 125q-152 -77 -293 -125z" />
<glyph unicode="&#xc3;" horiz-adv-x="1374" d="M-133 -8l6 26q98 11 143.5 35t106.5 107q151 208 420.5 585t339.5 484q35 57 41 74l4 24q44 -2 87 12.5t70 42.5l15 -4q3 -193 39 -764q28 -391 53 -530q3 -26 15.5 -38t39.5 -15l107 -13l-4 -26q-22 0 -117 4t-152 4q-40 0 -137 -4t-131 -4l8 28q48 3 72.5 6.5t45 8.5 t27.5 16t10.5 25t2.5 39q-5 108 -13.5 270t-9.5 186q-281 0 -505 -26q-219 -330 -261 -400q-15 -26 -21 -44t-2 -32t15 -22t36.5 -14t55.5 -9t78 -6l-8 -26q-17 0 -106 4t-132 4q-78 0 -156.5 -4t-82.5 -4zM487 592q129 11 467 20q-1 27 -32 602q-281 -390 -435 -622z M760 1473q4 34 15.5 67.5t31 66.5t52 53.5t71.5 20.5q52 0 143 -61q75 -55 125 -55q35 0 60 34.5t34 92.5l29 -9q-9 -55 -26 -98.5t-53 -77.5t-85 -34q-63 0 -156 67q-39 28 -63.5 39.5t-50.5 11.5q-35 0 -63 -34.5t-40 -90.5z" />
<glyph unicode="&#xc4;" horiz-adv-x="1374" d="M-133 -8l6 26q98 11 143.5 35t106.5 107q151 208 420.5 585t339.5 484q35 57 41 74l4 24q44 -2 87 12.5t70 42.5l15 -4q3 -193 39 -764q28 -391 53 -530q3 -26 15.5 -38t39.5 -15l107 -13l-4 -26q-22 0 -117 4t-152 4q-40 0 -137 -4t-131 -4l8 28q48 3 72.5 6.5t45 8.5 t27.5 16t10.5 25t2.5 39q-5 108 -13.5 270t-9.5 186q-281 0 -505 -26q-219 -330 -261 -400q-15 -26 -21 -44t-2 -32t15 -22t36.5 -14t55.5 -9t78 -6l-8 -26q-17 0 -106 4t-132 4q-78 0 -156.5 -4t-82.5 -4zM487 592q129 11 467 20q-1 27 -32 602q-281 -390 -435 -622z M743 1552q6 42 34 68.5t67 26.5h2q39 0 60 -24.5t16 -61.5q-6 -44 -40 -71.5t-67 -27.5q-36 0 -57 22t-15 68zM1153 1552q6 43 33 69t67 26h2q38 0 59.5 -24.5t16.5 -61.5q-6 -44 -39.5 -71.5t-66.5 -27.5q-36 0 -57.5 22t-14.5 68z" />
<glyph unicode="&#xc5;" horiz-adv-x="1374" d="M-133 -8l6 26q98 11 143.5 35t106.5 107q151 208 420.5 585t339.5 484q35 57 41 74l4 24q44 -2 87 12.5t70 42.5l15 -4q3 -193 39 -764q28 -391 53 -530q3 -26 15.5 -38t39.5 -15l107 -13l-4 -26q-22 0 -117 4t-152 4q-40 0 -137 -4t-131 -4l8 28q48 3 72.5 6.5t45 8.5 t27.5 16t10.5 25t2.5 39q-5 108 -13.5 270t-9.5 186q-281 0 -505 -26q-219 -330 -261 -400q-15 -26 -21 -44t-2 -32t15 -22t36.5 -14t55.5 -9t78 -6l-8 -26q-17 0 -106 4t-132 4q-78 0 -156.5 -4t-82.5 -4zM487 592q129 11 467 20q-1 27 -32 602q-281 -390 -435 -622z M868 1581q10 77 67.5 120.5t135.5 43.5h2q72 0 113 -44.5t31 -119.5q-10 -71 -68 -114.5t-133 -43.5q-73 0 -115 43.5t-33 114.5zM961 1585q-9 -61 9 -96t54 -35q84 0 104 135q1 24 1 52t-17 51.5t-49 23.5h-2q-43 0 -68 -38.5t-32 -92.5z" />
<glyph unicode="&#xc6;" horiz-adv-x="2052" d="M-160 -8l10 26q100 9 149 37t144 129q423 467 994 1078q10 12 12.5 21t-3.5 15t-20 7l-190 14l12 29q360 -9 367 -9h409q261 0 377 17q-18 -35 -56.5 -158.5t-59.5 -216.5h-25q19 137 14 219q-4 50 -18 68.5t-58.5 26.5t-154.5 8h-254q-21 0 -32 -7t-17 -26 q-32 -87 -81.5 -267t-84.5 -323q40 0 102.5 -1t73.5 -1q113 0 176.5 18.5t101 58.5t74.5 122h25q-59 -159 -148 -498l-24 4q17 86 14.5 142.5t-55 84t-170.5 27.5h-182q-17 -68 -42.5 -164t-38.5 -147t-28.5 -115.5t-26.5 -118.5q-3 -19 0 -28t25.5 -16t67 -9t129.5 -2 q146 0 222 6.5t116 21.5t75 46q51 41 109.5 114.5t101.5 145.5l23 -11q-17 -45 -80.5 -192.5t-85.5 -183.5q-54 7 -180 12q-188 4 -404 4h-235q-59 0 -163.5 -4t-152.5 -4l13 26l133 15q34 4 52.5 22t33.5 60q58 170 151 522q-27 -1 -197.5 -1.5t-265.5 -2.5 q-306 -340 -426 -502q-34 -50 -8 -72q32 -27 197 -41l-12 -26q-36 0 -113.5 4t-124.5 4q-61 0 -156 -4t-131 -4zM659 682q209 -5 431 -2l165 618h-26q-83 -84 -173.5 -181.5t-218.5 -239t-178 -195.5z" />
<glyph unicode="&#xc7;" horiz-adv-x="1413" d="M168 514q0 197 92.5 388t255.5 315q106 79 233.5 121t299.5 42q142 0 253.5 -46.5t167.5 -121.5l80 125l17 -16q-33 -81 -82.5 -236.5t-65.5 -238.5h-22q45 249 -37 364q-100 133 -295 133q-238 0 -403 -157q-139 -133 -208 -321.5t-69 -387.5q0 -221 98 -338 q55 -63 138 -98t174 -35q437 0 608 381h10q1 -15 2 -44t2 -44q-82 -147 -248.5 -238t-359.5 -102q-38 -43 -68 -80q50 -9 87.5 -40t37.5 -89q0 -78 -54.5 -117t-125.5 -39q-36 0 -72.5 12t-54.5 25l12 29q42 -27 99 -27q36 0 61 20.5t25 55.5q0 80 -119 80l-4 16 q7 7 63.5 70.5t75.5 83.5h-6q-282 0 -440 136.5t-158 418.5z" />
<glyph unicode="&#xc8;" horiz-adv-x="1306" d="M-63 -8l8 26l133 13q33 3 51 20.5t35 63.5q73 204 180.5 561t163.5 581q6 26 -2.5 37.5t-42.5 14.5l-137 12l8 27q42 0 145 -4.5t154 -4.5h399q236 0 348 15q-20 -35 -59 -165t-51 -200h-27q1 18 9 96t8 117q-1 26 -3.5 40t-14.5 27t-28 18.5t-53.5 9.5t-81 5t-118.5 1 h-201q-21 0 -31 -6.5t-16 -26.5q-64 -180 -172 -553q25 -6 229 -6q94 0 147 16.5t87.5 55t72.5 120.5h25q-76 -180 -137 -485l-25 4q14 91 9 146.5t-48.5 79.5t-144.5 24q-205 0 -232 -4q-22 -77 -61 -210.5t-61.5 -216t-36.5 -149.5q-1 -11 -2.5 -19.5t6 -14.5t19.5 -10 t39.5 -6.5t64 -3.5t94.5 -1q221 0 307.5 13.5t134.5 55.5q36 26 79 77t66 83.5t64 93.5l25 -8q-18 -34 -90 -188.5t-85 -179.5q-232 16 -604 16h-237q-49 0 -158 -4t-151 -4zM637 1638q-14 40 7.5 61.5t58.5 18t67 -27.5q13 -9 69.5 -55t113.5 -93.5t87 -73.5l-14 -14 q-58 23 -131 51t-130.5 48.5t-64.5 23.5q-20 10 -38.5 27.5t-24.5 33.5z" />
<glyph unicode="&#xc9;" horiz-adv-x="1306" d="M-63 -8l8 26l133 13q33 3 51 20.5t35 63.5q73 204 180.5 561t163.5 581q6 26 -2.5 37.5t-42.5 14.5l-137 12l8 27q42 0 145 -4.5t154 -4.5h399q236 0 348 15q-20 -35 -59 -165t-51 -200h-27q1 18 9 96t8 117q-1 26 -3.5 40t-14.5 27t-28 18.5t-53.5 9.5t-81 5t-118.5 1 h-201q-21 0 -31 -6.5t-16 -26.5q-64 -180 -172 -553q25 -6 229 -6q94 0 147 16.5t87.5 55t72.5 120.5h25q-76 -180 -137 -485l-25 4q14 91 9 146.5t-48.5 79.5t-144.5 24q-205 0 -232 -4q-22 -77 -61 -210.5t-61.5 -216t-36.5 -149.5q-1 -11 -2.5 -19.5t6 -14.5t19.5 -10 t39.5 -6.5t64 -3.5t94.5 -1q221 0 307.5 13.5t134.5 55.5q36 26 79 77t66 83.5t64 93.5l25 -8q-18 -34 -90 -188.5t-85 -179.5q-232 16 -604 16h-237q-49 0 -158 -4t-151 -4zM823 1473q36 25 162.5 116.5t144.5 104.5q53 40 103 20q18 -6 23 -27t-9 -49q-16 -34 -86 -61 q-42 -15 -323 -123z" />
<glyph unicode="&#xca;" horiz-adv-x="1306" d="M-63 -8l8 26l133 13q33 3 51 20.5t35 63.5q73 204 180.5 561t163.5 581q6 26 -2.5 37.5t-42.5 14.5l-137 12l8 27q42 0 145 -4.5t154 -4.5h399q236 0 348 15q-20 -35 -59 -165t-51 -200h-27q1 18 9 96t8 117q-1 26 -3.5 40t-14.5 27t-28 18.5t-53.5 9.5t-81 5t-118.5 1 h-201q-21 0 -31 -6.5t-16 -26.5q-64 -180 -172 -553q25 -6 229 -6q94 0 147 16.5t87.5 55t72.5 120.5h25q-76 -180 -137 -485l-25 4q14 91 9 146.5t-48.5 79.5t-144.5 24q-205 0 -232 -4q-22 -77 -61 -210.5t-61.5 -216t-36.5 -149.5q-1 -11 -2.5 -19.5t6 -14.5t19.5 -10 t39.5 -6.5t64 -3.5t94.5 -1q221 0 307.5 13.5t134.5 55.5q36 26 79 77t66 83.5t64 93.5l25 -8q-18 -34 -90 -188.5t-85 -179.5q-232 16 -604 16h-237q-49 0 -158 -4t-151 -4zM664 1466q207 106 323 246l23 4q70 -150 215 -250l-15 -20q-58 22 -125.5 56t-117.5 69 q-152 -77 -293 -125z" />
<glyph unicode="&#xcb;" horiz-adv-x="1306" d="M-63 -8l8 26l133 13q33 3 51 20.5t35 63.5q73 204 180.5 561t163.5 581q6 26 -2.5 37.5t-42.5 14.5l-137 12l8 27q42 0 145 -4.5t154 -4.5h399q236 0 348 15q-20 -35 -59 -165t-51 -200h-27q1 18 9 96t8 117q-1 26 -3.5 40t-14.5 27t-28 18.5t-53.5 9.5t-81 5t-118.5 1 h-201q-21 0 -31 -6.5t-16 -26.5q-64 -180 -172 -553q25 -6 229 -6q94 0 147 16.5t87.5 55t72.5 120.5h25q-76 -180 -137 -485l-25 4q14 91 9 146.5t-48.5 79.5t-144.5 24q-205 0 -232 -4q-22 -77 -61 -210.5t-61.5 -216t-36.5 -149.5q-1 -11 -2.5 -19.5t6 -14.5t19.5 -10 t39.5 -6.5t64 -3.5t94.5 -1q221 0 307.5 13.5t134.5 55.5q36 26 79 77t66 83.5t64 93.5l25 -8q-18 -34 -90 -188.5t-85 -179.5q-232 16 -604 16h-237q-49 0 -158 -4t-151 -4zM672 1552q6 43 34 69t66 26h2q39 0 60 -24.5t16 -61.5q-6 -44 -40 -71.5t-67 -27.5 q-23 0 -39.5 8.5t-26 29.5t-5.5 52zM1081 1552q6 43 33.5 69t67.5 26h2q38 0 59.5 -24.5t16.5 -61.5q-6 -44 -40 -71.5t-67 -27.5q-36 0 -57.5 22t-14.5 68z" />
<glyph unicode="&#xcc;" horiz-adv-x="686" d="M-55 -8l10 24l100 11q46 5 66 19t37 56q34 86 184 572q117 367 162 551q15 49 7 66.5t-52 21.5l-111 8l10 27q26 0 119 -4.5t141 -4.5q71 0 170.5 4.5t114.5 4.5l-10 -27l-96 -10q-40 -3 -56.5 -16t-35.5 -56q-56 -139 -179 -565q-31 -107 -74.5 -251.5t-65 -218 t-26.5 -106.5q-7 -39 4.5 -52.5t45.5 -16.5l125 -13l-15 -24q-32 0 -149.5 4t-139.5 4q-73 1 -174 -3.5t-112 -4.5zM328 1638q-14 40 7.5 61.5t58.5 18t67 -27.5q53 -37 270 -222l-14 -14q-58 23 -131 51t-130.5 48.5t-64.5 23.5q-20 10 -38.5 27.5t-24.5 33.5z" />
<glyph unicode="&#xcd;" horiz-adv-x="686" d="M-55 -8l10 24l100 11q46 5 66 19t37 56q34 86 184 572q117 367 162 551q15 49 7 66.5t-52 21.5l-111 8l10 27q26 0 119 -4.5t141 -4.5q71 0 170.5 4.5t114.5 4.5l-10 -27l-96 -10q-40 -3 -56.5 -16t-35.5 -56q-56 -139 -179 -565q-31 -107 -74.5 -251.5t-65 -218 t-26.5 -106.5q-7 -39 4.5 -52.5t45.5 -16.5l125 -13l-15 -24q-32 0 -149.5 4t-139.5 4q-73 1 -174 -3.5t-112 -4.5zM543 1458q36 25 162.5 116.5t144.5 104.5q53 40 102 21q18 -6 23.5 -27t-8.5 -49q-16 -34 -86 -61q-56 -20 -324 -123z" />
<glyph unicode="&#xce;" horiz-adv-x="686" d="M-55 -8l10 24l100 11q46 5 66 19t37 56q34 86 184 572q117 367 162 551q15 49 7 66.5t-52 21.5l-111 8l10 27q26 0 119 -4.5t141 -4.5q71 0 170.5 4.5t114.5 4.5l-10 -27l-96 -10q-40 -3 -56.5 -16t-35.5 -56q-56 -139 -179 -565q-31 -107 -74.5 -251.5t-65 -218 t-26.5 -106.5q-7 -39 4.5 -52.5t45.5 -16.5l125 -13l-15 -24q-32 0 -149.5 4t-139.5 4q-73 1 -174 -3.5t-112 -4.5zM358 1466q209 107 324 246l23 4q70 -150 215 -250l-15 -20q-139 52 -243 125q-152 -77 -293 -125z" />
<glyph unicode="&#xcf;" horiz-adv-x="686" d="M-55 -8l10 24l100 11q46 5 66 19t37 56q34 86 184 572q117 367 162 551q15 49 7 66.5t-52 21.5l-111 8l10 27q26 0 119 -4.5t141 -4.5q71 0 170.5 4.5t114.5 4.5l-10 -27l-96 -10q-40 -3 -56.5 -16t-35.5 -56q-56 -139 -179 -565q-31 -107 -74.5 -251.5t-65 -218 t-26.5 -106.5q-7 -39 4.5 -52.5t45.5 -16.5l125 -13l-15 -24q-32 0 -149.5 4t-139.5 4q-73 1 -174 -3.5t-112 -4.5zM362 1552q6 42 34 68.5t67 26.5h2q39 0 60 -24.5t16 -61.5q-6 -44 -40 -71.5t-67 -27.5q-36 0 -57 22t-15 68zM772 1552q6 43 33 69t67 26h2 q38 0 59.5 -24.5t16.5 -61.5q-6 -44 -39.5 -71.5t-66.5 -27.5q-36 0 -57.5 22t-14.5 68z" />
<glyph unicode="&#xd0;" horiz-adv-x="1615" d="M-37 -8l12 24l107 13q45 6 64.5 22.5t39.5 59.5q22 47 78 224t109 357q-154 5 -250 -6l22 47q22 1 110.5 -1.5t129.5 -2.5q29 96 52.5 175t39.5 139t24.5 91.5t19 75t11.5 47.5q7 28 -3.5 39.5t-41.5 14.5l-151 12l14 25q14 0 101.5 -4.5t160.5 -4.5q68 0 209.5 5.5 t212.5 5.5q286 0 430 -105q156 -117 156 -401q0 -138 -44.5 -263t-109 -211t-145 -156t-145 -107.5t-117.5 -55.5q-177 -61 -438 -61q-60 0 -180.5 5t-182.5 5q-99 0 -295 -8zM395 61q2 -6 6.5 -11t16 -9.5t29.5 -7.5t46.5 -4.5t67.5 -1.5q70 0 128.5 3.5t97.5 9t74 14 t54.5 15.5t42.5 17q133 59 237 183.5t162 292.5t58 349q0 106 -21 173.5t-63 115.5q-107 115 -352 115q-97 0 -150 -4.5t-68 -10.5t-20 -16q-25 -56 -174 -559q316 3 445 10l-27 -49q-13 0 -70.5 1t-157.5 2.5t-200 2.5q-151 -504 -162 -618q-2 -7 0 -13z" />
<glyph unicode="&#xd1;" horiz-adv-x="1558" d="M-63 -8l16 26q49 0 117 15q62 12 100 92q60 136 326 1067q30 106 -95 117l-116 12l14 27q23 0 104 -4.5t121 -4.5q41 0 138 9q69 -150 163.5 -335.5t248 -476t175.5 -333.5q247 859 269 1038q4 35 -14.5 50t-69.5 20l-119 10l14 27q31 1 111.5 -4t111.5 -5q37 0 132 5 t122 4l-10 -27q-14 -1 -117 -16q-52 -6 -77 -66q-48 -115 -157 -486t-202 -765q-37 0 -108 -23q-41 94 -122 260t-138.5 279t-187 365.5t-159.5 312.5q-23 -84 -67 -246.5t-68.5 -255t-55.5 -210t-50.5 -197.5t-30.5 -132t1 -74.5t46 -29.5q7 -1 62 -9t88 -10l-15 -26 q-20 0 -107 4t-165 4q-31 0 -116 -4t-113 -4zM795 1452q6 47 23.5 91.5t56 81t90.5 36.5q51 0 143 -62q75 -55 125 -55q35 0 60 34.5t34 92.5l29 -8q-9 -55 -26 -98.5t-53 -78t-85 -34.5q-62 0 -156 68q-39 28 -63.5 39.5t-50.5 11.5q-35 0 -63 -34.5t-40 -90.5z" />
<glyph unicode="&#xd2;" horiz-adv-x="1605" d="M164 467q0 229 108 440.5t295 337.5q199 135 473 135h2q266 0 417 -139.5t151 -392.5q0 -186 -78.5 -371.5t-214.5 -308.5q-228 -209 -580 -209q-96 0 -180.5 18t-157 57.5t-124.5 98t-81.5 144t-29.5 190.5zM373 393q0 -199 94 -299t260 -100q116 0 210.5 39.5 t182.5 132.5q128 140 204.5 366t76.5 431q0 181 -92.5 282t-261.5 101h-3q-107 0 -206.5 -42.5t-175.5 -123.5q-127 -138 -208 -364t-81 -423zM772 1638q-14 40 7.5 61.5t58.5 18t67 -27.5q20 -14 120.5 -96.5t150.5 -125.5l-15 -14q-58 23 -131 50.5t-130 48.5t-64 24 q-20 10 -39 27.5t-25 33.5z" />
<glyph unicode="&#xd3;" horiz-adv-x="1605" d="M164 467q0 229 108 440.5t295 337.5q199 135 473 135h2q266 0 417 -139.5t151 -392.5q0 -186 -78.5 -371.5t-214.5 -308.5q-228 -209 -580 -209q-96 0 -180.5 18t-157 57.5t-124.5 98t-81.5 144t-29.5 190.5zM373 393q0 -199 94 -299t260 -100q116 0 210.5 39.5 t182.5 132.5q128 140 204.5 366t76.5 431q0 181 -92.5 282t-261.5 101h-3q-107 0 -206.5 -42.5t-175.5 -123.5q-127 -138 -208 -364t-81 -423zM948 1473q36 25 162.5 116.5t144.5 104.5q53 40 103 20q18 -6 23 -27t-9 -49q-16 -34 -86 -61q-42 -15 -323 -123z" />
<glyph unicode="&#xd4;" horiz-adv-x="1605" d="M164 467q0 229 108 440.5t295 337.5q199 135 473 135h2q266 0 417 -139.5t151 -392.5q0 -186 -78.5 -371.5t-214.5 -308.5q-228 -209 -580 -209q-96 0 -180.5 18t-157 57.5t-124.5 98t-81.5 144t-29.5 190.5zM373 393q0 -199 94 -299t260 -100q116 0 210.5 39.5 t182.5 132.5q128 140 204.5 366t76.5 431q0 181 -92.5 282t-261.5 101h-3q-107 0 -206.5 -42.5t-175.5 -123.5q-127 -138 -208 -364t-81 -423zM756 1466q207 106 323 246l23 4q70 -150 215 -250l-14 -20q-141 53 -244 125q-152 -77 -293 -125z" />
<glyph unicode="&#xd5;" horiz-adv-x="1605" d="M164 467q0 229 108 440.5t295 337.5q199 135 473 135h2q266 0 417 -139.5t151 -392.5q0 -186 -78.5 -371.5t-214.5 -308.5q-228 -209 -580 -209q-96 0 -180.5 18t-157 57.5t-124.5 98t-81.5 144t-29.5 190.5zM373 393q0 -199 94 -299t260 -100q116 0 210.5 39.5 t182.5 132.5q128 140 204.5 366t76.5 431q0 181 -92.5 282t-261.5 101h-3q-107 0 -206.5 -42.5t-175.5 -123.5q-127 -138 -208 -364t-81 -423zM768 1466q6 47 23.5 91.5t56 81t90.5 36.5t143 -61q75 -55 125 -55q35 0 60 34.5t34 92.5l29 -9q-9 -55 -26 -98.5t-53 -78 t-85 -34.5q-61 0 -155 68q-73 51 -115 51q-35 0 -62.5 -34.5t-39.5 -90.5z" />
<glyph unicode="&#xd6;" horiz-adv-x="1605" d="M164 467q0 229 108 440.5t295 337.5q199 135 473 135h2q266 0 417 -139.5t151 -392.5q0 -186 -78.5 -371.5t-214.5 -308.5q-228 -209 -580 -209q-96 0 -180.5 18t-157 57.5t-124.5 98t-81.5 144t-29.5 190.5zM373 393q0 -199 94 -299t260 -100q116 0 210.5 39.5 t182.5 132.5q128 140 204.5 366t76.5 431q0 181 -92.5 282t-261.5 101h-3q-107 0 -206.5 -42.5t-175.5 -123.5q-127 -138 -208 -364t-81 -423zM766 1554q6 43 34 69t66 26h2q39 0 60 -24.5t16 -61.5q-6 -44 -39.5 -71.5t-66.5 -27.5q-36 0 -57 22t-15 68zM1176 1554 q6 43 33 69t67 26h2q38 0 59.5 -24.5t16.5 -61.5q-6 -44 -40 -71.5t-67 -27.5q-36 0 -57 22t-14 68z" />
<glyph unicode="&#xd7;" horiz-adv-x="970" d="M106 147l316 326l-316 322l52 57l317 -326l320 330l51 -55l-318 -328l318 -326l-51 -55l-320 326l-317 -326z" />
<glyph unicode="&#xd8;" horiz-adv-x="1605" d="M164 467q0 230 109 443t298 335q204 135 476 135q238 0 366 -104l117 123l51 -21l-127 -129q70 -64 113 -165.5t43 -221.5q0 -199 -77 -385t-216 -307q-133 -119 -275.5 -165t-312.5 -46q-103 0 -208 27.5t-171 76.5l-131 -143l-41 31l135 139q-68 63 -108.5 160 t-40.5 217zM387.5 533.5q-19.5 -183.5 36.5 -338.5q124 130 278 299.5t345.5 382.5t287.5 319q-35 67 -111.5 108.5t-176.5 41.5h-5q-223 0 -389 -172q-100 -106 -173 -281.5t-92.5 -359zM440 145q39 -66 110 -108.5t167 -42.5h2q229 0 395 166q81 82 146 211t98.5 267 t36 275.5t-40.5 237.5q-761 -841 -914 -1006z" />
<glyph unicode="&#xd9;" horiz-adv-x="1517" d="M246 451q25 94 122 420t111 382q7 26 0.5 40.5t-30.5 15.5l-123 12l10 27q44 0 137 -4.5t137 -4.5q61 0 146.5 4.5t109.5 4.5l-10 -27l-104 -12q-26 -3 -42 -13t-24 -34q-62 -157 -143 -433t-109 -434q-9 -61 -10.5 -103.5t10.5 -78t26.5 -58.5t37.5 -46 q39 -39 117.5 -66t152.5 -27q73 0 129.5 9t114 33t102.5 65.5t87 108.5t75 159q64 185 130.5 437t94.5 393q12 51 -1.5 66.5t-67.5 21.5l-113 12l10 27q23 0 102.5 -4.5t118.5 -4.5q45 0 122 4.5t110 4.5l-6 -27q-79 -4 -113 -13t-51 -29.5t-35 -70.5q-29 -87 -121 -396.5 t-133 -422.5q-45 -123 -110.5 -213.5t-172.5 -148.5q-62 -33 -158.5 -50.5t-197.5 -17.5q-120 0 -228.5 38.5t-160.5 102.5q-107 126 -49 351zM762 1638q-14 40 7.5 61.5t58.5 18t67 -27.5q53 -37 270 -222l-14 -14q-58 23 -131 51t-130.5 48.5t-64.5 23.5 q-20 10 -38.5 27.5t-24.5 33.5z" />
<glyph unicode="&#xda;" horiz-adv-x="1517" d="M246 451q25 94 122 420t111 382q7 26 0.5 40.5t-30.5 15.5l-123 12l10 27q44 0 137 -4.5t137 -4.5q61 0 146.5 4.5t109.5 4.5l-10 -27l-104 -12q-26 -3 -42 -13t-24 -34q-62 -157 -143 -433t-109 -434q-9 -61 -10.5 -103.5t10.5 -78t26.5 -58.5t37.5 -46 q39 -39 117.5 -66t152.5 -27q73 0 129.5 9t114 33t102.5 65.5t87 108.5t75 159q64 185 130.5 437t94.5 393q12 51 -1.5 66.5t-67.5 21.5l-113 12l10 27q23 0 102.5 -4.5t118.5 -4.5q45 0 122 4.5t110 4.5l-6 -27q-79 -4 -113 -13t-51 -29.5t-35 -70.5q-29 -87 -121 -396.5 t-133 -422.5q-45 -123 -110.5 -213.5t-172.5 -148.5q-62 -33 -158.5 -50.5t-197.5 -17.5q-120 0 -228.5 38.5t-160.5 102.5q-107 126 -49 351zM950 1473q36 25 162.5 116.5t144.5 104.5q53 40 103 20q18 -6 23 -27t-9 -49q-16 -34 -86 -61q-42 -15 -323 -123z" />
<glyph unicode="&#xdb;" horiz-adv-x="1517" d="M246 451q25 94 122 420t111 382q7 26 0.5 40.5t-30.5 15.5l-123 12l10 27q44 0 137 -4.5t137 -4.5q61 0 146.5 4.5t109.5 4.5l-10 -27l-104 -12q-26 -3 -42 -13t-24 -34q-62 -157 -143 -433t-109 -434q-9 -61 -10.5 -103.5t10.5 -78t26.5 -58.5t37.5 -46 q39 -39 117.5 -66t152.5 -27q73 0 129.5 9t114 33t102.5 65.5t87 108.5t75 159q64 185 130.5 437t94.5 393q12 51 -1.5 66.5t-67.5 21.5l-113 12l10 27q23 0 102.5 -4.5t118.5 -4.5q45 0 122 4.5t110 4.5l-6 -27q-79 -4 -113 -13t-51 -29.5t-35 -70.5q-29 -87 -121 -396.5 t-133 -422.5q-45 -123 -110.5 -213.5t-172.5 -148.5q-62 -33 -158.5 -50.5t-197.5 -17.5q-120 0 -228.5 38.5t-160.5 102.5q-107 126 -49 351zM788 1466q209 107 324 246l23 4q70 -150 215 -250l-15 -20q-139 52 -243 125q-152 -77 -293 -125z" />
<glyph unicode="&#xdc;" horiz-adv-x="1517" d="M246 451q25 94 122 420t111 382q7 26 0.5 40.5t-30.5 15.5l-123 12l10 27q44 0 137 -4.5t137 -4.5q61 0 146.5 4.5t109.5 4.5l-10 -27l-104 -12q-26 -3 -42 -13t-24 -34q-62 -157 -143 -433t-109 -434q-9 -61 -10.5 -103.5t10.5 -78t26.5 -58.5t37.5 -46 q39 -39 117.5 -66t152.5 -27q73 0 129.5 9t114 33t102.5 65.5t87 108.5t75 159q64 185 130.5 437t94.5 393q12 51 -1.5 66.5t-67.5 21.5l-113 12l10 27q23 0 102.5 -4.5t118.5 -4.5q45 0 122 4.5t110 4.5l-6 -27q-79 -4 -113 -13t-51 -29.5t-35 -70.5q-29 -87 -121 -396.5 t-133 -422.5q-45 -123 -110.5 -213.5t-172.5 -148.5q-62 -33 -158.5 -50.5t-197.5 -17.5q-120 0 -228.5 38.5t-160.5 102.5q-107 126 -49 351zM807 1552q6 43 34 69t66 26h2q39 0 60 -24.5t16 -61.5q-6 -44 -39.5 -71.5t-66.5 -27.5q-36 0 -57 22t-15 68zM1217 1552 q6 43 33 69t67 26h2q38 0 59.5 -24.5t16.5 -61.5q-6 -44 -40 -71.5t-67 -27.5q-36 0 -57 22t-14 68z" />
<glyph unicode="&#xdd;" horiz-adv-x="1234" d="M170 1321l8 27q24 0 120.5 -4.5t160.5 -4.5q123 0 243 9l-10 -27q-62 -5 -91.5 -13t-35.5 -18t-2 -28q65 -210 203 -584q364 413 479 569q17 28 13.5 41t-29.5 17q-58 12 -135 16l12 27q15 0 92.5 -4.5t130.5 -4.5q19 0 99 4.5t131 4.5l-9 -27q-92 -8 -138 -26.5 t-109 -77.5q-135 -128 -480 -535q-42 -47 -67 -133q-27 -86 -64 -236t-47 -219q-6 -53 49 -59q23 -3 150 -17l-6 -26q-46 0 -162.5 4t-173.5 4q-76 0 -172.5 -4t-141.5 -4l11 26q88 11 137 17q40 5 60.5 22t41.5 68q42 102 133 446q9 45 0 95q-11 51 -83 253t-121 306 q-27 59 -59.5 73.5t-137.5 22.5zM825 1473q37 25 163.5 116.5t144.5 104.5q53 40 102 20q18 -6 23 -27t-9 -49q-16 -34 -86 -61q-42 -15 -323 -123z" />
<glyph unicode="&#xde;" horiz-adv-x="1288" d="M-47 -8l12 26q109 9 145 25.5t56 65.5q16 45 40.5 123t67.5 223t76 252q113 353 158 540q10 44 -24 56.5t-154 17.5l20 27q116 -7 258 -7q72 0 285 7l-10 -27q-65 -2 -101.5 -10.5t-51 -21.5t-23.5 -38q-48 -129 -62 -180q12 1 50.5 5t82.5 6.5t105 2.5q152 0 235.5 -29 t128.5 -81q68 -77 68 -217q0 -122 -56.5 -225t-156.5 -166q-157 -99 -402 -99q-86 0 -162 12.5t-116 30.5q-2 -8 -25 -90.5t-32 -126.5q-9 -42 22 -53.5t178 -22.5l-10 -26q-20 0 -122.5 4t-190.5 4q-72 0 -171 -4t-118 -4zM434 356q21 -19 85.5 -35t148.5 -16 q78 0 151 20.5t119 55.5q79 66 126.5 178.5t47.5 235.5v2q0 138 -72 197t-233 59q-166 0 -184 -45q-58 -191 -189 -652z" />
<glyph unicode="&#xdf;" horiz-adv-x="1210" d="M-455 -418q0 33 21.5 59.5t52.5 32.5q36 9 53 -30q29 -62 63 -95.5t87 -33.5q75 0 119 70.5t94 238.5q112 371 260 987l-168 16l14 27h166q86 312 268 471q151 125 349 125q97 0 165 -24.5t101.5 -66.5t47 -85.5t13.5 -95.5q0 -61 -28 -111q-184 -44 -267.5 -109.5 t-83.5 -175.5q0 -60 37 -110q47 -64 99 -121q60 -71 86 -125.5t26 -118.5q0 -146 -111.5 -241t-277.5 -95q-72 0 -143 21.5t-115 52.5q43 108 68 254l26 6q-6 -46 -6.5 -89t12.5 -81t35.5 -67t62.5 -45.5t93 -16.5q87 0 145 57t58 158q0 87 -56 154q-34 46 -96 119 q-88 105 -88 198q0 118 94 212t264 147q37 55 37 143q0 40 -10.5 77.5t-33.5 72t-65.5 55t-99.5 20.5q-84 0 -150.5 -37.5t-118 -115.5t-90.5 -179t-77 -247q-7 -26 -51 -192.5t-63.5 -238t-55 -201t-62.5 -215t-50 -145.5q-91 -226 -281 -342q-90 -53 -195 -53 q-78 0 -126 40t-48 89z" />
<glyph unicode="&#xe0;" horiz-adv-x="1148" d="M76 195q0 159 88 326.5t239 271.5q147 96 285 96q196 0 217 -135l31 106h168q-54 -149 -116.5 -359.5t-96.5 -363.5q-10 -60 -2.5 -79t31.5 -19q60 0 118.5 65t98.5 150l20 -21q-45 -104 -130 -183t-191 -79q-39 0 -65 12.5t-35.5 35.5t-12.5 48t4 59.5t14 59.5 t17.5 57.5t13.5 45.5h-4q-100 -141 -228 -229.5t-270 -88.5q-97 0 -145.5 58.5t-48.5 165.5zM256 186q0 -61 26.5 -103t82.5 -42q211 0 383 307q46 77 80 176t34 156q0 86 -33 128t-108 42q-135 0 -254 -133q-98 -112 -154.5 -258.5t-56.5 -270.5v-2zM578 1346q4 25 17.5 37 t29.5 12q40 0 73 -68q22 -51 117 -332l-18 -8q-49 72 -113 158t-74 102q-40 57 -32 99z" />
<glyph unicode="&#xe1;" horiz-adv-x="1148" d="M76 195q0 159 88 326.5t239 271.5q147 96 285 96q196 0 217 -135l31 106h168q-54 -149 -116.5 -359.5t-96.5 -363.5q-10 -60 -2.5 -79t31.5 -19q60 0 118.5 65t98.5 150l20 -21q-45 -104 -130 -183t-191 -79q-39 0 -65 12.5t-35.5 35.5t-12.5 48t4 59.5t14 59.5 t17.5 57.5t13.5 45.5h-4q-100 -141 -228 -229.5t-270 -88.5q-97 0 -145.5 58.5t-48.5 165.5zM256 186q0 -61 26.5 -103t82.5 -42q211 0 383 307q46 77 80 176t34 156q0 86 -33 128t-108 42q-135 0 -254 -133q-98 -112 -154.5 -258.5t-56.5 -270.5v-2zM674 999q15 21 67.5 96 t97.5 138t62 86q46 65 96 65q16 0 27 -11.5t10 -33.5q0 -41 -76 -110q-5 -4 -27.5 -24t-43.5 -38.5t-51.5 -46.5t-67 -62.5t-74.5 -72.5z" />
<glyph unicode="&#xe2;" horiz-adv-x="1148" d="M76 195q0 159 88 326.5t239 271.5q147 96 285 96q196 0 217 -135l31 106h168q-54 -149 -116.5 -359.5t-96.5 -363.5q-10 -60 -2.5 -79t31.5 -19q60 0 118.5 65t98.5 150l20 -21q-45 -104 -130 -183t-191 -79q-39 0 -65 12.5t-35.5 35.5t-12.5 48t4 59.5t14 59.5 t17.5 57.5t13.5 45.5h-4q-100 -141 -228 -229.5t-270 -88.5q-97 0 -145.5 58.5t-48.5 165.5zM256 186q0 -61 26.5 -103t82.5 -42q211 0 383 307q46 77 80 176t34 156q0 86 -33 128t-108 42q-135 0 -254 -133q-98 -112 -154.5 -258.5t-56.5 -270.5v-2zM516 1018 q187 177 309 375l27 10q6 -67 39 -172t98 -217l-16 -17q-84 82 -170 238q-155 -159 -273 -238z" />
<glyph unicode="&#xe3;" horiz-adv-x="1148" d="M76 195q0 159 88 326.5t239 271.5q147 96 285 96q196 0 217 -135l31 106h168q-54 -149 -116.5 -359.5t-96.5 -363.5q-10 -60 -2.5 -79t31.5 -19q60 0 118.5 65t98.5 150l20 -21q-45 -104 -130 -183t-191 -79q-39 0 -65 12.5t-35.5 35.5t-12.5 48t4 59.5t14 59.5 t17.5 57.5t13.5 45.5h-4q-100 -141 -228 -229.5t-270 -88.5q-97 0 -145.5 58.5t-48.5 165.5zM256 186q0 -61 26.5 -103t82.5 -42q211 0 383 307q46 77 80 176t34 156q0 86 -33 128t-108 42q-135 0 -254 -133q-98 -112 -154.5 -258.5t-56.5 -270.5v-2zM522 1051 q5 40 15.5 74.5t28 66.5t47 51t67.5 19q32 0 59.5 -14t73.5 -50q52 -39 73.5 -51t39.5 -12q34 0 55 31.5t31 105.5l26 -8q-4 -87 -41 -153.5t-108 -66.5q-32 0 -62 16.5t-79 55.5l-15 12t-14 11t-12.5 9t-13 8t-12 6t-13 5.5t-12.5 2.5t-15 1q-72 0 -94 -127z" />
<glyph unicode="&#xe4;" horiz-adv-x="1148" d="M76 195q0 159 88 326.5t239 271.5q147 96 285 96q196 0 217 -135l31 106h168q-54 -149 -116.5 -359.5t-96.5 -363.5q-10 -60 -2.5 -79t31.5 -19q60 0 118.5 65t98.5 150l20 -21q-45 -104 -130 -183t-191 -79q-39 0 -65 12.5t-35.5 35.5t-12.5 48t4 59.5t14 59.5 t17.5 57.5t13.5 45.5h-4q-100 -141 -228 -229.5t-270 -88.5q-97 0 -145.5 58.5t-48.5 165.5zM256 186q0 -61 26.5 -103t82.5 -42q211 0 383 307q46 77 80 176t34 156q0 86 -33 128t-108 42q-135 0 -254 -133q-98 -112 -154.5 -258.5t-56.5 -270.5v-2zM530 1202q1 45 34 76 t71 31h2q36 0 56 -24t18 -62q-1 -44 -31.5 -74.5t-71.5 -30.5q-33 0 -55.5 23.5t-22.5 60.5zM870 1202q1 45 34 76t71 31h2q36 0 56 -24t18 -62q-1 -44 -31.5 -74.5t-71.5 -30.5q-34 0 -56 23t-22 61z" />
<glyph unicode="&#xe5;" horiz-adv-x="1148" d="M76 195q0 159 88 326.5t239 271.5q147 96 285 96q196 0 217 -135l31 106h168q-54 -149 -116.5 -359.5t-96.5 -363.5q-10 -60 -2.5 -79t31.5 -19q60 0 118.5 65t98.5 150l20 -21q-45 -104 -130 -183t-191 -79q-39 0 -65 12.5t-35.5 35.5t-12.5 48t4 59.5t14 59.5 t17.5 57.5t13.5 45.5h-4q-100 -141 -228 -229.5t-270 -88.5q-97 0 -145.5 58.5t-48.5 165.5zM256 186q0 -61 26.5 -103t82.5 -42q211 0 383 307q46 77 80 176t34 156q0 86 -33 128t-108 42q-135 0 -254 -133q-98 -112 -154.5 -258.5t-56.5 -270.5v-2zM612 1184 q10 77 67.5 120.5t135.5 43.5h2q71 0 111 -46t30 -120q-10 -72 -66.5 -114t-131.5 -42q-74 0 -115.5 44t-32.5 114zM702 1188q-9 -64 9.5 -97.5t56.5 -33.5q36 0 60 27t31.5 53.5t10.5 54.5q2 26 3 54.5t-16.5 50.5t-51.5 22h-2q-42 0 -68 -39t-33 -92z" />
<glyph unicode="&#xe6;" horiz-adv-x="1581" d="M72 190q0 159 103 326.5t267 267.5q160 97 351 97q79 0 147 -18t102 -48q49 32 129 53t146 21q59 0 103.5 -13t71.5 -34t44 -50.5t23 -58t6 -61.5t-17.5 -65.5t-38.5 -45.5q-83 -67 -255.5 -110.5t-327.5 -53.5q-17 -61 -17 -145q0 -109 52 -168t143 -59q266 0 403 299 h13l2 -84q-97 -135 -219.5 -202t-282.5 -67q-145 0 -217.5 77.5t-67.5 217.5l-6 2q-37 -54 -87 -104t-111.5 -94.5t-134.5 -71.5t-144 -27q-92 0 -136 57.5t-44 161.5zM252 172q0 -63 29 -97t71 -34q90 0 182 70t164 194q41 62 62 137q32 105 84 182t145 158q-54 68 -186 68 q-79 0 -171.5 -51t-162.5 -135q-217 -248 -217 -490v-2zM936 440q86 3 178 19t160 37q137 41 137 215q0 12 -1 23.5t-4.5 26.5t-9 27t-15.5 25t-23 21.5t-33 14t-45 5.5h-2q-34 0 -69 -12.5t-74 -42.5t-73.5 -76t-68 -118.5t-57.5 -164.5z" />
<glyph unicode="&#xe7;" horiz-adv-x="952" d="M90 272q0 110 43 220t117.5 198.5t187 143.5t240.5 55q138 0 204 -54.5t66 -146.5q0 -59 -31.5 -91t-68.5 -32q-25 0 -44.5 11.5t-23.5 33.5q-12 19 8 58q25 39 25 80q0 55 -30 82.5t-107 27.5q-166 0 -287 -184q-56 -85 -87.5 -195.5t-31.5 -208.5q0 -121 57.5 -184 t157.5 -63q271 0 402 305h12l-4 -84q-46 -85 -158.5 -168.5t-251.5 -100.5q-10 -11 -38 -45.5t-41 -50.5q124 -28 124 -129q0 -78 -54.5 -117t-125.5 -39q-36 0 -72.5 12t-54.5 25l13 29q39 -27 96 -27q37 0 63.5 20.5t26.5 55.5q0 39 -32 60.5t-89 21.5l-4 16 q15 15 76 81.5t76 82.5h-25q-167 0 -250.5 71t-83.5 230z" />
<glyph unicode="&#xe8;" horiz-adv-x="937" d="M86 266q0 146 69 285t197 235q67 49 150.5 76t167.5 27q61 0 107 -14t73 -36t44 -52.5t22.5 -58t5.5 -58.5q0 -120 -213 -195q-142 -50 -430 -80q-13 -63 -13 -133q0 -109 48 -173t153 -64q136 0 239.5 81.5t159.5 219.5h13l4 -80q-86 -133 -216.5 -204t-279.5 -71 q-145 0 -223 73.5t-78 221.5zM289 438q198 11 338 58q67 25 105 77.5t38 124.5t-33.5 115t-87.5 43h-4q-36 0 -71.5 -11t-76 -40.5t-76 -75t-70.5 -120t-62 -171.5zM471 1346q4 25 17.5 37t29.5 12q41 0 74 -68q22 -51 117 -332l-19 -8q-38 55 -80.5 113.5t-69.5 95 t-36 51.5q-40 59 -33 99z" />
<glyph unicode="&#xe9;" horiz-adv-x="937" d="M86 266q0 146 69 285t197 235q67 49 150.5 76t167.5 27q61 0 107 -14t73 -36t44 -52.5t22.5 -58t5.5 -58.5q0 -120 -213 -195q-142 -50 -430 -80q-13 -63 -13 -133q0 -109 48 -173t153 -64q136 0 239.5 81.5t159.5 219.5h13l4 -80q-86 -133 -216.5 -204t-279.5 -71 q-145 0 -223 73.5t-78 221.5zM289 438q198 11 338 58q67 25 105 77.5t38 124.5t-33.5 115t-87.5 43h-4q-36 0 -71.5 -11t-76 -40.5t-76 -75t-70.5 -120t-62 -171.5zM557 999q15 21 67.5 96t97.5 138t62 86q46 65 97 65q16 0 27 -11.5t10 -33.5q0 -41 -76 -110 q-5 -4 -27.5 -24t-43.5 -38.5t-51.5 -46.5t-67 -62.5t-74.5 -72.5z" />
<glyph unicode="&#xea;" horiz-adv-x="937" d="M86 266q0 146 69 285t197 235q67 49 150.5 76t167.5 27q61 0 107 -14t73 -36t44 -52.5t22.5 -58t5.5 -58.5q0 -120 -213 -195q-142 -50 -430 -80q-13 -63 -13 -133q0 -109 48 -173t153 -64q136 0 239.5 81.5t159.5 219.5h13l4 -80q-86 -133 -216.5 -204t-279.5 -71 q-145 0 -223 73.5t-78 221.5zM289 438q198 11 338 58q67 25 105 77.5t38 124.5t-33.5 115t-87.5 43h-4q-36 0 -71.5 -11t-76 -40.5t-76 -75t-70.5 -120t-62 -171.5zM428 1018q187 177 309 375l27 10q6 -67 39 -172t98 -217l-16 -17q-84 82 -170 238q-155 -159 -273 -238z " />
<glyph unicode="&#xeb;" horiz-adv-x="937" d="M86 266q0 146 69 285t197 235q67 49 150.5 76t167.5 27q61 0 107 -14t73 -36t44 -52.5t22.5 -58t5.5 -58.5q0 -120 -213 -195q-142 -50 -430 -80q-13 -63 -13 -133q0 -109 48 -173t153 -64q136 0 239.5 81.5t159.5 219.5h13l4 -80q-86 -133 -216.5 -204t-279.5 -71 q-145 0 -223 73.5t-78 221.5zM289 438q198 11 338 58q67 25 105 77.5t38 124.5t-33.5 115t-87.5 43h-4q-36 0 -71.5 -11t-76 -40.5t-76 -75t-70.5 -120t-62 -171.5zM424 1202q1 45 34 76t70 31h2q36 0 56 -24t18 -62q-1 -44 -31 -74.5t-71 -30.5q-33 0 -55.5 23.5 t-22.5 60.5zM764 1202q1 45 34 76t70 31h2q36 0 56 -24t18 -62q-1 -44 -31 -74.5t-71 -30.5q-34 0 -56 23t-22 61z" />
<glyph unicode="&#xec;" horiz-adv-x="542" d="M119 180q19 62 89.5 277.5t102.5 322.5q6 17 3 25t-21 8h-146l11 25q241 18 350 51l6 -6q-56 -134 -136 -387t-110 -375q-8 -34 -8 -53t7 -27t22 -8q63 0 136.5 71.5t106.5 151.5l23 -25q-51 -103 -143.5 -181.5t-198.5 -78.5q-167 0 -94 209zM242 1346q4 25 17.5 37 t29.5 12q40 0 73 -68q22 -51 117 -332l-18 -8q-49 72 -113 158t-74 102q-40 57 -32 99z" />
<glyph unicode="&#xed;" horiz-adv-x="542" d="M119 180q19 62 89.5 277.5t102.5 322.5q6 17 3 25t-21 8h-146l11 25q241 18 350 51l6 -6q-56 -134 -136 -387t-110 -375q-8 -34 -8 -53t7 -27t22 -8q63 0 136.5 71.5t106.5 151.5l23 -25q-51 -103 -143.5 -181.5t-198.5 -78.5q-167 0 -94 209zM381 999q15 21 67.5 96 t97.5 138t62 86q46 65 97 65q16 0 26.5 -11.5t9.5 -33.5q0 -42 -75 -110q-183 -163 -265 -244z" />
<glyph unicode="&#xee;" horiz-adv-x="542" d="M119 180q19 62 89.5 277.5t102.5 322.5q6 17 3 25t-21 8h-146l11 25q241 18 350 51l6 -6q-56 -134 -136 -387t-110 -375q-8 -34 -8 -53t7 -27t22 -8q63 0 136.5 71.5t106.5 151.5l23 -25q-51 -103 -143.5 -181.5t-198.5 -78.5q-167 0 -94 209zM193 1018q187 177 309 375 l26 10q6 -66 39.5 -171.5t98.5 -217.5l-17 -17q-84 82 -170 238q-157 -161 -272 -238z" />
<glyph unicode="&#xef;" horiz-adv-x="542" d="M119 180q19 62 89.5 277.5t102.5 322.5q6 17 3 25t-21 8h-146l11 25q241 18 350 51l6 -6q-56 -134 -136 -387t-110 -375q-8 -34 -8 -53t7 -27t22 -8q63 0 136.5 71.5t106.5 151.5l23 -25q-51 -103 -143.5 -181.5t-198.5 -78.5q-167 0 -94 209zM223 1202q1 45 34 76t71 31 h2q36 0 55.5 -24t17.5 -62q-1 -44 -31 -74.5t-71 -30.5q-33 0 -55.5 23.5t-22.5 60.5zM563 1202q1 45 34 76t71 31h2q36 0 55.5 -24t17.5 -62q-1 -44 -31 -74.5t-71 -30.5q-34 0 -56 23t-22 61z" />
<glyph unicode="&#xf0;" horiz-adv-x="1056" d="M82 270q-1 161 85.5 313t223.5 232q131 74 283 74q146 0 207 -70q0 215 -99 381q-89 -41 -325 -164l-11 43q262 123 318 152q-46 77 -148.5 124t-218.5 50l31 29q262 -6 430 -158q54 25 91 44t70.5 37.5t57.5 31.5l17 -41q-19 -9 -84.5 -40t-126.5 -61q157 -195 157 -497 q0 -128 -36 -259.5t-113 -252t-182 -187.5q-133 -80 -299 -80q-47 0 -89.5 7.5t-87 28t-77 52.5t-53 86.5t-21.5 124.5zM254 215q-1 -117 47.5 -166t122.5 -49q118 0 219 109q83 92 152 275.5t71 311.5q0 71 -45.5 118.5t-138.5 47.5h-4q-125 0 -227 -117 q-86 -95 -141.5 -247t-55.5 -283z" />
<glyph unicode="&#xf1;" horiz-adv-x="1165" d="M47 -18q77 204 149 434.5t101 365.5q5 15 0.5 22t-23.5 7h-131l7 25q198 14 346 53q-53 -182 -125 -412q52 80 109 148.5t128 130.5t153 97.5t165 35.5q80 0 121 -35q27 -24 33.5 -69t-0.5 -85t-21 -77q-23 -62 -89 -238.5t-93 -249.5q-33 -94 24 -94q55 0 122.5 66 t104.5 147l21 -25q-53 -109 -145.5 -183.5t-186.5 -74.5q-61 0 -89.5 34t-27 81t22.5 102q18 49 87 228t95 256q8 22 11.5 46.5t0 49.5t-22 41t-50.5 16q-69 0 -140.5 -41.5t-130.5 -105.5t-114 -147.5t-94.5 -161.5t-67.5 -152q-39 -104 -78 -219q-96 -3 -172 -16z M530 1051q5 40 15.5 74.5t28 66.5t47 51t67.5 19q32 0 59.5 -14t73.5 -50q52 -39 73.5 -51t39.5 -12q34 0 55 31.5t31 105.5l27 -8q-4 -86 -41.5 -153t-108.5 -67q-32 0 -62 16.5t-79 55.5l-15 12t-14 11t-12.5 9t-13 8t-12 6t-13 5.5t-12.5 2.5t-15 1q-72 0 -94 -127z" />
<glyph unicode="&#xf2;" horiz-adv-x="1067" d="M84 279q0 156 77 303t210 227q140 80 301 80h2q164 0 253 -81t89 -247q0 -151 -74.5 -295t-198.5 -217q-138 -78 -307 -78q-71 0 -129 13.5t-110.5 46t-82.5 95.5t-30 153zM254 217q0 -112 48.5 -164.5t123.5 -52.5q127 0 215 92q90 93 148.5 255.5t58.5 301.5 q0 213 -172 213h-2q-140 0 -244 -129q-75 -91 -125.5 -241.5t-50.5 -274.5zM514 1346q4 25 17.5 37t29.5 12q41 0 74 -68q22 -51 117 -332l-19 -8q-38 55 -80.5 113.5t-69.5 95t-36 51.5q-40 59 -33 99z" />
<glyph unicode="&#xf3;" horiz-adv-x="1067" d="M84 279q0 156 77 303t210 227q140 80 301 80h2q164 0 253 -81t89 -247q0 -151 -74.5 -295t-198.5 -217q-138 -78 -307 -78q-71 0 -129 13.5t-110.5 46t-82.5 95.5t-30 153zM254 217q0 -112 48.5 -164.5t123.5 -52.5q127 0 215 92q90 93 148.5 255.5t58.5 301.5 q0 213 -172 213h-2q-140 0 -244 -129q-75 -91 -125.5 -241.5t-50.5 -274.5zM627 999q15 21 67.5 96t97.5 138t62 86q46 65 96 65q16 0 27 -11.5t10 -33.5q0 -41 -76 -110q-5 -4 -27.5 -24t-43.5 -38.5t-51.5 -46.5t-67 -62.5t-74.5 -72.5z" />
<glyph unicode="&#xf4;" horiz-adv-x="1067" d="M84 279q0 156 77 303t210 227q140 80 301 80h2q164 0 253 -81t89 -247q0 -151 -74.5 -295t-198.5 -217q-138 -78 -307 -78q-71 0 -129 13.5t-110.5 46t-82.5 95.5t-30 153zM254 217q0 -112 48.5 -164.5t123.5 -52.5q127 0 215 92q90 93 148.5 255.5t58.5 301.5 q0 213 -172 213h-2q-140 0 -244 -129q-75 -91 -125.5 -241.5t-50.5 -274.5zM479 1018q187 177 309 375l27 10q6 -67 39 -172t98 -217l-16 -17q-84 82 -170 238q-157 -161 -272 -238z" />
<glyph unicode="&#xf5;" horiz-adv-x="1067" d="M84 279q0 156 77 303t210 227q140 80 301 80h2q164 0 253 -81t89 -247q0 -151 -74.5 -295t-198.5 -217q-138 -78 -307 -78q-71 0 -129 13.5t-110.5 46t-82.5 95.5t-30 153zM254 217q0 -112 48.5 -164.5t123.5 -52.5q127 0 215 92q90 93 148.5 255.5t58.5 301.5 q0 213 -172 213h-2q-140 0 -244 -129q-75 -91 -125.5 -241.5t-50.5 -274.5zM463 1051q5 40 15.5 74.5t28 66.5t47 51t67.5 19q32 0 59.5 -14t73.5 -50q53 -39 73.5 -51t38.5 -12q34 0 55 31.5t31 105.5l27 -8q-4 -86 -41.5 -153t-108.5 -67q-32 0 -62 16.5t-79 55.5 q-4 3 -19 15t-19 14.5t-15 10t-17.5 9t-16 4t-19.5 2.5q-73 0 -95 -127z" />
<glyph unicode="&#xf6;" horiz-adv-x="1067" d="M84 279q0 156 77 303t210 227q140 80 301 80h2q164 0 253 -81t89 -247q0 -151 -74.5 -295t-198.5 -217q-138 -78 -307 -78q-71 0 -129 13.5t-110.5 46t-82.5 95.5t-30 153zM254 217q0 -112 48.5 -164.5t123.5 -52.5q127 0 215 92q90 93 148.5 255.5t58.5 301.5 q0 213 -172 213h-2q-140 0 -244 -129q-75 -91 -125.5 -241.5t-50.5 -274.5zM469 1202q1 45 34 76t70 31h2q36 0 56 -24t18 -62q-1 -44 -31 -74.5t-71 -30.5q-33 0 -55.5 23.5t-22.5 60.5zM809 1202q1 45 34 76t70 31h2q36 0 56 -24t18 -62q-1 -44 -31 -74.5t-71 -30.5 q-34 0 -56 23t-22 61z" />
<glyph unicode="&#xf7;" horiz-adv-x="970" d="M84 434v76h780v-76h-780zM408 203q0 28 21.5 49.5t47.5 21.5h2q27 0 47.5 -21.5t20.5 -49.5q0 -27 -20.5 -47.5t-49.5 -20.5q-26 0 -47.5 21t-21.5 47zM408 741q0 25 21.5 45.5t47.5 20.5q29 0 49.5 -20.5t20.5 -45.5q0 -29 -20.5 -50t-49.5 -21h-2q-25 0 -46 21t-21 50z " />
<glyph unicode="&#xf8;" horiz-adv-x="1067" d="M51 -55l115 110q-84 74 -84 224q0 154 82 303.5t211 226.5q133 80 297 80q79 0 124 -13t97 -47l84 89l51 -9l-104 -106q92 -86 92 -244q0 -152 -76 -293.5t-203 -216.5q-128 -78 -309 -78q-142 0 -231 60q-5 -5 -39 -40.5t-52 -56.5zM268 152q323 349 557 612 q-26 55 -61.5 76.5t-99.5 21.5h-2q-126 0 -234 -127q-87 -104 -139.5 -276.5t-20.5 -306.5zM276 102q20 -52 64.5 -77t95.5 -25h2q125 0 221 106q93 101 150 290t27 321q-27 -30 -264 -288.5t-296 -326.5z" />
<glyph unicode="&#xf9;" horiz-adv-x="1146" d="M117 188q30 107 98.5 319.5t87.5 268.5q7 17 1 26t-28 9l-131 -4l17 27q17 2 84.5 8t98 9.5t82 13.5t91.5 24q-38 -57 -118 -301.5t-121 -419.5q-7 -39 -7.5 -68.5t19 -47t59.5 -17.5q74 0 148.5 39.5t133 102t102.5 130.5t69 133q70 176 110 336q6 17 0.5 26t-26.5 9 l-131 -4l12 27q214 14 354 55q-53 -130 -127 -364t-112 -396q-12 -55 -7 -75.5t31 -20.5q51 0 121 67t111 158l20 -22q-57 -116 -142.5 -190.5t-193.5 -74.5q-149 0 -92 187q2 8 8.5 29t13.5 45.5t15 50.5q-97 -139 -231.5 -225.5t-262.5 -86.5q-117 0 -153 52.5t-4 164.5z M532 1346q4 25 17.5 37t30.5 12q40 0 73 -68q22 -51 117 -332l-18 -8q-49 72 -113 158t-74 102q-40 59 -33 99z" />
<glyph unicode="&#xfa;" horiz-adv-x="1146" d="M117 188q30 107 98.5 319.5t87.5 268.5q7 17 1 26t-28 9l-131 -4l17 27q17 2 84.5 8t98 9.5t82 13.5t91.5 24q-38 -57 -118 -301.5t-121 -419.5q-7 -39 -7.5 -68.5t19 -47t59.5 -17.5q74 0 148.5 39.5t133 102t102.5 130.5t69 133q70 176 110 336q6 17 0.5 26t-26.5 9 l-131 -4l12 27q214 14 354 55q-53 -130 -127 -364t-112 -396q-12 -55 -7 -75.5t31 -20.5q51 0 121 67t111 158l20 -22q-57 -116 -142.5 -190.5t-193.5 -74.5q-149 0 -92 187q2 8 8.5 29t13.5 45.5t15 50.5q-97 -139 -231.5 -225.5t-262.5 -86.5q-117 0 -153 52.5t-4 164.5z M647 999q15 21 67.5 96t97.5 138t62 86q46 65 97 65q16 0 27 -11.5t10 -33.5q0 -41 -76 -110q-5 -4 -27.5 -24t-43.5 -38.5t-51.5 -46.5t-67 -62.5t-74.5 -72.5z" />
<glyph unicode="&#xfb;" horiz-adv-x="1146" d="M117 188q30 107 98.5 319.5t87.5 268.5q7 17 1 26t-28 9l-131 -4l17 27q17 2 84.5 8t98 9.5t82 13.5t91.5 24q-38 -57 -118 -301.5t-121 -419.5q-7 -39 -7.5 -68.5t19 -47t59.5 -17.5q74 0 148.5 39.5t133 102t102.5 130.5t69 133q70 176 110 336q6 17 0.5 26t-26.5 9 l-131 -4l12 27q214 14 354 55q-53 -130 -127 -364t-112 -396q-12 -55 -7 -75.5t31 -20.5q51 0 121 67t111 158l20 -22q-57 -116 -142.5 -190.5t-193.5 -74.5q-149 0 -92 187q2 8 8.5 29t13.5 45.5t15 50.5q-97 -139 -231.5 -225.5t-262.5 -86.5q-117 0 -153 52.5t-4 164.5z M492 1018q187 177 309 375l26 10q6 -66 39.5 -171.5t98.5 -217.5l-17 -17q-84 82 -170 238q-157 -161 -272 -238z" />
<glyph unicode="&#xfc;" horiz-adv-x="1146" d="M117 188q30 107 98.5 319.5t87.5 268.5q7 17 1 26t-28 9l-131 -4l17 27q17 2 84.5 8t98 9.5t82 13.5t91.5 24q-38 -57 -118 -301.5t-121 -419.5q-7 -39 -7.5 -68.5t19 -47t59.5 -17.5q74 0 148.5 39.5t133 102t102.5 130.5t69 133q70 176 110 336q6 17 0.5 26t-26.5 9 l-131 -4l12 27q214 14 354 55q-53 -130 -127 -364t-112 -396q-12 -55 -7 -75.5t31 -20.5q51 0 121 67t111 158l20 -22q-57 -116 -142.5 -190.5t-193.5 -74.5q-149 0 -92 187q2 8 8.5 29t13.5 45.5t15 50.5q-97 -139 -231.5 -225.5t-262.5 -86.5q-117 0 -153 52.5t-4 164.5z M514 1202q1 45 34 76t70 31h3q36 0 55.5 -24t17.5 -62q-1 -44 -31 -74.5t-71 -30.5q-33 0 -55.5 23.5t-22.5 60.5zM854 1202q1 45 34 76t70 31h3q36 0 55.5 -24t17.5 -62q-1 -44 -31 -74.5t-71 -30.5q-34 0 -56 23t-22 61z" />
<glyph unicode="&#xfd;" horiz-adv-x="944" d="M-201 -401q0 36 23 63t59 27q41 0 53 -47q12 -97 86 -97q34 0 70 22t63.5 51t64.5 87t60 98.5t64 116.5q-27 34 -37 141q-54 558 -88 707q-5 20 -17 27t-42.5 10t-114.5 4l12 25q53 0 172.5 19.5t167.5 37.5q3 -67 28.5 -332t43.5 -426q101 188 270 457 q102 165 188.5 233t172.5 78l4 -20q-58 -19 -119 -76.5t-135 -153.5q-97 -124 -218.5 -319.5t-232.5 -401.5q-153 -278 -243.5 -374.5t-208.5 -96.5q-73 0 -110.5 44.5t-35.5 95.5zM588 999q15 21 67.5 96t97.5 138t62 86q46 65 96 65q16 0 27 -11.5t10 -33.5 q0 -41 -76 -110q-5 -4 -27.5 -24t-43.5 -38.5t-51.5 -46.5t-67 -62.5t-74.5 -72.5z" />
<glyph unicode="&#xfe;" horiz-adv-x="1114" d="M-311 -526l12 26l113 19q34 5 52.5 15t29.5 36q34 79 92 261.5t145 475.5t92 311q22 74 69.5 227t83 273t62.5 230q5 20 -0.5 28.5t-27.5 9.5l-138 7l13 22q214 0 368 35q-26 -62 -74.5 -214t-112.5 -363.5t-95 -307.5q84 103 156.5 169.5t162 110.5t182.5 44 q104 0 156.5 -60t52.5 -170q0 -208 -110 -381t-273 -253q-108 -54 -235 -54q-86 0 -148.5 32t-89.5 87q-27 -85 -52 -171.5t-36.5 -131t-27.5 -109.5t-17 -67q-11 -46 -4.5 -62t29.5 -18l162 -16l-7 -25h-223q-221 0 -362 -16zM276 184q-1 -88 45 -133t132 -45q64 0 130 33 t122 102q78 97 137 245t59 290q0 69 -27 110t-81 41h-2q-52 0 -107 -25t-99.5 -62t-86 -84.5t-69.5 -88.5t-48 -78q-41 -71 -73 -158t-32 -147z" />
<glyph unicode="&#xff;" horiz-adv-x="944" d="M-201 -401q0 36 23 63t59 27q41 0 53 -47q12 -97 86 -97q34 0 70 22t63.5 51t64.5 87t60 98.5t64 116.5q-27 34 -37 141q-54 558 -88 707q-5 20 -17 27t-42.5 10t-114.5 4l12 25q53 0 172.5 19.5t167.5 37.5q3 -67 28.5 -332t43.5 -426q101 188 270 457 q102 165 188.5 233t172.5 78l4 -20q-58 -19 -119 -76.5t-135 -153.5q-97 -124 -218.5 -319.5t-232.5 -401.5q-153 -278 -243.5 -374.5t-208.5 -96.5q-73 0 -110.5 44.5t-35.5 95.5zM424 1202q1 45 34 76t70 31h2q36 0 56 -24t18 -62q-1 -44 -31 -74.5t-71 -30.5 q-33 0 -55.5 23.5t-22.5 60.5zM764 1202q1 45 34 76t70 31h2q36 0 56 -24t18 -62q-1 -44 -31 -74.5t-71 -30.5q-34 0 -56 23t-22 61z" />
<glyph unicode="&#x152;" horiz-adv-x="2314" d="M156 444q0 245 128 476t330 344q204 116 428 116q101 0 186 -23.5t155.5 -84t95.5 -152.5q15 55 63 223q16 0 51 -2t54 -2h391q242 0 350 17q-19 -38 -56 -153t-63 -210h-26q17 99 14 197q-3 35 -10.5 52.5t-36.5 33.5t-86.5 21.5t-157.5 5.5h-209q-22 0 -32 -6.5 t-17 -26.5q-38 -89 -89.5 -254t-84.5 -295q23 -6 192 -6q108 0 166.5 16t96.5 55.5t75 122.5h27q-20 -50 -44 -122t-37 -114t-42.5 -143.5t-34.5 -117.5l-20 4q20 90 17.5 147.5t-51 85t-159.5 27.5q-173 0 -200 -4q-19 -64 -49.5 -167.5t-47 -161t-36 -129t-31.5 -124.5 q-6 -30 9 -39q26 -16 197 -16h17q215 0 295.5 14.5t132.5 59.5q18 14 39 35t37.5 40t39.5 48t35 45t33.5 45.5t26.5 35.5l25 -8q-126 -284 -166 -368q-65 7 -183 10q-270 6 -421 6h-224q-102 0 -121 -4q10 26 66 182q-202 -217 -526 -217q-255 0 -383.5 126t-128.5 359z M358 342q0 -162 81 -255t251 -93q227 0 385 151q128 124 217 350t107 435q38 413 -334 413q-174 0 -303 -100q-183 -143 -293.5 -398.5t-110.5 -500.5v-2z" />
<glyph unicode="&#x153;" horiz-adv-x="1624" d="M84 285q0 151 78 297.5t205 224.5q136 82 297 82q119 0 197.5 -53.5t99.5 -165.5q154 219 385 219q260 0 260 -217q0 -37 -13 -59t-37 -44q-35 -33 -92 -59q-82 -39 -235 -73t-260 -40q-19 -70 -19 -153q0 -103 49.5 -162t145.5 -59q144 0 247.5 84.5t157.5 216.5h15 l4 -80q-32 -43 -62 -76.5t-77 -72t-97.5 -64.5t-120 -43t-147.5 -17q-100 0 -167.5 45t-88.5 138q-85 -99 -181 -141t-210 -42q-41 0 -78.5 5t-87 24t-84.5 51t-59.5 92.5t-24.5 141.5zM256 221q0 -221 182 -221q130 0 221 104q80 90 131.5 242.5t51.5 278.5q0 237 -170 237 h-2q-135 0 -240 -131q-73 -89 -123.5 -235.5t-50.5 -274.5zM979 440q213 13 338 62q70 29 103.5 73.5t33.5 131.5q0 68 -30.5 108.5t-94.5 40.5h-2q-35 0 -69.5 -11t-74 -40t-74.5 -74t-69.5 -120t-60.5 -171z" />
<glyph unicode="&#x178;" horiz-adv-x="1234" d="M170 1321l8 27q24 0 120.5 -4.5t160.5 -4.5q123 0 243 9l-10 -27q-62 -5 -91.5 -13t-35.5 -18t-2 -28q65 -210 203 -584q364 413 479 569q17 28 13.5 41t-29.5 17q-58 12 -135 16l12 27q15 0 92.5 -4.5t130.5 -4.5q19 0 99 4.5t131 4.5l-9 -27q-92 -8 -138 -26.5 t-109 -77.5q-135 -128 -480 -535q-42 -47 -67 -133q-27 -86 -64 -236t-47 -219q-6 -53 49 -59q23 -3 150 -17l-6 -26q-46 0 -162.5 4t-173.5 4q-76 0 -172.5 -4t-141.5 -4l11 26q88 11 137 17q40 5 60.5 22t41.5 68q42 102 133 446q9 45 0 95q-11 51 -83 253t-121 306 q-27 59 -59.5 73.5t-137.5 22.5zM635 1552q6 43 34 69t66 26h2q39 0 60 -24.5t16 -61.5q-6 -44 -39.5 -71.5t-66.5 -27.5q-36 0 -57 22t-15 68zM1044 1552q6 43 33.5 69t67.5 26h2q38 0 59.5 -24.5t16.5 -61.5q-6 -44 -40 -71.5t-67 -27.5q-36 0 -57.5 22t-14.5 68z" />
<glyph unicode="&#x2c6;" horiz-adv-x="905" d="M385 1018q187 177 309 375l27 10q6 -67 39 -172t98 -217l-16 -17q-84 82 -170 238q-155 -159 -273 -238z" />
<glyph unicode="&#x2dc;" horiz-adv-x="905" d="M399 1051q5 40 15.5 74.5t28 66.5t47 51t67.5 19q32 0 59.5 -14t73.5 -50q52 -39 73.5 -51t39.5 -12q34 0 55 31.5t31 105.5l26 -8q-4 -87 -41 -153.5t-108 -66.5q-32 0 -62 16.5t-79 55.5l-15 12t-14 11t-12.5 9t-13 8t-12 6t-13 5.5t-12.5 2.5t-15 1q-72 0 -94 -127z " />
<glyph unicode="&#x2000;" horiz-adv-x="872" />
<glyph unicode="&#x2001;" horiz-adv-x="1745" />
<glyph unicode="&#x2002;" horiz-adv-x="872" />
<glyph unicode="&#x2003;" horiz-adv-x="1745" />
<glyph unicode="&#x2004;" horiz-adv-x="581" />
<glyph unicode="&#x2005;" horiz-adv-x="436" />
<glyph unicode="&#x2006;" horiz-adv-x="290" />
<glyph unicode="&#x2007;" horiz-adv-x="290" />
<glyph unicode="&#x2008;" horiz-adv-x="218" />
<glyph unicode="&#x2009;" horiz-adv-x="349" />
<glyph unicode="&#x200a;" horiz-adv-x="96" />
<glyph unicode="&#x2010;" horiz-adv-x="581" d="M72 403l37 91q213 -6 446 0l-35 -91q-235 9 -448 0z" />
<glyph unicode="&#x2011;" horiz-adv-x="581" d="M72 403l37 91q213 -6 446 0l-35 -91q-235 9 -448 0z" />
<glyph unicode="&#x2012;" horiz-adv-x="581" d="M72 403l37 91q213 -6 446 0l-35 -91q-235 9 -448 0z" />
<glyph unicode="&#x2013;" horiz-adv-x="1056" d="M80 403l39 89q129 -3 442.5 -3t454.5 3l-35 -89q-138 5 -453.5 5t-447.5 -5z" />
<glyph unicode="&#x2014;" horiz-adv-x="2054" d="M94 403l37 89q132 -3 929.5 -3t940.5 3l-37 -89q-137 5 -938.5 5t-931.5 -5z" />
<glyph unicode="&#x2018;" horiz-adv-x="339" d="M289 1182q9 107 97 182t192 78l2 -21q-81 -10 -145 -59.5t-81 -142.5q43 26 82 26q31 0 49.5 -21t16.5 -53q-3 -49 -37.5 -79.5t-79.5 -30.5q-48 0 -73.5 33.5t-22.5 87.5z" />
<glyph unicode="&#x2019;" horiz-adv-x="337" d="M250 1071q79 7 143.5 59t83.5 144q-34 -27 -80 -27q-32 0 -51 20t-18 54q1 48 38 78.5t83 30.5q47 0 73 -33t23 -90q-7 -103 -96.5 -179t-194.5 -81z" />
<glyph unicode="&#x201a;" horiz-adv-x="350" d="M-96 -178q85 8 154 63.5t92 155.5q-39 -31 -89 -31q-34 0 -55 22.5t-18 57.5q3 53 41.5 86t87.5 33q52 0 79.5 -35.5t22.5 -95.5q-7 -112 -103.5 -194t-207.5 -85z" />
<glyph unicode="&#x201c;" horiz-adv-x="638" d="M293 1184q7 103 96 179t193 79l2 -21q-51 -5 -96 -27t-81.5 -67.5t-48.5 -107.5q43 26 80 26q32 0 52 -21t18 -53q-3 -49 -39.5 -79.5t-81.5 -30.5q-49 0 -74 33.5t-20 89.5zM586 1182q7 104 95 180.5t191 79.5l5 -21q-79 -8 -143 -59t-83 -143q39 26 82 26q31 0 50 -21 t16 -53q-3 -49 -39 -79.5t-82 -30.5t-71 33t-21 88z" />
<glyph unicode="&#x201d;" horiz-adv-x="638" d="M256 1071q77 7 142 59t85 144q-39 -27 -82 -27q-33 0 -51 20t-16 54q1 48 38 78.5t83 30.5t70.5 -33t21.5 -90q-7 -103 -96 -179t-193 -79zM547 1071q79 7 143.5 59t83.5 144q-39 -27 -80 -27q-32 0 -51 20t-18 54q3 47 39 78t79 31q49 0 75.5 -32.5t21.5 -88.5 q-7 -104 -96.5 -180.5t-194.5 -79.5z" />
<glyph unicode="&#x201e;" horiz-adv-x="643" d="M-90 -164q80 8 143.5 59t85.5 144q-40 -29 -82 -29q-33 0 -52.5 20.5t-16.5 55.5q3 46 39.5 77.5t81.5 31.5q47 0 72.5 -33t21.5 -88q-7 -104 -96.5 -180.5t-192.5 -79.5zM203 -164q79 8 143 59t84 144q-37 -29 -82 -29q-32 0 -52 21t-17 55q1 46 38.5 77.5t83.5 31.5 q47 0 72.5 -32.5t22.5 -88.5q-7 -104 -96.5 -180.5t-194.5 -79.5z" />
<glyph unicode="&#x2022;" horiz-adv-x="581" d="M145 432q5 79 56.5 134t134.5 55q69 0 106.5 -51t34.5 -121q-4 -82 -57 -131.5t-127 -49.5h-2q-64 0 -106.5 45t-39.5 119z" />
<glyph unicode="&#x2026;" horiz-adv-x="1337" d="M45 78q3 53 37.5 90t85.5 37q45 0 71 -34t23 -79q-3 -56 -37.5 -88.5t-85.5 -32.5h-2q-38 0 -65.5 28.5t-26.5 78.5zM489 78q3 53 37.5 90t85.5 37q46 0 73 -34t24 -79q-3 -55 -38.5 -88t-86.5 -33h-2q-37 0 -65.5 29t-27.5 78zM936 78q3 53 37.5 90t85.5 37q47 0 73 -34 t23 -79q-3 -55 -38.5 -88t-86.5 -33h-2q-38 0 -66.5 29t-25.5 78z" />
<glyph unicode="&#x202f;" horiz-adv-x="349" />
<glyph unicode="&#x2039;" horiz-adv-x="600" d="M117 438l20 23q109 35 228 130t202 222l15 -20q-25 -54 -67.5 -113.5t-71 -91.5t-81.5 -87t-57 -59q39 -70 73.5 -178t35.5 -188l-19 -17q-31 139 -115 248.5t-163 130.5z" />
<glyph unicode="&#x203a;" horiz-adv-x="600" d="M49 84q75 154 277 350q-39 70 -73.5 177t-37.5 188l21 16q30 -137 114 -247.5t164 -131.5l-20 -22q-108 -33 -227 -129t-204 -224z" />
<glyph unicode="&#x205f;" horiz-adv-x="436" />
<glyph unicode="&#x20ac;" horiz-adv-x="1107" d="M72 575l26 41h109q4 14 11 48t11 49h-90l23 41h82q31 97 72.5 180t99.5 156.5t127 126t158.5 82.5t189.5 30q93 0 154.5 -29t89.5 -77l57 88l20 -8q-79 -209 -106 -363l-27 -4q15 63 11 127.5t-21 116.5t-60.5 85t-107.5 33q-308 0 -469 -544h547l-27 -41h-532 q-15 -44 -23 -97h490l-27 -41h-471q-12 -110 -12 -176q0 -366 256 -366q116 0 203 59t170 199l20 -25q-87 -154 -195 -223.5t-278 -69.5q-80 0 -143.5 21.5t-105 59t-69 91.5t-39.5 116t-12 136q0 79 15 178h-127z" />
<glyph unicode="&#x2122;" horiz-adv-x="585" d="M238 1165q2 16 4.5 43.5t3.5 32.5q24 -4 82 -4h30q79 0 91 4l-1 -13q-2 -14 -3 -27t1 -30l-10 -6q-2 39 -10 47q-7 13 -61 11v-84q0 -17 0.5 -31.5t1 -22.5t0.5 -10q0 -6 6 -7t37 -3l-2 -12q-7 0 -31 1t-39 1q-3 0 -22.5 -1t-32.5 -1l-2 12q14 1 21.5 1.5t11.5 2t4.5 2.5 t0.5 4q5 25 5 66v82q-19 0 -30.5 -1.5t-19 -2.5t-11 -7t-5 -9.5t-4 -16.5t-4.5 -21h-12zM453 1053v12q18 1 24 2t10 4.5t5 11.5q12 118 10 131v5q0 4 -10 4l-25 2l2 14q23 -2 41 -2q27 0 37 2q15 -43 67 -129q60 101 68 129q20 -2 37 -2q9 0 21 1t18 1l2 -14q-31 -2 -31 -11 q-2 -3 -2 -30q0 -91 6 -109q0 -6 5.5 -7t27.5 -3v-12q-10 2 -57 2q-44 0 -54 -2v12q21 1 26 3.5t7 8.5q0 70 2 142h-2q-58 -119 -82 -162l-12 -4q-8 20 -39 81t-39 80h-2q-4 -49 -4 -127q2 -18 12 -20l23 -2l-2 -12q-7 0 -23 1t-26 1t-24 -1t-17 -1z" />
<glyph unicode="&#xe000;" horiz-adv-x="901" d="M0 0v901h901v-901h-901z" />
</font>
</defs>
</svg>
