<?xml version="1.0" standalone="no"?>
<!DOCTYPE svg PUBLIC "-//W3C//DTD SVG 1.1//EN" "http://www.w3.org/Graphics/SVG/1.1/DTD/svg11.dtd" >
<svg xmlns="http://www.w3.org/2000/svg">
<metadata></metadata>
<defs>
<font id="KeplerStdBold" horiz-adv-x="1060" >
<font-face units-per-em="2048" ascent="1434" descent="-614" />
<missing-glyph horiz-adv-x="413" />
<glyph unicode="&#xfb01;" horiz-adv-x="1241" d="M39 -6l2 63q78 1 100 11t27 43q8 110 8 284v402l-133 10l8 65h129v33q0 204 113 320q144 151 391 151q173 0 264.5 -61.5t91.5 -163.5q0 -62 -43.5 -103.5t-119.5 -41.5q-53 0 -84.5 25t-30.5 69q1 7 6.5 39.5t5.5 50.5q0 113 -127 113q-55 0 -93 -36t-52 -93 q-27 -119 -27 -302h213q270 0 406 29q-9 -106 -9 -330v-237q0 -130 7 -209q2 -40 22 -52t96 -16l-2 -63q-38 0 -129 3t-151 3q-76 0 -156 -3t-102 -3v63q63 1 86 15t26 47q6 111 6 227v197q0 149 -8 215q-6 39 -80 39h-227v-346q0 -230 6 -314q1 -49 22 -63t91 -17l-4 -63 q-29 0 -112 3t-126 3q-53 0 -160.5 -3t-150.5 -3z" />
<glyph unicode="&#xfb02;" horiz-adv-x="1241" d="M39 -6l2 63q75 1 99.5 12t27.5 42q8 110 8 284v400l-133 10l6 67h129v43q0 220 124.5 340.5t338.5 120.5q137 0 219 -49q129 24 234 39q0 -3 -4.5 -133.5t-4.5 -282.5v-495q0 -277 2 -328q3 -44 23 -55.5t102 -14.5v-63q-43 0 -169 3t-164 3q-39 0 -114.5 -3t-100.5 -3 v63q65 0 87 16t25 64q12 123 12 369v536q0 124 -22 166q-43 97 -141 97q-43 0 -75.5 -26.5t-45.5 -76.5q-29 -98 -29 -330h207l-14 -67l-195 -12v-336q0 -238 4 -320q3 -49 25 -63t94 -17l-6 -63q-28 0 -110.5 3t-129.5 3q-60 0 -169.5 -3t-141.5 -3z" />
<glyph unicode="&#xfb03;" horiz-adv-x="1855" d="M39 -6l4 63q78 1 100.5 10.5t24.5 38.5q8 118 8 289v400l-129 12l6 65h127v48q0 174 111 288q135 142 371 142q87 0 158.5 -28.5t109.5 -68.5q136 123 366 123q174 0 266.5 -62.5t92.5 -166.5q0 -62 -43.5 -102.5t-120.5 -40.5q-54 0 -85 22.5t-30 65.5q0 13 4 43t4 47 q0 121 -124 121q-51 0 -87.5 -33t-52.5 -86q-30 -103 -30 -312h210q269 0 408 29q-8 -94 -8 -330v-235q0 -144 6 -211q3 -40 23 -52t94 -16v-63q-40 0 -130.5 3t-150.5 3q-75 0 -153 -3t-101 -3l2 63q62 1 83 14.5t24 45.5q6 117 6 227v197q0 149 -8 215q-6 39 -80 39h-228 q0 -34 -1 -139t-1 -171q0 -207 7 -350q3 -48 25 -60.5t102 -17.5l-7 -63q-40 0 -118 3t-123 3q-51 0 -161 -3t-136 -3l2 63q62 1 81.5 11t22.5 38q8 79 8 287v402h-313q0 -37 -1 -141.5t-1 -172.5q0 -278 6 -352q3 -45 23.5 -57t95.5 -15l-6 -63q-22 0 -96 3t-121 3 q-49 0 -172 -3t-164 -3zM477 872h314q3 140 36 232q-16 68 -66.5 121t-115.5 53q-49 0 -86.5 -29t-54.5 -86q-30 -91 -27 -291z" />
<glyph unicode="&#xfb04;" horiz-adv-x="1855" d="M41 -6l4 63q76 0 98.5 9.5t24.5 39.5q8 118 8 291v400l-131 12l8 65h127v41q0 86 29 163t82 130q137 140 375 140q158 0 260 -88q125 116 323 116q142 0 226 -51q22 4 58.5 10t89.5 15.5t87 15.5q-10 -265 -10 -416v-493q0 -279 2 -328q3 -46 22.5 -57.5t102.5 -14.5 l-2 -63q-43 0 -169.5 3t-164.5 3t-113.5 -3t-99.5 -3l-2 63q66 0 89 16.5t28 63.5q10 205 10 369v524q0 120 -21 172q-18 46 -55.5 74.5t-89.5 28.5q-43 0 -76.5 -26t-46.5 -73q-27 -100 -27 -332h211l-16 -69l-195 -10q0 -34 -1 -139t-1 -171q0 -224 9 -350q3 -47 24 -61 t96 -17l-8 -63q-29 0 -120.5 3t-145.5 3q-57 0 -154.5 -3t-119.5 -3l4 63q66 3 87.5 13.5t24.5 38.5q6 88 6 284v404h-313q0 -40 -1 -144t-1 -170q0 -278 4 -348q3 -50 23.5 -63.5t99.5 -14.5l-6 -63q-22 0 -97 3t-122 3q-50 0 -173 -3t-161 -3zM475 874h316q3 149 32 234 q-15 63 -64.5 115.5t-113.5 52.5q-104 0 -141 -113q-29 -76 -29 -289z" />
<glyph horiz-adv-x="0" />
<glyph horiz-adv-x="2048" />
<glyph unicode=" "  horiz-adv-x="413" />
<glyph unicode="&#x09;" horiz-adv-x="413" />
<glyph unicode="&#xa0;" horiz-adv-x="413" />
<glyph unicode="!" horiz-adv-x="557" d="M76 1135q0 54 39 105t86 78.5t80 27.5h2q64 0 132 -70t68 -141q0 -67 -45 -172q-121 -304 -121 -500h-75q0 196 -121 500q-45 105 -45 172zM119 147q0 73 49.5 122.5t120.5 49.5q70 0 119 -50t49 -124q0 -75 -48.5 -124.5t-123.5 -49.5h-2q-67 0 -115.5 50.5t-48.5 125.5 z" />
<glyph unicode="&#x22;" horiz-adv-x="772" d="M76 1374q26 21 89.5 47.5t102.5 26.5h2q34 0 54 -44.5t20 -84.5q0 -75 -44 -206.5t-85 -223.5l-57 2q-12 134 -36.5 279.5t-45.5 203.5zM432 1374q24 20 89 47t104 27h2q35 0 54 -44t19 -85q0 -128 -129 -430l-59 2q-11 131 -35 276.5t-45 206.5z" />
<glyph unicode="#" horiz-adv-x="1026" d="M59 383q20 62 41 184q16 0 40 -0.5t68 -1.5t85 -2l53 213q-83 2 -219 -2q29 84 43 182q43 -2 219 -2q17 65 60 254l92 6q-21 -55 -76 -260h213q38 148 59 254l94 6q-30 -84 -75 -260q153 0 196 2q-31 -90 -49 -184q-35 2 -190 2l-51 -209q206 4 217 4q-16 -35 -48 -186 q-109 0 -213 2q-9 -39 -61 -287l-94 -8q19 62 78 295h-215q-46 -183 -68 -287l-92 -12q12 38 84 299q-30 -1 -90.5 -1t-100.5 -1zM371 563h213l53 213h-215z" />
<glyph unicode="$" d="M92 82q24 133 31 385l57 8q0 -178 77.5 -271.5t209.5 -107.5l20 387q-19 9 -72.5 33.5t-88.5 41.5t-60 32q-157 96 -157 280q0 169 116 263.5t305 97.5l9 153l82 13l-13 -168q63 -4 125.5 -24t95.5 -44l39 78l50 -14q-41 -203 -37 -394l-58 3q-6 133 -62 218.5 t-159 106.5l-24 -373q34 -15 86 -38.5t74 -33.5t51.5 -24.5t46 -24.5t30.5 -20q119 -83 119 -246q0 -145 -96 -241q-123 -120 -348 -129l-4 -174l-88 -17l12 191q-41 1 -81 4.5t-85.5 11t-67 11t-75 14.5t-60.5 12zM326 999q0 -65 44.5 -103t139.5 -81l16 352 q-99 -4 -149.5 -50.5t-50.5 -115.5v-2zM543 94q89 3 151 46t62 120v2q0 30 -10 54.5t-22.5 41t-42.5 35.5t-52 30t-70 34z" />
<glyph unicode="%" horiz-adv-x="1548" d="M78 899q-1 174 97 274.5t239 100.5q75 0 135 -31l37 27q36 -44 111 -77.5t165 -33.5q64 0 116.5 10.5t84 27.5t49 31t27.5 27q7 8 57 84l125 11q-31 -44 -173.5 -245t-254.5 -360.5t-270 -389.5t-277 -412l-74 57q238 321 807 1149q-118 -64 -260 -64q-39 0 -88 8t-76 19 q33 -81 33 -184q0 -169 -83 -272t-224 -103q-138 0 -220.5 88.5t-82.5 257.5zM307 909q0 -83 14 -149t37 -94q34 -39 82 -39q60 0 106 75.5t46 229.5q0 47 -6.5 89.5t-21.5 85.5t-46.5 69t-75.5 26h-2q-50 0 -78 -39q-53 -75 -55 -254zM860 350q0 178 95.5 278.5 t232.5 100.5h2q76 0 132.5 -28t88.5 -78t47 -111t15 -135q0 -167 -81.5 -268t-224.5 -101q-141 0 -224 88t-83 254zM1092 367q0 -188 55 -250q25 -35 78 -35q63 0 109 76.5t46 222.5q0 46 -6.5 89.5t-21.5 88.5t-46 72.5t-75 27.5h-2q-54 0 -84 -43q-21 -30 -37 -94 t-16 -155z" />
<glyph unicode="&#x26;" horiz-adv-x="1546" d="M86 326q0 64 21 115t63 88.5t79 61t95 54.5q18 9 27 14q-123 156 -123 299q0 145 105.5 236.5t281.5 91.5q167 0 263.5 -80.5t96.5 -195.5q0 -64 -29 -107t-85 -78q-60 -40 -193 -100q162 -187 273 -301q91 205 100 223q57 118 111.5 177t127.5 59q61 0 90 -33.5 t29 -81.5q0 -42 -26.5 -79t-63.5 -25q-28 14 -53 14q-39 0 -72 -23t-69 -77q-26 -36 -119 -203q144 -150 251.5 -228.5t196.5 -78.5l-4 -62q-158 -43 -323 -43q-75 0 -143.5 39.5t-153.5 130.5q-135 -166 -348 -166q-96 0 -166.5 21t-126.5 71q-52 44 -82.5 113.5 t-30.5 153.5zM362 436q0 -131 77 -228t196 -97q97 0 149 71q-208 216 -368 420q-54 -68 -54 -164v-2zM502 1051q0 -119 135 -275q133 98 133 248q0 85 -38 141t-103 56h-2q-57 0 -91 -44.5t-34 -125.5z" />
<glyph unicode="'" horiz-adv-x="411" d="M76 1374q26 21 90.5 47.5t103.5 26.5h2q35 0 55.5 -44.5t20.5 -84.5q0 -75 -44 -205t-87 -225l-55 2q-14 133 -39.5 278t-46.5 205z" />
<glyph unicode="(" horiz-adv-x="747" d="M96 537v2q0 466 260 741q124 130 273 195l30 -60q-208 -111 -262 -411q-30 -171 -30 -472q0 -290 30 -469q56 -311 262 -411l-30 -64q-158 74 -273 199q-260 272 -260 750z" />
<glyph unicode=")" horiz-adv-x="747" d="M90 -352q207 113 260 415q31 160 31 467q0 309 -31 471q-53 304 -260 412l31 62q150 -71 270 -197q260 -273 260 -750v-2q0 -470 -260 -741q-119 -129 -270 -197z" />
<glyph unicode="*" horiz-adv-x="866" d="M72 969q-3 33 9 72.5t46 43.5q13 1 105 -16t141 -10l6 -43q-46 -13 -118.5 -70t-88.5 -59q-32 -5 -62 27t-38 55zM144.5 1249.5q4.5 27.5 14.5 48.5t19 31q11 10 32 19.5t50 10t45 -19.5q8 -10 39.5 -98t61.5 -127l-33 -31q-33 33 -119.5 70t-97.5 51q-16 18 -11.5 45.5z M254 807q4 11 65 80t80 119l41 -15q-11 -45 2 -137.5t7 -108.5q-12 -31 -55 -40.5t-66 -2.5q-25 7 -56 39.5t-18 65.5zM420 1366q12 30 54.5 39t68.5 4q26 -11 55 -41t16 -63q-5 -12 -64.5 -80t-78.5 -115l-43 10q11 48 5.5 92t-12 92t-1.5 62zM465 1004l33 28 q31 -34 117.5 -69.5t97.5 -49.5q16 -19 12 -46t-14.5 -49t-20.5 -30q-10 -10 -32 -20t-50 -10t-43 20q-8 9 -37 98.5t-63 127.5zM494 1096q36 11 79 42t77 58t50 29q32 5 63.5 -28.5t35.5 -55.5q5 -26 -7.5 -68.5t-48.5 -46.5q-14 -2 -104.5 16t-140.5 11z" />
<glyph unicode="+" horiz-adv-x="1091" d="M109 418v123h372v370h133v-370h371v-123h-371v-410h-133v410h-372z" />
<glyph unicode="," horiz-adv-x="518" d="M72 -215q107 21 178.5 88t71.5 156q0 10 -6 12t-13 -4q-33 -23 -84 -23q-54 0 -94 42t-39 112q0 66 48 115t114 49q91 0 140.5 -67t49.5 -175q0 -86 -34 -156t-88 -112.5t-113.5 -66.5t-116.5 -27z" />
<glyph unicode="-" horiz-adv-x="684" d="M78 391l26 160q239 -6 504 0l-24 -160q-264 9 -506 0z" />
<glyph unicode="." horiz-adv-x="518" d="M90 147q0 75 49 126t121 51h2q72 0 119 -51t47 -126q0 -76 -49 -126t-119 -50q-72 0 -121 49t-49 127z" />
<glyph unicode="/" horiz-adv-x="858" d="M84 -184q28 71 70 186.5t113.5 316.5t103.5 291q124 345 295 832l118 -35q-22 -48 -123 -322t-182 -510q-268 -772 -274 -788z" />
<glyph unicode="0" d="M53 616q0 180 52.5 327.5t158.5 234.5q121 98 281 98h2q183 0 299 -119q80 -83 121 -218.5t41 -299.5q0 -215 -55 -360t-150 -220q-112 -90 -283 -90q-178 0 -295 105q-172 164 -172 542zM373 637q0 -325 51 -479q39 -119 115 -119q38 0 63 28.5t45 88.5q45 142 45 465 q0 346 -49 483q-19 52 -42.5 77t-63.5 25h-2q-36 0 -60 -23t-45 -75q-57 -154 -57 -471z" />
<glyph unicode="1" d="M170 55l152 17q36 3 49.5 14.5t15.5 36.5q6 153 6 287v415q0 181 -4 295q-3 31 -27 31q-112 -6 -165 -8l14 67q138 14 294.5 35t196.5 33l11 -8q0 -21 -3 -153t-3 -251v-444q0 -199 6 -301q2 -25 11 -36.5t34 -14.5l151 -15l4 -61q-77 0 -207 3t-182 3q-58 0 -174.5 -3 t-171.5 -3z" />
<glyph unicode="2" d="M53 14q23 69 64 168q199 119 310.5 247t150.5 273q26 109 26 252q0 111 -36.5 180.5t-108.5 69.5q-135 0 -135 -184q0 -30 14 -107q10 -50 -32 -84t-99 -34q-59 0 -97 38.5t-38 112.5q0 121 114 221q58 50 146.5 79.5t185.5 29.5q89 0 164 -21.5t121 -54.5 q139 -104 139 -309q0 -95 -34.5 -166t-106.5 -137q-30 -28 -83 -69t-94 -71t-141.5 -102t-148.5 -106q414 8 514 22q41 3 59 45q24 58 43 119l62 -25q-21 -67 -37.5 -154.5t-24.5 -151t-10 -105.5q-165 10 -637 10q-181 0 -240 -4z" />
<glyph unicode="3" d="M66 205q0 56 44 95.5t105 39.5q63 0 86 -84q26 -120 66.5 -169.5t111.5 -49.5q83 0 125.5 80t42.5 215t-48.5 205.5t-170.5 70.5q-49 0 -92 -14l-39 57l6 17q152 18 215 84q88 74 88 221q0 97 -38 163t-113 66q-67 0 -102.5 -43t-35.5 -123q0 -15 5.5 -48.5t2 -54 t-21.5 -36.5q-36 -31 -88 -31q-55 0 -88 33t-33 96q0 47 28 95.5t80 90.5t137.5 68.5t188.5 26.5h2q56 0 110.5 -9.5t106.5 -31.5t91.5 -54.5t63.5 -82.5t24 -111q0 -147 -140 -221q-70 -38 -237 -82v-10q232 -15 336 -90q112 -78 112 -226q0 -172 -139 -280 q-64 -50 -168 -79.5t-221 -29.5q-178 0 -290.5 66t-112.5 170z" />
<glyph unicode="4" d="M27 438q95 141 289 420.5t235 343.5q184 37 280 78l15 -6q-10 -205 -10 -696v-134q21 0 40.5 1.5t34 2.5t31 4t25 4.5t23 5.5t18 5t17.5 5.5t15 4.5l-2 -61q-72 -50 -202 -62q0 -50 2 -169t2 -185q-205 0 -320 -27l-12 11q7 85 14 362q-154 0 -291 10t-186 23zM162 473 q31 -13 137.5 -23t224.5 -10q9 193 15 625q-281 -423 -377 -592z" />
<glyph unicode="5" d="M76 199q0 59 44.5 96t104.5 37q63 0 86 -84q27 -111 66 -161t104 -50q79 0 121.5 81t42.5 234q0 133 -51 211t-160 78q-151 0 -239 -137l-56 55q31 107 57.5 366t24.5 332q87 -28 328 -28q186 0 271.5 16t127.5 68l37 -35q-23 -82 -69 -154.5t-101 -101.5 q-88 -57 -278 -57q-170 0 -252 20q-23 -201 -58 -354q64 50 158.5 85.5t189.5 35.5q187 0 298.5 -86.5t111.5 -264.5q0 -150 -82 -258q-61 -81 -171 -127.5t-259 -46.5q-175 0 -286 64t-111 166z" />
<glyph unicode="6" d="M55 508q0 392 250 610q187 160 463 160q79 0 135 -18l4 -74q-29 10 -90 10q-131 0 -229.5 -76t-150 -196t-60.5 -269q142 146 291 146q159 0 250.5 -102t91.5 -269q0 -195 -117 -319q-58 -64 -149.5 -102t-206.5 -38q-198 0 -316 101q-80 65 -123 180t-43 256zM373 430 q0 -65 7 -125.5t24 -123.5t51.5 -101.5t83.5 -38.5q47 0 79 33t46.5 88.5t20 106.5t5.5 110q0 101 -24 180q-17 49 -49 81t-76 32h-2q-95 0 -146 -109q-20 -47 -20 -133z" />
<glyph unicode="7" d="M82 811q33 96 51 250t12 209q86 -23 430 -23q355 0 404 4l10 -16q-2 -8 -12 -44t-14.5 -53.5t-15.5 -53t-20 -59.5t-22.5 -54.5t-27.5 -55.5q-72 -133 -121.5 -234.5t-99 -225.5t-74.5 -242t-25 -229l-12 -13q-120 -7 -199 27q-57 25 -57 84q0 33 33 115q39 94 145 248 t214 306.5t146 237.5q-92 8 -309 8q-132 0 -196.5 -7t-87.5 -19.5t-37 -40.5q-32 -66 -56 -137z" />
<glyph unicode="8" d="M78 289q0 111 82 182q16 14 35.5 27.5t35 23.5t44.5 28t51 32q-104 68 -153.5 141t-49.5 174q0 143 84 244q53 61 143 99t205 38h2q71 0 136 -20t117 -57t83 -96.5t31 -133.5q0 -90 -66 -148q-48 -45 -149 -106q113 -63 174.5 -122.5t81.5 -113.5t20 -129 q0 -119 -69 -207.5t-175.5 -131t-230.5 -42.5q-197 0 -314.5 83.5t-117.5 234.5zM293 330q0 -118 66 -203.5t188 -85.5h2q82 0 131 49t49 133q0 53 -25 94.5t-99 96.5t-218 135q-94 -77 -94 -219zM352 1034q0 -87 70 -145q16 -13 35 -26.5t49 -31t43.5 -25t55 -29.5 t46.5 -25q84 74 84 206q0 106 -55.5 178t-155.5 72h-2q-73 0 -121.5 -48t-48.5 -126z" />
<glyph unicode="9" d="M55 829q0 167 105 291q135 156 372 156q200 0 314 -111q160 -149 160 -456q0 -190 -65.5 -342.5t-174.5 -247.5q-92 -78 -207 -114t-229 -36q-77 0 -156 17v69q97 -10 186 19q100 27 171.5 105.5t106.5 180.5t44 228q-64 -60 -137 -94.5t-139 -34.5q-165 0 -258 99 t-93 271zM373 879q0 -123 42.5 -209t119.5 -86q82 0 127 82q21 44 24 157q1 103 -14 187.5t-41 128.5q-44 67 -107 67h-2q-77 0 -114 -100q-35 -93 -35 -227z" />
<glyph unicode=":" horiz-adv-x="516" d="M92 143q0 71 49 120.5t119 49.5h2q71 0 117.5 -48.5t46.5 -121.5q0 -74 -49 -123t-119 -49q-69 0 -117.5 48t-48.5 124zM94 702q0 71 50 120.5t118 49.5h2q72 0 119 -49t47 -121q0 -73 -49 -121.5t-119 -48.5q-69 0 -118.5 48.5t-49.5 121.5z" />
<glyph unicode=";" horiz-adv-x="518" d="M76 -213q107 21 177.5 85.5t70.5 152.5q0 9 -6 10.5t-13 -4.5q-35 -21 -82 -21q-54 0 -93.5 42t-39.5 110q2 65 49 112.5t113 47.5q88 0 137 -66t49 -172q0 -68 -22.5 -126.5t-58.5 -98t-82.5 -69t-92.5 -44t-90 -16.5zM90 702q0 72 49 121t119 49h2q70 0 117 -49 t47 -121q0 -73 -49 -121.5t-119 -48.5q-69 0 -117.5 48t-48.5 122z" />
<glyph unicode="&#x3c;" horiz-adv-x="1052" d="M145 414v141l764 412v-148l-630 -334v-4l630 -334v-147z" />
<glyph unicode="=" horiz-adv-x="1091" d="M106 227v123h877v-123h-877zM106 604v123h877v-123h-877z" />
<glyph unicode="&#x3e;" horiz-adv-x="1052" d="M145 0v147l629 334v4l-629 334v148l762 -412v-143z" />
<glyph unicode="?" horiz-adv-x="915" d="M78 1067q0 53 24.5 99.5t64.5 78.5t91.5 55.5t105.5 34.5t105 11q179 0 281 -97t102 -274q0 -148 -119 -227q-154 -107 -217 -162q-36 -30 -47 -56.5t0 -74.5l-59 -21q-120 134 -125 244q-3 71 61 135q26 26 69.5 65.5t94 83.5t55.5 48q47 44 47 102q0 82 -39.5 124 t-103.5 42q-60 0 -94.5 -38.5t-34.5 -92.5q0 -32 16 -86q9 -28 3 -45.5t-31 -36.5q-52 -39 -129 -39q-49 0 -85 32.5t-36 94.5zM285 147q0 73 49.5 122.5t120.5 49.5q70 0 119 -50t49 -124q0 -75 -48.5 -124.5t-123.5 -49.5h-2q-67 0 -115.5 50.5t-48.5 125.5z" />
<glyph unicode="@" horiz-adv-x="1605" d="M92 256q-1 177 57.5 334t165.5 276.5t271 189.5t362 70q141 0 252 -42t179.5 -115t103.5 -167t35 -202q0 -151 -60 -276t-170 -199t-246 -74q-48 0 -78 9.5t-45 26t-17 47.5t4 63.5t20 85.5q-59 -97 -144 -163.5t-186 -66.5q-70 0 -102.5 48.5t-32.5 127.5t29 169.5 t90 179.5t141 141q101 63 207 63q79 0 110 -67l15 47q3 0 80.5 -1t121.5 -1q-44 -126 -88 -295t-61 -262q-12 -66 29 -66q116 -3 204 130.5t88 318.5q0 212 -128 339.5t-359 127.5q-286 0 -453 -219q-97 -135 -138.5 -276t-41.5 -304q0 -242 105 -369q117 -135 319 -135 q131 0 233 47t187 142l29 -56q-189 -219 -523 -219q-262 0 -413.5 160t-151.5 432zM680 219q0 -25 9 -41t24 -16q46 0 101 56t97.5 133.5t65.5 152.5q21 62 35 123q-2 40 -20 65t-50 25q-29 0 -64 -23t-65 -69q-65 -104 -99 -212t-34 -192v-2z" />
<glyph unicode="A" horiz-adv-x="1302" d="M-35 -6l2 63q86 8 123 31.5t68 99.5q43 115 164.5 471t162.5 482q28 92 33 133q54 0 155 12t132 29q88 -314 205 -704.5t159 -491.5q10 -26 28 -38t50 -15l76 -9v-63q-183 6 -319 6q-144 0 -322 -6l2 63q86 9 105.5 21t11.5 51q-27 122 -90 346q-49 2 -185 2 q-131 0 -174 -2q-74 -247 -82 -297q-7 -26 -4.5 -45t9 -32t28.5 -21.5t54 -13.5t85 -9l-2 -63q-31 0 -107 3t-126 3q-31 0 -115.5 -3t-126.5 -3zM379 557q18 0 73.5 -1t86.5 -1q32 0 83.5 1t67.5 1q-16 62 -45.5 176.5t-53.5 207.5t-44 165q-129 -414 -168 -549z" />
<glyph unicode="B" horiz-adv-x="1302" d="M39 -6v63q98 5 128.5 15.5t31.5 42.5q10 138 10 313v483q0 206 -6 267q-2 25 -34.5 36t-127.5 15l-2 63q37 0 140 -3t159 -3q48 0 181.5 3t187.5 3q160 0 234 -16.5t128 -58.5q84 -70 84 -207q0 -97 -45.5 -159t-114.5 -95q-62 -29 -190 -54v-12q216 -23 307 -82 q117 -74 117 -239q0 -182 -146 -281q-131 -92 -440 -92q-51 0 -152 2t-151 2q-34 0 -149 -3t-150 -3zM532 379q0 -188 7 -281q4 -35 75 -35q146 0 205 91q49 74 49 223q0 147 -57.5 212.5t-198.5 65.5q-46 0 -80 -6v-270zM532 721q20 -2 80 -2q103 0 153 57.5t50 202.5 q0 122 -42 183t-152 61q-52 0 -66 -8t-14 -27q-9 -124 -9 -232v-235z" />
<glyph unicode="C" horiz-adv-x="1292" d="M82 623q0 348 223 546q178 150 447 150q241 0 354 -109l39 105l55 -19q-21 -167 -21 -313q0 -71 5 -137l-62 -8q-6 61 -20 116.5t-39.5 110.5t-60.5 94t-87.5 63.5t-115.5 24.5q-76 0 -129.5 -28.5t-98.5 -90.5q-57 -76 -88.5 -200.5t-31.5 -270.5q0 -114 20 -213 t61.5 -182.5t115 -131.5t171.5 -48q255 0 359 301l61 -37q-113 -381 -528 -381q-304 0 -466.5 175t-162.5 483z" />
<glyph unicode="D" horiz-adv-x="1443" d="M31 -6l2 63l88 6q40 3 56 16t18 40q12 129 12 350v410q0 212 -4 290q-1 29 -13 40t-40 14l-109 8l4 61q14 0 120.5 -3t170.5 -3q53 0 170.5 4t185.5 4q164 0 263 -21t169 -65q115 -70 177.5 -203.5t62.5 -320.5q0 -103 -19 -194t-58.5 -173.5t-107.5 -149t-161 -108.5 q-148 -63 -356 -63h-19q-55 0 -165 2t-165 2q-59 0 -164 -3t-118 -3zM530 469q0 -281 7 -367q2 -22 19.5 -31.5t66.5 -9.5q105 0 170.5 32.5t107.5 94.5q105 151 105 482q0 328 -109 452q-47 55 -107.5 79t-146.5 24q-46 0 -69 -6.5t-28.5 -14.5t-6.5 -24q-9 -131 -9 -312 v-399z" />
<glyph unicode="E" horiz-adv-x="1216" d="M27 -6l2 63l106 9q31 3 45 17.5t17 47.5q10 185 10 367v376q0 222 -6 304q-1 24 -16 34t-50 13l-96 6v61q29 0 162.5 -3t193.5 -3h367q201 0 301 14q-10 -66 -10 -227q0 -69 2 -155l-60 -7q-25 129 -67 203q-38 66 -89.5 85.5t-193.5 19.5h-65q-39 0 -39 -35 q-11 -173 -11 -301v-181q25 -2 99 -2q108 0 151.5 43t61.5 150h55q-12 -107 -14 -256v-57q0 -109 6 -177l-60 3q-9 61 -18 95t-30 67t-59 47t-97 14q-70 0 -95 -4v-142q0 -236 7 -362q1 -21 8.5 -30.5t34 -15t82.5 -5.5q126 0 185 12.5t109 54.5q48 39 87 115.5t61 153.5 l57 -15q-1 -38 -24.5 -197.5t-32.5 -201.5q-180 8 -445 8h-253q-68 0 -206.5 -3t-172.5 -3z" />
<glyph unicode="F" horiz-adv-x="1148" d="M33 57l102 11q57 6 62 51q10 108 10 338v415q0 250 -6 299q-3 47 -43 50l-115 8l-6 63q24 0 157 -3t209 -3h289q253 0 391 14q-16 -138 -16 -291q0 -51 2 -104l-57 -2q-20 127 -60 203q-21 41 -51 64.5t-87 36t-150 12.5h-86q-36 0 -41 -29q0 -4 -1.5 -40.5t-3.5 -105.5 t-2 -151v-213q23 -4 111 -4q58 0 93.5 7t63.5 28t43.5 59.5t24.5 101.5l60 -4q-10 -92 -10 -247v-16q0 -166 10 -230h-62q-9 47 -15.5 75t-18 57t-26 44t-38 28.5t-54.5 18t-75 4.5q-89 0 -107 -4v-188q0 -142 7 -279q3 -28 15 -42t40 -17q11 -1 57 -7t78 -8l-6 -63 q-32 0 -157.5 3t-188.5 3q-68 0 -190 -3t-146 -3z" />
<glyph unicode="G" horiz-adv-x="1421" d="M80 633q0 187 70 333.5t204 237.5q87 60 189.5 87.5t244.5 27.5q125 0 221 -33t138 -74l43 107l55 -16q-14 -68 -25 -207q-6 -83 -6 -158q0 -50 3 -96h-64q-24 203 -115.5 306t-226.5 103q-85 0 -145 -32t-109 -111q-104 -164 -104 -467q0 -268 82 -432q87 -172 256 -172 q65 0 94.5 24.5t34.5 77.5q8 63 8 281q0 82 -15 105.5t-73 29.5l-103 8l-6 64q38 0 165.5 -3t172.5 -3q199 0 293 6l4 -60q-64 -9 -87 -22.5t-26 -44.5q-6 -59 -6 -209q0 -133 10 -228q-23 -4 -55.5 -13t-75.5 -21.5t-67 -18.5q-157 -43 -297 -43q-207 0 -341 53t-218 164 q-123 160 -123 449z" />
<glyph unicode="H" horiz-adv-x="1492" d="M39 -6v63q91 5 123 17t35 47q10 117 10 289v456q0 238 -2 299q-1 36 -32 48.5t-122 15.5l2 63q32 0 145 -3t152 -3q36 0 162.5 3t163.5 3l-4 -63q-79 -1 -104.5 -14.5t-28.5 -53.5q-9 -85 -9 -262v-186q47 -2 205 -2q148 0 228 2v215q0 104 -5 246q-1 31 -30 41.5 t-107 13.5v63q210 -6 301 -6q193 0 316 6v-63q-86 -3 -114.5 -14.5t-29.5 -45.5q-8 -132 -8 -278v-455q0 -223 8 -325q3 -29 31 -39t119 -15l-4 -63q-23 0 -138.5 3t-189.5 3q-134 0 -299 -6l2 63q80 5 109 17.5t32 46.5q7 157 7 285v227q-68 2 -234 2q-152 0 -199 -2v-227 q0 -198 7 -287q3 -35 32.5 -47t114.5 -15v-63q-37 0 -159 3t-185 3q-47 0 -149 -3t-152 -3z" />
<glyph unicode="I" horiz-adv-x="739" d="M41 -6l2 63q94 6 122.5 17.5t31.5 46.5q10 113 10 303v473q0 180 -4 266q-3 38 -32 49.5t-124 16.5l4 63q21 0 135 -3t183 -3q63 0 173.5 3t139.5 3v-63q-90 -6 -116 -16.5t-27 -43.5q-9 -101 -9 -272v-465q0 -192 9 -307q3 -39 30 -51t119 -17l-4 -63q-29 0 -143.5 3 t-184.5 3q-66 0 -177.5 -3t-137.5 -3z" />
<glyph unicode="J" horiz-adv-x="716" d="M-164 -299q0 39 38 79t71 40q21 0 32 -6.5t25 -26.5q66 -84 117 -84q65 0 74 135q13 175 16 633v426q0 148 -4 266q-2 27 -12 40.5t-37 17.5q-16 2 -56 5t-57 5l10 63q26 0 130 -4t177 -4q67 0 179.5 4t138.5 4l-2 -63l-74 -6q-36 -4 -47.5 -17t-13.5 -41 q-9 -126 -9 -839q0 -100 -18 -219q-11 -86 -47 -169t-92 -143q-76 -87 -176 -139.5t-201 -52.5q-72 0 -117 28.5t-45 67.5z" />
<glyph unicode="K" horiz-adv-x="1384" d="M37 -6l2 63q100 8 127.5 18.5t30.5 45.5q10 97 10 297v463q0 196 -4 286q-1 37 -28 47.5t-122 16.5l4 63q16 0 124.5 -3t180.5 -3q74 0 186 3t128 3l4 -63q-90 -6 -113 -15.5t-26 -44.5q-11 -140 -11 -288v-217q107 58 257 228.5t208 276.5q11 22 7 30.5t-25 10.5 l-121 17l18 65q32 0 112 -3t130 -3q67 0 238 6l4 -61q-156 -8 -221 -62q-25 -21 -65.5 -64t-75 -81.5t-94.5 -106t-93 -104.5q88 -160 233 -392t199 -296q33 -39 65.5 -51t112.5 -17l-10 -65q-49 3 -107 3q-158 0 -387 -20q-19 40 -321 574q-23 36 -36.5 51.5t-27.5 15.5 v-182q0 -86 9 -315q3 -37 27.5 -46.5t127.5 -17.5l-4 -63q-22 0 -140.5 3t-197.5 3q-70 0 -182.5 -3t-132.5 -3z" />
<glyph unicode="L" horiz-adv-x="1136" d="M29 -6l2 63l106 11q32 3 44.5 14t15.5 39q10 157 10 354v424q0 189 -4 275q-2 24 -13.5 35t-39.5 12l-103 8l4 63q17 0 142.5 -3t187.5 -3q54 0 158 3t161 3l7 -63l-107 -8q-31 -3 -44.5 -14.5t-14.5 -37.5q-11 -214 -11 -362v-350q0 -255 7 -348q2 -22 16.5 -31.5 t56.5 -9.5q135 0 197 14.5t102 62.5q72 83 121 279l64 -2q-6 -45 -14 -121t-16.5 -174.5t-12.5 -134.5q-55 6 -246 6q-121 2 -440 2q-49 0 -182.5 -3t-153.5 -3z" />
<glyph unicode="M" horiz-adv-x="1751" d="M16 -6l2 63q15 1 28 2.5t29 4.5t27 4q46 8 67.5 40.5t25.5 122.5q22 458 22 930l-6 29q-7 28 -55 31l-109 8l4 63q172 -6 305 -6q166 0 215 6q19 -57 75 -196t134.5 -331t122.5 -304q74 195 172.5 472t124.5 359q51 -6 213 -6q64 0 159.5 3t125.5 3l6 -63 q-23 -1 -69.5 -5t-57.5 -5q-36 -5 -39 -50q0 -7 1 -85.5t1 -159.5q0 -633 12 -783q3 -41 16 -55.5t44 -17.5l102 -11v-63q-165 6 -328 6q-25 0 -325 -6l4 63q88 6 115.5 21t29.5 57q10 156 29 1049h-2q-82 -236 -163.5 -484t-143.5 -441t-78 -241l-147 -30 q-33 112 -107.5 326.5t-170.5 480.5t-134 374h-4q0 -487 14 -956q3 -80 20.5 -107.5t71.5 -33.5l111 -15l-4 -63q-31 0 -119 3t-137 3q-51 0 -131 -3t-99 -3z" />
<glyph unicode="N" horiz-adv-x="1376" d="M16 -6l2 63q11 0 95 13q33 4 50 28t23 72q10 88 21.5 358t11.5 598q-12 45 -33 66.5t-69 28.5l-88 8v63q8 0 106 -3t162 -3q157 0 229 6q17 -30 105 -170q50 -82 487 -725v96q0 465 -18 640q-7 50 -31 68.5t-82 21.5l-94 6l10 63q52 0 138.5 -3t117.5 -3q34 0 110.5 3 t106.5 3l2 -61q-72 -12 -96 -17q-27 -6 -39 -21t-20 -50q-11 -58 -20 -238t-9 -405v-502q-37 0 -103.5 -7.5t-99.5 -15.5q-99 160 -368 576.5t-331 515.5q0 -765 17 -913q11 -70 74 -80q139 -17 141 -17l-4 -63q-36 0 -130.5 3t-153.5 3q-55 0 -128.5 -3t-91.5 -3z" />
<glyph unicode="O" horiz-adv-x="1439" d="M80 635q0 110 25 210t78 187t129 150.5t184 100t237 36.5h2q191 0 334 -85.5t217 -233.5t74 -338q0 -320 -165 -507.5t-474 -187.5q-158 0 -281 50t-201 140.5t-118.5 211.5t-40.5 266zM451 672q0 -163 25.5 -303t66.5 -209q72 -125 192 -125q123 0 185 125 q69 138 69 458q0 156 -20.5 290.5t-55.5 209.5q-36 68 -83.5 101.5t-114.5 33.5h-2q-119 0 -187 -127q-33 -61 -54 -179.5t-21 -274.5z" />
<glyph unicode="P" horiz-adv-x="1239" d="M29 -6v63l80 9q54 5 70.5 19t19.5 60q10 210 10 379v381q0 127 -6 262q-2 25 -12.5 37t-38.5 15l-123 10l16 63q15 0 118.5 -3t162.5 -3q49 0 170.5 4t195.5 4q156 0 238 -24t135 -72q106 -95 106 -278q0 -188 -108 -291q-122 -119 -330 -119q-89 0 -145 18l2 66 q42 -10 84 -10q29 0 57 15t43 40q53 87 53 266q0 190 -61 258q-51 60 -148 60q-46 0 -60.5 -7.5t-16.5 -29.5q-11 -162 -11 -312v-530q0 -76 7 -213q3 -32 18 -43t57 -16l117 -15l-4 -63q-39 0 -161.5 3t-211.5 3q-65 0 -174.5 -3t-148.5 -3z" />
<glyph unicode="Q" horiz-adv-x="1439" d="M82 621q0 147 42 272.5t122 221t206.5 150t286.5 54.5q284 0 452.5 -181.5t168.5 -486.5q0 -128 -28.5 -235.5t-75.5 -180t-110.5 -126.5t-128.5 -83t-136 -42v-9q14 -7 194 -84q209 -92 338 -92q8 -1 16 -1q40 0 84 12l5 -54q-61 -67 -153 -101t-183 -34q-99 0 -198 59 t-230 187q-57 55 -102.5 80t-112.5 41q-69 16 -131 44t-123 79.5t-105 119t-71 168.5t-27 222zM453 655q0 -158 26.5 -299.5t69.5 -210.5q73 -120 190 -120q60 0 101 26t75 86q35 70 54.5 203t19.5 297q0 332 -82 493q-65 123 -188 123h-2q-61 0 -102 -28.5t-78 -89.5 q-38 -65 -61 -193t-23 -287z" />
<glyph unicode="R" horiz-adv-x="1316" d="M33 1233l10 61q14 0 124 -4t167 -4q56 0 184 4t184 4q155 0 236.5 -21t130.5 -65q80 -72 80 -207q0 -79 -29 -138.5t-83 -97t-120.5 -59.5t-152.5 -34v-10q178 -23 263.5 -78.5t113.5 -165.5q29 -83 41 -266q9 -95 98 -95q19 0 51 4l-12 -63q-49 -18 -172 -18 q-155 0 -235.5 61t-90.5 197q-3 31 -7 95.5t-7 96.5q-9 116 -59.5 154.5t-167.5 38.5h-50v-195q0 -203 7 -303q1 -26 11 -37.5t40.5 -18.5t101.5 -12l-4 -63q-28 0 -143 3t-178 3q-75 0 -190 -3t-138 -3l4 63q95 7 125 19.5t33 44.5q8 90 8 315v414q0 238 -4 324 q-2 23 -14.5 34.5t-43.5 12.5zM530 690h50q125 0 178 67.5t53 211.5q0 121 -35 180q-45 78 -149 78q-20 0 -29.5 -0.5t-22.5 -3t-19 -7.5t-11 -14.5t-6 -23.5q-9 -112 -9 -291v-197z" />
<glyph unicode="S" horiz-adv-x="1069" d="M88 39q17 124 21 405l59 11q1 -114 38.5 -207t114.5 -151t181 -58q95 0 152 52.5t57 146.5q0 102 -84 159q-15 9 -149 85t-193 114q-181 113 -181 324q0 189 122 295t317 106q93 0 168.5 -23t113.5 -59l39 92l58 -12q-33 -172 -33 -416l-60 -10q-11 161 -86 259.5 t-188 98.5q-91 0 -140.5 -54t-49.5 -138q0 -126 116 -185q63 -36 143 -79t131.5 -72t86.5 -53q151 -98 151 -287q0 -107 -41 -188t-113.5 -130t-165.5 -73.5t-204 -24.5q-91 0 -196.5 21t-184.5 51z" />
<glyph unicode="T" horiz-adv-x="1245" d="M35 879q21 105 43 426q114 -19 436 -19h203q364 0 473 19q0 -2 -4.5 -49t-7.5 -95q-4 -49 -6 -123q-1 -41 -2 -79q0 -31 1 -60l-61 -18q-28 174 -82 266q-15 30 -37 45q-23 15 -73 23q-40 6 -106 6h-34q0 -19 -1 -107.5t-1 -148.5v-484q0 -246 8 -348q2 -31 13 -44.5 t39 -16.5q108 -14 141 -15l-6 -63q-15 0 -146.5 3t-228.5 3q-64 0 -181.5 -3t-162.5 -3l-6 63q23 1 63.5 7t65.5 8q34 3 51 15t18 40q9 153 9 352v471q0 222 -2 271q-93 0 -142.5 -10.5t-72 -29.5t-43.5 -61q-47 -85 -99 -254z" />
<glyph unicode="U" horiz-adv-x="1349" d="M39 1233v61q37 0 147.5 -4t169.5 -4q60 0 164.5 4t138.5 4l7 -63l-99 -10q-21 -1 -30.5 -13t-12.5 -37q-12 -119 -14 -371v-70q0 -206 8 -353q4 -107 22.5 -158t57.5 -86q29 -29 84 -46t106 -17h3q48 0 85 6.5t75 27t64 55t45.5 94t26.5 140.5q10 182 10 346q-1 33 -1 67 q-2 194 -13 333q-3 50 -20 65.5t-57 18.5l-105 10l-6 61q30 0 107 -4t118 -4q36 0 107 4t110 4l9 -61l-78 -8q-39 -3 -52 -21t-16 -65q-3 -63 -12 -379t-21 -416q-25 -197 -151 -289q-116 -88 -334 -88q-297 0 -410 137q-43 53 -63 122t-21 177q-1 81 -2 384.5t-2 367.5 q-2 35 -9.5 50t-29.5 16z" />
<glyph unicode="V" horiz-adv-x="1294" d="M-29 1292q19 0 137 -3t187 -3q55 0 160 3t166 3l10 -63l-101 -15q-22 -3 -29 -12.5t-3 -30.5q12 -55 107 -350t173 -520q80 214 165.5 480.5t105.5 365.5q6 33 -2 47.5t-33 17.5q-78 13 -125 17l-6 63q19 0 103.5 -3t125.5 -3q32 0 106 3t128 3l10 -63q-92 -1 -130 -28 t-75 -114q-58 -133 -173 -452.5t-224 -652.5q-15 2 -41 2q-27 0 -63 -2q-74 -3 -99 -9q-273 824 -406 1160q-25 57 -56 75t-114 21z" />
<glyph unicode="W" horiz-adv-x="1890" d="M-23 1229v63q26 0 134 -3t163 -3q54 0 160 3t166 3l10 -63l-98 -12q-21 -3 -28 -14t-3 -36q14 -65 55.5 -223.5t92 -346t67.5 -251.5q63 236 143 561.5t91 380.5q47 -5 96 -5q65 0 133 9q14 -62 45 -172t61 -211t83.5 -282.5t87.5 -296.5q70 224 135.5 463.5t85.5 345.5 q7 42 -2 58.5t-39 19.5l-123 12l-8 63q31 0 113 -4q64 -3 108 -2h23q45 0 110 3t103 3v-63q-91 -9 -121 -28.5t-60 -94.5q-65 -179 -167.5 -510t-182.5 -614q-22 1 -46 1q-67 0 -151 -10q-33 130 -139.5 491t-142.5 490q-206 -796 -248 -972q-17 2 -55 0t-84 -5t-60 -4 q-80 299 -177.5 634.5t-151.5 494.5q-29 82 -60 103t-119 24z" />
<glyph unicode="X" horiz-adv-x="1253" d="M-41 57q81 6 122 24.5t85 70.5q69 80 317 456q-201 384 -301 559q-20 32 -58.5 45.5t-115.5 16.5v63q35 0 146 -3t174 -3q52 0 152.5 3t156.5 3l14 -63l-86 -10q-26 -3 -26 -25q0 -10 6 -25q78 -159 168 -323q136 205 186 311q15 31 8.5 46.5t-43.5 19.5l-88 6l10 63 q42 0 120.5 -4t103.5 -4h18q44 0 108 4q78 4 105 4l8 -63q-110 -7 -155.5 -29t-98.5 -86q-78 -91 -243 -336q274 -510 350 -639q25 -36 54.5 -54t78.5 -22l72 -6l-7 -63q-39 0 -151.5 4t-171.5 4q-70 0 -195 -4t-149 -4l-2 63q80 7 98.5 22t-0.5 50q-36 68 -205 412 q-158 -263 -205 -361q-23 -46 -23 -71v-9q6 -26 50 -30l105 -13l12 -63q-32 0 -118 3t-142 3q-57 0 -129 -3t-107 -3z" />
<glyph unicode="Y" horiz-adv-x="1196" d="M-35 1229v63q16 0 129 -3t180 -3q87 0 192.5 3t131.5 3l6 -63l-86 -8q-24 -3 -26.5 -17.5t10.5 -40.5q82 -179 233 -477q149 297 209 459q12 41 7.5 55t-27.5 17q-15 2 -55 7t-60 7l6 61q14 0 93 -3t130 -3q44 0 113 3t102 3l7 -63q-88 -5 -125.5 -23t-75.5 -76 q-94 -143 -262 -487q-23 -45 -23 -96q-2 -95 -2 -172q0 -170 8 -254q3 -23 12 -33.5t33 -13.5q117 -15 138 -17l8 -63q-61 0 -190.5 3t-194.5 3q-76 0 -187 -3t-159 -3l-7 63q28 2 132 17q38 5 55 20.5t20 50.5q6 66 11 387q0 47 -23 97q-35 79 -126.5 244t-154.5 266 q-35 56 -68 72.5t-114 17.5z" />
<glyph unicode="Z" horiz-adv-x="1269" d="M59 35q554 881 719 1182h-155q-175 0 -248 -27.5t-111 -99.5q-38 -70 -88 -250l-57 12q18 120 26 250q5 74 5 130q0 42 -3 73q54 -14 142 -17q57 -2 286 -2h367q34 0 71 1t82 2.5t72 2.5q-22 -85 -55 -151q-49 -78 -320 -538t-311 -533h49q176 0 262 6q98 8 145 27t85 65 q64 76 129 293l59 -17q-2 -12 -11.5 -83.5t-15.5 -118.5t-12.5 -121t-7.5 -135q-168 14 -508 14h-387q-131 0 -188 -6z" />
<glyph unicode="[" horiz-adv-x="745" d="M207 -365q6 411 6 902q0 701 -6 888q45 -7 202 -6t246 6l-8 -67q-77 0 -178 -15q-28 -3 -33 -38q-16 -115 -16 -768q0 -677 12 -785q3 -30 57 -33l166 -6l-12 -67q-354 7 -436 -11z" />
<glyph unicode="\" horiz-adv-x="813" d="M80 1401l117 45q69 -233 276 -856q26 -76 122 -374.5t134 -395.5l-125 -39q-215 695 -254 817q-225 697 -270 803z" />
<glyph unicode="]" horiz-adv-x="745" d="M92 -358l6 67q77 0 178 15q28 3 33 38q17 122 17 768q0 696 -13 787q-3 31 -57 31l-164 4l10 69q351 -7 439 11q-6 -417 -6 -902q0 -700 6 -888q-39 7 -203 6.5t-246 -6.5z" />
<glyph unicode="^" horiz-adv-x="1034" d="M102 563l349 744h131l348 -744h-148l-270 598l-258 -598h-152z" />
<glyph unicode="_" horiz-adv-x="1024" d="M0 -227h1024v-119h-1024v119z" />
<glyph unicode="`" horiz-adv-x="933" d="M186 1323q0 48 24.5 72t59.5 24q72 0 119 -82q18 -29 82.5 -163.5t75.5 -155.5l-45 -33q-69 58 -162.5 138.5t-103.5 88.5q-19 21 -34.5 54t-15.5 57z" />
<glyph unicode="a" horiz-adv-x="1069" d="M70 233q0 140 116 189q45 18 143.5 52t171.5 63t117 57v80q0 164 -116 164q-131 0 -131 -138q0 -14 2.5 -36t3 -34t-4.5 -26t-18 -24q-45 -33 -106 -33q-57 0 -95 26.5t-38 85.5q0 92 123 168t309 76q242 0 332 -131q28 -47 28 -98v-502q0 -44 10 -60t29 -16 q23 0 46.5 36.5t35.5 94.5l64 -26q-49 -230 -269 -230q-88 0 -136 37t-66 109q-143 -146 -287 -146q-124 0 -194 71t-70 191zM379 283q0 -67 29.5 -115.5t85.5 -48.5q76 0 110 84q14 28 14 94v225q-21 -13 -77 -41.5t-80 -42.5q-42 -26 -62 -58.5t-20 -94.5v-2z" />
<glyph unicode="b" horiz-adv-x="1161" d="M4 1272v63q82 0 221 9.5t217 25.5q0 -13 -2.5 -76t-5 -170.5t-2.5 -228.5v-119q84 65 156 96t155 31q116 0 196 -56.5t116.5 -149t36.5 -212.5q0 -254 -129 -384t-375 -130q-69 0 -145.5 17.5t-123.5 42.5q-21 -7 -80.5 -29t-93.5 -33l-14 11q0 40 2 217.5t2 312.5v444 q0 159 -6 267q-1 35 -21 43t-104 8zM424 383q0 -105 4 -161t8.5 -70t14.5 -33q21 -39 56 -59.5t73 -20.5h2q194 0 194 412q0 166 -49 251q-45 80 -127 80q-93 0 -151 -90q-15 -21 -20 -74t-5 -235z" />
<glyph unicode="c" horiz-adv-x="980" d="M70 422q0 104 32.5 191t94.5 152t158.5 101.5t217.5 36.5q153 0 251 -62t98 -167q0 -36 -14.5 -64t-38.5 -43t-50 -22.5t-53 -7.5q-44 -1 -74 19q-25 16 -25 44q0 6 1 14q10 73 10 80q0 142 -111 142q-84 0 -130 -102.5t-46 -270.5q0 -77 12.5 -141.5t39 -118.5 t73.5 -84.5t111 -30.5q88 0 145.5 49.5t99.5 159.5l62 -33q-51 -150 -148.5 -221.5t-253.5 -71.5q-228 0 -345 114.5t-117 336.5z" />
<glyph unicode="d" horiz-adv-x="1181" d="M70 408q0 104 29 192t86.5 156.5t151.5 107.5t216 39t178 -39q0 304 -2 350q-3 45 -25 55.5t-116 10.5l6 61q72 0 215 9.5t233 19.5q-12 -288 -12 -450l-2 -453q0 -256 8 -342q3 -29 12 -40t31 -11l86 -2l-8 -64q-301 -10 -428 -39q-1 13 1 61q1 28 1 48v20h-6 q-137 -127 -285 -127q-180 0 -275 118.5t-95 318.5zM387 451q0 -67 9.5 -125t30 -110.5t60 -83t93.5 -30.5q84 0 133 78q10 17 14 64.5t4 191.5q0 181 -2.5 236.5t-11.5 70.5q-42 86 -131 86q-95 0 -147 -103t-52 -273v-2z" />
<glyph unicode="e" horiz-adv-x="995" d="M70 422q0 99 29.5 184.5t86 152.5t148 105.5t207.5 38.5q98 0 173 -28t115.5 -67.5t65.5 -93.5t32 -95t7 -82q0 -64 -35 -82q-17 -8 -43 -14t-64.5 -9.5t-70.5 -6t-84.5 -3t-82.5 -0.5h-36h-51h-78v-19q1 -58 11 -109q12 -59 39 -106.5t74 -74.5t110 -27q167 0 245 203 l64 -35q-101 -283 -410 -283q-249 0 -360 140q-92 112 -92 311zM393 492h103q84 0 125 12q36 9 36 84q0 35 -5 72.5t-16.5 80t-36.5 70t-60 27.5h-2q-66 0 -103.5 -95t-40.5 -251z" />
<glyph unicode="f" horiz-adv-x="657" d="M47 -6l4 63q71 1 93 12t24 40q8 118 8 278v406l-125 14l10 67l117 -2v56q3 222 117 336q115 112 283 112q115 0 177 -49t62 -121q0 -52 -40 -84t-103 -32q-72 0 -72 71q-2 72 -16 108t-51 36q-59 0 -68 -99q-1 -13 -1 -36q0 -83 11 -296h185l-13 -69l-174 -12 q-2 -70 -2 -320q0 -252 4 -340q2 -34 13 -49t40 -18q88 -9 103 -9l-8 -63q-32 0 -133 3t-152 3q-55 0 -159 -3t-134 -3z" />
<glyph unicode="g" horiz-adv-x="1052" d="M55 150q0 145 144 243q-66 72 -66 182q0 70 24.5 127.5t64.5 94t93.5 61t108 35t111.5 10.5q84 0 145.5 -16t83.5 -31q125 111 207 111q38 0 68 -23.5t30 -48.5q-1 -24 -32 -58t-54 -42q-44 32 -115 32q-30 0 -51 -6q107 -84 107 -223q0 -88 -38 -152.5t-100.5 -99 t-129.5 -50t-140 -15.5q-186 0 -268 69q-31 -11 -52.5 -39.5t-21.5 -60.5q0 -36 30.5 -58t82.5 -22q37 0 202 4t306 4q106 0 178 -57q39 -33 62.5 -86.5t23.5 -108.5q0 -105 -52.5 -188.5t-139 -133.5t-189 -76t-211.5 -26q-197 0 -300.5 60t-103.5 159q0 73 89 123 q56 29 118 43l31 -37q-68 -31 -68 -92q0 -70 76 -121t221 -51q172 0 257 62t85 147q0 44 -29.5 69t-82.5 25h-393q-90 0 -151.5 24.5t-111.5 84.5q-49 63 -49 152zM418 594q0 -116 29.5 -183t82.5 -67q59 0 83 62t24 184q0 46 -5 86t-16.5 78t-34.5 60t-55 22h-2 q-106 0 -106 -242z" />
<glyph unicode="h" horiz-adv-x="1187" d="M33 -6v63q70 1 92 14.5t25 51.5q6 171 6 317v555q0 203 -4 244q-3 27 -22 34t-87 7l2 61q88 1 229.5 11.5t186.5 17.5q-8 -172 -8 -371v-231q45 36 82.5 61t104.5 49.5t134 24.5q56 0 100.5 -13t71.5 -34.5t42.5 -40t23.5 -37.5q24 -52 24 -131q0 -98 -1 -292.5 t-1 -237.5q0 -36 18.5 -46t96.5 -14v-63q-27 0 -115.5 3t-144.5 3q-63 0 -147 -3t-105 -3l2 63q54 1 72.5 13t21.5 43q6 61 6 258t-3 254.5t-11 79.5q-25 71 -98 71q-97 0 -152 -90q-22 -33 -22 -92v-223q0 -191 2 -244q3 -42 20.5 -54.5t79.5 -15.5v-63q-22 0 -112 3 t-140 3q-78 0 -164 -3t-106 -3z" />
<glyph unicode="i" horiz-adv-x="626" d="M47 -6v63q76 3 98.5 16t24.5 46q6 59 6 217v223q0 168 -4 201q-1 18 -10 26q-10 10 -32 12q-16 2 -45 1h-26l2 63q16 1 66.5 4t73.5 4.5t68 4.5t74.5 6.5t66.5 8.5t69 11q-6 -147 -6 -328v-239q0 -70 6 -211q1 -37 21.5 -48.5t91.5 -17.5v-63q-31 0 -123.5 3t-163.5 3 q-77 0 -156 -3t-102 -3zM158 1161q0 68 42 111t109 43h2q71 0 111.5 -40t40.5 -112q0 -64 -44.5 -104.5t-115.5 -40.5q-64 0 -104.5 39.5t-40.5 103.5z" />
<glyph unicode="j" horiz-adv-x="604" d="M-78 -412l19 25q54 -12 92 -12q105 0 121 153q18 187 18 586q0 344 -6 430q-2 21 -10.5 28t-34.5 7h-78l-4 61q221 10 424 37l8 -6q-2 -141 -2 -625q0 -268 -20 -366q-23 -134 -105 -228q-69 -78 -167.5 -121.5t-168.5 -43.5q-15 0 -27.5 5t-19.5 10t-16 19t-11.5 18.5 t-11.5 22.5zM147 1161q0 68 42.5 111t109.5 43h2q72 0 112 -39t40 -113q0 -64 -44.5 -104.5t-115.5 -40.5q-64 0 -105 39.5t-41 103.5z" />
<glyph unicode="k" horiz-adv-x="1103" d="M29 -6v63q70 1 92 13.5t24 42.5q9 92 9 321v453q0 262 -2 354q-3 28 -46 31h-65l2 63q285 7 416 35q-6 -159 -6 -448v-437q51 13 144 108t148 181q10 15 7.5 23.5t-23.5 9.5l-84 8v62h33q139 0 391 14v-60q-84 -10 -121 -19.5t-65 -31.5q-79 -62 -183 -178 q62 -112 161.5 -278.5t144.5 -223.5q30 -38 92 -41l51 -2l-4 -63q-298 0 -422 -23q-20 44 -63 124.5t-98 180t-60 109.5q-19 32 -29 42t-22 9q0 -249 4 -313q2 -39 21.5 -51t94.5 -15l-2 -63q-30 0 -119 3t-153 3q-81 0 -165 -3t-103 -3z" />
<glyph unicode="l" horiz-adv-x="606" d="M25 -6v63q74 1 96.5 16.5t25.5 63.5q9 185 9 332v498q0 211 -2 260q-3 34 -21.5 41.5t-93.5 9.5l2 63q140 0 420 29q-8 -228 -8 -401v-520q0 -269 2 -322q3 -43 24 -55t96 -15l-2 -63q-35 0 -137.5 3t-148.5 3q-61 0 -148 -3t-114 -3z" />
<glyph unicode="m" horiz-adv-x="1781" d="M55 -6v63q74 3 93 13.5t22 50.5q6 77 6 233v185q0 143 -6 231q-2 20 -22 26.5t-91 6.5l6 63q213 0 394 29q9 -37 20 -139q33 29 61.5 49.5t71.5 45.5t94.5 38.5t106.5 13.5q128 0 190 -80q24 -27 39 -71q90 73 138 99q95 52 200 52q81 0 135 -32t80 -76q35 -58 35 -140 v-538q0 -34 18 -43.5t97 -18.5l-2 -61q-35 0 -120.5 4t-145.5 4q-71 0 -152 -4t-96 -4v61q56 4 75.5 16t22.5 42q6 71 6 272q0 203 -2 254.5t-10 71.5q-26 59 -96 59q-64 0 -118 -54t-54 -132v-273q0 -147 2 -198q3 -31 22 -41.5t82 -14.5l-6 -63q-14 0 -108 3t-152 3 q-69 0 -148.5 -3t-91.5 -3v63q57 5 76.5 16.5t20.5 47.5q6 177 6 246v206q0 111 -13 144q-27 53 -90 53q-68 0 -123 -57t-55 -138v-266q0 -113 6 -196q1 -31 20 -41t81 -15l-11 -63q-13 0 -101 3t-144 3q-66 0 -156.5 -3t-112.5 -3z" />
<glyph unicode="n" horiz-adv-x="1208" d="M55 -6v63q73 3 92.5 14t22.5 50q6 94 6 223v195q0 147 -6 227q-2 21 -19.5 27.5t-82.5 9.5l2 63q205 0 389 29q13 -85 16 -133q70 64 143 102.5t170 38.5q90 0 149.5 -34.5t86.5 -82.5q31 -54 31 -127v-544q0 -32 18.5 -41.5t100.5 -16.5l-3 -63q-40 0 -128.5 3t-141.5 3 q-73 0 -155 -3t-91 -3v63q54 3 73.5 16t21.5 44q8 82 8 274v92q0 123 -2 163q-3 52 -15 73q-30 53 -94 53q-67 0 -120.5 -50.5t-53.5 -129.5v-258q0 -164 4 -223q2 -28 22 -39t81 -15v-63q-19 0 -114.5 3t-148.5 3q-63 0 -150 -3t-112 -3z" />
<glyph unicode="o" horiz-adv-x="1134" d="M70 428q0 210 134 342.5t374 132.5h2q219 0 353 -123t134 -338q0 -219 -136.5 -345t-367.5 -126q-123 0 -218.5 34.5t-154.5 96t-89.5 144t-30.5 182.5zM399 471q0 -223 52 -336q42 -96 133 -96q82 0 118 84q41 103 41 299q0 227 -53 328q-44 86 -123 86h-2 q-73 0 -119 -80q-47 -92 -47 -285z" />
<glyph unicode="p" horiz-adv-x="1183" d="M-12 -467l10 64q90 7 115.5 18.5t27.5 44.5q13 169 13 393v445q0 190 -4 260q-3 30 -25 38.5t-96 8.5l10 61q302 15 407 35q9 -98 11 -145q159 147 325 147q153 0 238 -110q43 -51 68.5 -134.5t25.5 -173.5q0 -252 -123 -383t-354 -131q-54 0 -105.5 12.5t-80.5 32.5 q0 -256 6 -346q2 -29 12 -41t41.5 -18.5t103.5 -7.5l-10 -66q-7 0 -105.5 3t-185.5 3q-60 0 -325 -10zM455 195q0 -66 47 -108t104 -42h2q52 0 90.5 33.5t59.5 91.5t31 126t10 148q0 164 -49 248q-41 78 -119 78q-66 0 -118 -49t-56 -121q-3 -110 -3 -241q0 -78 1 -164z" />
<glyph unicode="q" horiz-adv-x="1161" d="M70 399q0 232 132.5 368t368.5 136q146 0 244 -55l186 51h31q0 -16 -1.5 -76t-3 -160t-1.5 -212v-502q0 -191 10 -293q1 -19 11 -27.5t40.5 -13t98.5 -6.5l-10 -66h-88q-305 0 -547 -18l10 65q100 11 133.5 24.5t34.5 45.5q8 74 8 221v199q-68 -51 -135 -80t-152 -29 q-159 0 -254 92q-53 53 -84.5 140t-31.5 196zM389 455q0 -92 17 -168.5t45 -118.5q54 -76 133 -76q82 0 125 70q12 19 16 59t4 170q0 214 -6 316q-8 54 -45 89t-92 35h-2q-51 0 -90.5 -33.5t-61.5 -89t-32.5 -119.5t-10.5 -134z" />
<glyph unicode="r" horiz-adv-x="876" d="M45 -6l8 63q69 3 90.5 12.5t24.5 36.5q8 98 8 254v142q0 184 -12 258q-9 35 -43 35h-68l2 63q264 10 377 41l10 -6q17 -96 17 -215h8q43 108 101 166.5t151 58.5q63 0 102 -42t39 -105q0 -43 -15 -76.5t-37.5 -50.5t-43 -25t-37.5 -8q-63 0 -80 39q-14 34 -27 48.5 t-38 14.5q-35 0 -60.5 -34.5t-37 -82.5t-11.5 -98q0 -309 2 -358q2 -26 14 -38.5t47.5 -19.5t112.5 -10l-6 -63q-36 1 -98 2.5t-114 2.5t-101 1q-21 0 -285 -6z" />
<glyph unicode="s" horiz-adv-x="874" d="M90 29q5 68 5 194q0 54 -1 119h58q15 -105 55 -168q35 -62 94.5 -95.5t132.5 -33.5q69 0 108.5 31t39.5 82q0 58 -58 88q-27 14 -70 32t-101.5 42t-78.5 32q-95 40 -136.5 100.5t-41.5 145.5q0 143 100.5 224t252.5 81q66 0 127.5 -16t87.5 -39l28 74l60 -19 q-20 -120 -20 -258q0 -29 1 -59l-59 -13q-8 101 -76.5 181t-165.5 80q-62 0 -96.5 -32.5t-34.5 -80.5q0 -57 55 -88q32 -19 159.5 -65.5t162.5 -65.5q131 -67 131 -211q0 -85 -35.5 -149t-96.5 -99.5t-131 -52.5t-149 -17q-81 0 -168 16.5t-139 39.5z" />
<glyph unicode="t" horiz-adv-x="731" d="M37 805l8 69h117q0 32 1 111.5t1 116.5q201 48 285 104l20 -4q-10 -132 -10 -328h237l-4 -69l-235 -14q0 -26 -2.5 -135.5t-1.5 -194.5q0 -240 8 -324q9 -65 59 -65q56 0 95 50t53 114h26l27 -82q-33 -84 -118 -133.5t-204 -49.5q-247 0 -247 209v59v119q2 114 4.5 252.5 t3.5 182.5z" />
<glyph unicode="u" horiz-adv-x="1189" d="M35 811l4 63q165 0 422 21q-19 -112 -19 -403q0 -274 11 -328q13 -66 79 -66q65 0 112.5 45t70.5 109q18 46 18 117v229q0 123 -6 168q-3 25 -26.5 32t-90.5 9v63q167 5 252 11q35 2 75 4.5t64.5 4t34.5 1.5q-6 -141 -6 -279v-235q0 -176 6 -250q2 -27 11 -38t33 -15 q19 -3 57 -2h24l-2 -66q-63 -2 -209.5 -14.5t-208.5 -20.5q-5 67 -10 162q-145 -162 -344 -162q-100 0 -152.5 34t-70.5 77q-21 43 -21 121q0 75 2 219t2 199q0 114 -2 147q-3 28 -23.5 35.5t-86.5 7.5z" />
<glyph unicode="v" horiz-adv-x="983" d="M-25 881q193 -7 261 -7q60 0 159 3.5t123 3.5l8 -64l-65 -8q-22 -3 -27 -12.5t2 -34.5q29 -97 176 -477q127 327 166 463q9 31 1.5 44.5t-34.5 16.5l-83 8v64q32 0 98 -3.5t96 -3.5q43 0 100.5 3.5t75.5 3.5v-64q-70 -6 -101 -27.5t-63 -87.5q-115 -240 -295 -718 q-82 -3 -151 -11q-57 150 -159.5 403.5t-143.5 346.5q-28 60 -51 76.5t-86 17.5z" />
<glyph unicode="w" horiz-adv-x="1492" d="M-18 817v64q199 -7 258 -7q15 0 295 7l6 -64l-82 -8q-24 -3 -29 -13.5t2 -33.5q18 -68 44.5 -154t58.5 -187.5t38 -119.5q61 167 193 578q21 -2 49 -2q42 0 98 4q12 -32 110.5 -282t123.5 -316q116 329 141 469q6 31 -4 41.5t-47 15.5l-80 8v64q35 0 104 -3.5t103 -3.5 q43 0 103.5 3.5t78.5 3.5v-64q-76 -6 -105.5 -27.5t-62.5 -97.5q-74 -165 -262 -708q-56 0 -153 -11q-21 59 -114.5 292t-113.5 284q-83 -224 -200 -576q-148 11 -154 11q-39 128 -126 373.5t-134 369.5q-25 56 -49 71.5t-90 18.5z" />
<glyph unicode="x" horiz-adv-x="1017" d="M-29 57q73 6 114.5 26.5t88.5 68.5q103 116 201 249q-149 258 -211 347q-26 37 -56 50t-100 19v64q185 -7 260 -7q63 0 163.5 3.5t105.5 3.5l4 -64l-43 -6q-33 -5 -11 -45q19 -35 58 -101t39 -67q59 81 110 172q10 20 5 28t-27 11l-49 8l4 64q18 0 84 -3.5t104 -3.5 q36 0 99 3.5t85 3.5v-64q-73 -6 -116 -21t-80 -46q-59 -54 -182 -215q197 -333 258 -414q25 -30 59 -43.5t109 -20.5l-3 -63q-177 6 -282 6q-23 0 -281 -6l-2 61l43 8q35 10 15 48q-19 35 -64 114t-61 109q-83 -115 -136 -215q-13 -26 -6.5 -38t35.5 -15l64 -9l-4 -63 q-29 0 -103.5 3t-111.5 3q-40 0 -100.5 -3t-74.5 -3z" />
<glyph unicode="y" horiz-adv-x="954" d="M-20 817v64q231 -7 256 -7q61 0 155.5 3.5t116.5 3.5l8 -64l-59 -8q-22 -3 -27 -13.5t2 -33.5q23 -69 60.5 -163.5t80 -196t48.5 -115.5q80 220 137 436q6 23 6 39.5t-6 25.5q-12 17 -62 23l-71 6l2 64q25 0 90.5 -4.5t101.5 -4.5q27 0 92.5 4.5t96.5 4.5l-2 -64 q-67 -3 -96 -27t-66 -114q-92 -226 -314 -836q-25 -68 -44.5 -113.5t-45 -90t-52.5 -69.5t-63 -40.5t-79 -15.5q-66 0 -109 38t-43 103q0 62 36 96.5t83 34.5q55 0 72 -39q13 -32 25.5 -45.5t37.5 -13.5q10 0 20 6.5t19.5 19t18 26.5t17 33.5t15 36t14 39t11.5 36t10 32.5 t8 25q-36 25 -82 133q-213 518 -282 659q-21 45 -40 60t-57 20z" />
<glyph unicode="z" horiz-adv-x="976" d="M61 35q91 124 259 409.5t200 362.5q-112 0 -186 -10q-48 -6 -72.5 -24.5t-46.5 -65.5q-26 -51 -53 -166l-62 -9q2 28 8 110.5t9.5 147.5t3.5 107q62 -23 248 -23h184q137 0 338 7q-5 -53 -43 -119q-28 -50 -194 -340t-201 -354h35q98 0 182 14q76 10 120 77.5t76 221.5 l60 -23q-31 -210 -35 -368q-117 10 -567 10q-80 0 -157 -3t-81 -3z" />
<glyph unicode="{" horiz-adv-x="749" d="M76 559q93 0 140.5 36.5t47.5 123.5q0 56 -6.5 194t-5.5 183q0 82 26 147t67.5 105t95 65.5t105.5 34.5t103 6l-6 -72q-117 -3 -151 -47.5t-17 -177.5q2 -14 10.5 -80t11.5 -92.5t5.5 -75t1.5 -88.5q-3 -119 -68 -185.5t-215 -111.5q100 -33 158 -68.5t91.5 -94.5 t33.5 -146q0 -65 -21 -283q-13 -103 -5.5 -161.5t43 -81t120.5 -23.5l6 -72q-48 -4 -99.5 3.5t-105 31t-95.5 59.5t-68.5 94t-26.5 130q0 51 6 208t6 218q0 84 -42.5 116.5t-133.5 32.5z" />
<glyph unicode="|" horiz-adv-x="563" d="M193 -512v2048h178v-2048h-178z" />
<glyph unicode="}" horiz-adv-x="749" d="M94 -406l8 72q117 3 154 48t20 177q-4 37 -15.5 106t-17.5 122t-5 102q4 124 68.5 191t213.5 112q-147 43 -214.5 114t-67.5 202q0 72 24 276q16 103 7.5 161.5t-45 81t-122.5 23.5l-6 70q48 4 100.5 -3t106.5 -30t97 -59t70.5 -94.5t27.5 -130.5q0 -51 -10.5 -204 t-10.5 -212q0 -85 44.5 -122.5t133.5 -37.5l13 -70q-94 0 -142.5 -36.5t-48.5 -124.5q0 -61 10.5 -198t10.5 -179q0 -81 -27.5 -146t-70.5 -105t-97.5 -65.5t-107 -34.5t-101.5 -6z" />
<glyph unicode="~" horiz-adv-x="1099" d="M98 299q21 383 262 383q60 0 115 -35.5t115 -107.5q104 -123 160 -123q22 0 39 9t35.5 34t32 78.5t20.5 134.5l124 -23q-7 -108 -29.5 -184.5t-58.5 -117.5t-77 -59t-93 -18q-65 0 -119 38t-128 120q-37 42 -53.5 59.5t-43.5 35.5t-51 18q-99 0 -125 -258z" />
<glyph unicode="&#xa1;" horiz-adv-x="552" d="M74 -260q0 67 45 172q121 301 121 498h75q0 -197 121 -498q45 -105 45 -172q0 -70 -72 -141.5t-135 -71.5h-2q-50 0 -124 67.5t-74 145.5zM102 725q0 74 49 125t119 51h2q73 0 120.5 -49.5t47.5 -124.5q0 -74 -50 -124t-120 -50t-119 49.5t-49 122.5z" />
<glyph unicode="&#xa2;" d="M78 639q0 143 69 247.5t183.5 156.5t261.5 55l6 157l86 17l-12 -174q144 -8 227.5 -65.5t83.5 -151.5q0 -58 -39.5 -90.5t-97.5 -32.5q-45 0 -68.5 21t-15.5 50q12 58 12 82q0 45 -27 78t-81 43q-21 -356 -33 -725q116 0 184 51.5t107 161.5l41 -2l10 -86 q-44 -88 -140.5 -145t-207.5 -68l-6 -168l-86 -20l12 186q-263 3 -379 139q-90 104 -90 283zM391 668q0 -69 7 -124t24.5 -104.5t51 -82t81.5 -44.5q26 497 35 723q-55 -6 -95.5 -44.5t-62 -95t-31.5 -113.5t-10 -113v-2z" />
<glyph unicode="&#xa3;" d="M33 610l28 90q74 -4 152 -4q-11 102 -10 165t14 116q32 149 166 233q112 66 252 66q91 0 159 -20.5t105 -54.5t54.5 -70.5t17.5 -75.5q0 -71 -45 -107.5t-107 -36.5q-43 0 -71.5 17.5t-22.5 52.5q10 57 10 78q0 62 -25.5 106.5t-84.5 44.5q-53 0 -81.5 -49.5 t-27.5 -150.5q0 -91 19 -314q45 0 309 6l-31 -94q-159 6 -276 6q0 -65 -13 -117.5t-34.5 -91.5t-58 -73.5t-75.5 -59.5t-94 -53q590 11 617 29q9 5 13.5 8.5t9.5 11.5t9 21q7 21 41 121l66 10q-55 -251 -51 -428l-17 -10q-251 18 -639 18q-146 0 -264 -8l-12 16l55 164 q33 17 53.5 31.5t44 40.5t35.5 64.5t13 90.5q2 78 -15 215q-110 0 -188 -4z" />
<glyph unicode="&#xa4;" horiz-adv-x="1062" d="M74 219l139 131q-92 105 -92 271q0 172 104 276l-147 125l102 104l125 -161q83 63 223 67h2q56 0 118 -17t102 -50l118 157l107 -100l-152 -131q86 -96 86 -268q0 -80 -26 -151.5t-68 -115.5l158 -143l-103 -104l-137 178q-90 -70 -223 -70t-221 64l-123 -164zM313 633 q0 -153 57 -234.5t150 -81.5q96 0 146.5 86.5t50.5 217.5q0 63 -10 116t-32 99t-61.5 72t-93.5 26h-2q-98 1 -151.5 -84.5t-53.5 -216.5z" />
<glyph unicode="&#xa5;" d="M-18 1198l8 62q46 0 144.5 -2.5t137.5 -2.5q102 0 191 2.5t100 2.5v-62q-15 -2 -45.5 -5.5t-42.5 -4.5q-14 -1 -16.5 -10.5t4.5 -28.5q18 -45 83 -193.5t87 -199.5q65 143 155 368q14 41 -6 55.5t-106 18.5l6 62q34 0 102 -2.5t101 -2.5q28 0 88 2.5t84 2.5v-62 q-68 -2 -100.5 -20t-73.5 -78q-25 -40 -64 -117t-84.5 -172.5t-58.5 -122.5q27 0 239 8l-24 -88q-5 0 -81 2t-142 2v-143q129 0 235 4l-20 -86q-8 0 -81.5 2t-133.5 2q0 -162 6 -270q1 -27 10.5 -38t30.5 -13q82 -9 139 -13l-8 -63q-198 6 -352 6q-30 0 -148 -3t-166 -3 l4 63q98 11 127 15q46 6 49 51q5 60 9 270q-169 0 -228 -4l13 88q165 -6 219 -6v143q-139 3 -242 -6l23 88q10 0 33 -1t68.5 -2.5t104.5 -2.5q-42 101 -111 236t-106 194q-32 49 -62.5 63.5t-98.5 14.5z" />
<glyph unicode="&#xa6;" horiz-adv-x="563" d="M197 -358v716h178v-716h-178zM197 666v716h178v-716h-178z" />
<glyph unicode="&#xa7;" horiz-adv-x="1064" d="M80 659q0 80 21.5 158t56.5 138.5t70.5 104.5t72.5 77q143 125 301 125h2q68 0 126 -19.5t98 -64.5t40 -109q0 -50 -36.5 -81.5t-86.5 -31.5q-62 0 -96 27q-11 11 -13 23.5t1.5 22.5t8.5 26.5t5 31.5q0 45 -33.5 73t-85.5 28q-48 0 -80 -30.5t-32 -72.5q0 -31 11 -54.5 t38 -53.5q17 -19 98.5 -83.5t175.5 -145.5t148 -144q40 -48 64 -117.5t24 -148.5q0 -250 -162 -436q-98 -114 -189.5 -155.5t-185.5 -41.5q-46 0 -93 11.5t-90 34.5t-70 64t-27 93q0 58 38.5 94.5t94.5 36.5q77 0 115 -55q17 -26 2 -45q-23 -31 -23 -62q0 -43 32 -69.5 t89 -26.5q61 0 98 32.5t35 82.5q0 37 -24 73t-76 82q-28 25 -109 93.5t-147 126.5t-97 91q-110 123 -110 297zM209 811q0 -160 153 -295q44 -39 159 -138t157 -140q109 -114 117 -254q61 67 61 186v2q0 124 -92 231q-57 65 -210 199t-175 158q-51 53 -79 114.5t-21 155.5 q-70 -88 -70 -219z" />
<glyph unicode="&#xa8;" horiz-adv-x="933" d="M133 1161q0 64 37 105t96 41h2q61 0 96 -37.5t35 -98.5q0 -66 -42.5 -105.5t-96.5 -39.5q-51 0 -89 34t-38 101zM537 1161q0 64 37 105t96 41h2q60 0 95.5 -36.5t35.5 -96.5q0 -67 -42 -107.5t-95 -40.5q-52 0 -90.5 34.5t-38.5 100.5z" />
<glyph unicode="&#xa9;" horiz-adv-x="1443" d="M92 662q0 182 83 332.5t228 236.5t320 86h2q180 0 324 -85.5t223.5 -235t79.5 -334.5q0 -139 -48.5 -260.5t-132 -207t-200 -135t-248.5 -49.5q-133 0 -249.5 49t-200.5 134.5t-132.5 207t-48.5 261.5zM180 662q0 -167 71 -301t196 -208.5t280 -74.5q230 0 384.5 165.5 t154.5 418.5q0 165 -66.5 297.5t-191 210t-285.5 77.5h-2q-152 0 -275.5 -74.5t-194.5 -208.5t-71 -302zM381 664q0 170 113 266q46 41 115 65.5t155 24.5q110 0 186 -49q14 -10 17 2l20 43l39 -4q-18 -120 -6 -273h-47q-6 57 -26.5 105.5t-61.5 82.5t-94 34 q-92 0 -134.5 -75.5t-42.5 -197.5q0 -134 46 -207t151 -73q66 0 113 37t77 120l48 -22q-18 -62 -52 -106.5t-78 -67.5t-87 -33t-89 -10q-183 0 -284 104q-78 88 -78 234z" />
<glyph unicode="&#xaa;" horiz-adv-x="811" d="M53 717q0 48 27.5 80t71.5 47q244 70 297 98v62q0 83 -72 83q-37 0 -56.5 -20t-19.5 -45q0 -23 6 -41q7 -26 -22 -51q-42 -27 -103 -27q-42 0 -67 20.5t-25 51.5q0 68 90 119t223 51q104 0 163.5 -26.5t80.5 -57.5q23 -26 23 -70q0 -8 -1 -125.5t-1 -160.5q0 -58 30 -58 q33 0 60 84l49 -22q-22 -84 -77.5 -123t-129.5 -39q-135 0 -151 96q-104 -96 -216 -96q-81 0 -130.5 48t-49.5 122zM287 752q0 -45 20.5 -71t52.5 -26q46 0 67.5 33.5t21.5 85.5v113q-54 -19 -109 -47q-26 -14 -39.5 -33.5t-13.5 -54.5z" />
<glyph unicode="&#xab;" horiz-adv-x="1122" d="M109 412l20 49q104 36 214 140.5t175 242.5l55 -25q-44 -182 -174 -385q59 -87 109.5 -190t64.5 -185l-47 -32q-46 97 -125.5 183t-155 136t-136.5 66zM547 412l18 49q104 35 217 141.5t179 243.5l57 -25q-51 -198 -176 -387q55 -77 107.5 -184.5t68.5 -192.5l-49 -32 q-70 143 -197.5 252t-224.5 135z" />
<glyph unicode="&#xac;" horiz-adv-x="1099" d="M111 604v123h876v-528h-131v405h-745z" />
<glyph unicode="&#xad;" horiz-adv-x="684" d="M78 391l26 160q239 -6 504 0l-24 -160q-264 9 -506 0z" />
<glyph unicode="&#xae;" horiz-adv-x="548" d="M43 1077q0 106 68.5 177t169.5 71h2q102 0 169.5 -71t67.5 -177q0 -103 -68.5 -175.5t-170.5 -72.5q-100 0 -169 73t-69 175zM94 1077q0 -85 55.5 -144t135.5 -59t134 58.5t54 144.5q0 89 -53.5 148t-138.5 59h-2q-76 0 -130.5 -59t-54.5 -148zM158 1163l2 27q3 0 27 -1 t32 -1q6 0 35 1t51 1q74 0 74 -51q0 -48 -60 -54v-2q48 -5 58 -28q8 -16 8 -33q3 -23 18 -23q9 0 13 2l-2 -26q-20 -4 -54 -4q-45 0 -45 47q0 5 -1 13.5t-1 12.5q-3 19 -24 23h-31q0 -10 1 -29t1 -24q0 -10 8 -10l19 -5v-26h-123v26q25 4 29 11q2 16 2 75q0 58 -2 66 q0 10 -9 10zM258 1092q51 0 51 34v2q0 37 -33 37q-16 0 -18 -6v-67z" />
<glyph unicode="&#xaf;" horiz-adv-x="933" d="M217 1071l23 150h479l-19 -150h-483z" />
<glyph unicode="&#xb0;" horiz-adv-x="694" d="M76 1071q0 128 79.5 198t204.5 70h2q114 0 185 -68t71 -184q0 -127 -78.5 -197.5t-199.5 -70.5q-117 0 -190.5 65.5t-73.5 186.5zM240 1087q0 -96 29 -144t77 -48q115 0 115 199q0 27 -3.5 52.5t-13.5 56t-33 49.5t-57 20q-35 1 -59.5 -18.5t-35.5 -52t-15 -59.5t-4 -55z " />
<glyph unicode="&#xb1;" horiz-adv-x="1091" d="M109 4v123h876v-123h-876zM109 567v121h372v346h133v-346h371v-121h-371v-368h-133v368h-372z" />
<glyph unicode="&#xb2;" horiz-adv-x="796" d="M80 877q7 21 24 65.5t21 56.5q269 121 319 279q19 53 19 129q0 54 -20 91.5t-64 37.5q-86 0 -86 -125q0 -13 2.5 -32t3.5 -30t-3.5 -22.5t-16.5 -19.5q-25 -21 -70 -21q-111 0 -111 105q0 73 86 139q88 67 234 67q133 0 215 -57t82 -166q0 -53 -21.5 -92.5t-68.5 -71.5 q-11 -8 -25 -17.5t-27 -17.5t-33.5 -20t-35 -20t-41 -22t-42 -22t-48 -25t-49.5 -26q205 5 319 13q26 3 37 22q21 42 37 82l57 -16q-45 -143 -57 -281q-90 8 -436 8q-152 0 -195 -4z" />
<glyph unicode="&#xb3;" horiz-adv-x="796" d="M88 1016q0 41 35.5 69.5t85.5 28.5q31 0 45 -15.5t22 -51.5q10 -65 41 -100.5t76 -35.5q51 0 78 39t27 109q0 149 -140 149q-40 0 -73 -8l-29 49l8 15q105 3 148 36q61 35 61 117q0 52 -24 85.5t-68 33.5q-96 0 -96 -109q0 -33 4 -51q1 -21 -18.5 -34t-51.5 -13 q-106 0 -106 86q0 66 84.5 124t228.5 58q47 0 92.5 -8t91 -26.5t73.5 -54.5t28 -85q0 -86 -97 -127q-38 -15 -147 -41v-6q151 -6 219 -49q72 -40 72 -127q0 -99 -105 -160q-41 -27 -113.5 -45t-152.5 -18q-123 0 -211 45.5t-88 120.5z" />
<glyph unicode="&#xb4;" horiz-adv-x="933" d="M381 1020q17 27 98 160.5t99 160.5q57 80 127 80q37 0 56 -24t19 -64q0 -33 -22 -68t-53 -61q-22 -19 -61 -50t-106.5 -82.5t-111.5 -86.5z" />
<glyph unicode="&#xb5;" horiz-adv-x="1191" d="M109 -440q10 119 20.5 262t17 238.5t7.5 109.5v455q0 166 -7 252q90 -2 324 18q-20 -117 -20 -410q0 -274 12 -323q8 -32 24.5 -47t47.5 -15q94 0 149 94t55 220v192q0 70 -3 161.5t-3 104.5q119 3 311 19q-8 -94 -8 -279v-235q0 -176 6 -246q3 -53 31 -53q26 0 55.5 35 t47.5 110l57 -43q-66 -207 -309 -207q-56 0 -94.5 15t-57.5 42t-27 55t-10 65q-50 -70 -124 -122t-158 -51q-58 0 -88 27q4 -152 51 -496l-19 -14q-82 1 -151.5 15t-101 28t-35.5 23z" />
<glyph unicode="&#xb6;" horiz-adv-x="1110" d="M111 662q0 147 60.5 257.5t172.5 172.5q58 31 112.5 43t127.5 12q52 0 138.5 -1t104.5 -1q74 0 215 6v-66l-137 -16q-31 -3 -41 -20.5t-10 -83.5v-648q0 -306 -25 -442.5t-106 -216.5q-87 -84 -223 -84q-50 0 -94.5 11.5t-83 36.5t-61.5 70t-23 105q0 63 41 111.5 t100 48.5q31 0 53.5 -7.5t37 -24.5t20 -26.5t14.5 -29.5q12 -27 1 -38q-3 -3 -7 -1q-30 6 -33 6q-35 0 -52.5 -23t-17.5 -53q0 -50 36 -81t99 -31q72 0 114.5 39.5t66.5 151.5t24 311v110q-46 -21 -106 -38t-94 -17q-183 0 -303.5 128t-120.5 329z" />
<glyph unicode="&#xb7;" horiz-adv-x="532" d="M98 461q0 75 50 125.5t120 50.5h2q71 0 118.5 -50.5t47.5 -125.5q0 -76 -49 -126t-119 -50q-71 0 -120.5 50t-49.5 126z" />
<glyph unicode="&#xb8;" horiz-adv-x="933" d="M281 -416l22 64q45 -25 96 -25q39 0 61.5 17t22.5 49q0 35 -37 55.5t-100 19.5l-12 27q13 20 61.5 94.5t81.5 124.5h70q-45 -67 -72 -114q40 -8 73 -24.5t59 -53.5t26 -88q0 -83 -58 -135t-155 -52q-84 0 -139 41z" />
<glyph unicode="&#xb9;" horiz-adv-x="796" d="M180 922l94 8q45 5 45 33q7 129 7 172v188q0 82 -4 156q0 16 -19 16q-84 -15 -117 -20l11 67q299 38 354 57l8 -6q-6 -123 -6 -260v-198q0 -94 4 -172q3 -28 33 -31l90 -10l2 -60q-46 0 -136 3t-128 3q-46 0 -126 -3t-106 -3z" />
<glyph unicode="&#xba;" horiz-adv-x="839" d="M59 840q0 135 98 220t273 85h2q99 0 175 -29.5t124.5 -97t48.5 -166.5q0 -136 -99 -219.5t-273 -83.5q-171 0 -260 79t-89 212zM309 848q0 -49 4 -86.5t15.5 -75t35.5 -58t60 -20.5q57 0 82 58q29 69 29 190q0 114 -27 176q-26 53 -84 53h-2q-51 0 -78 -49 q-35 -58 -35 -188z" />
<glyph unicode="&#xbb;" horiz-adv-x="1122" d="M109 49q51 198 176 387q-55 77 -107.5 184.5t-68.5 192.5l49 33q70 -143 197.5 -252t224.5 -135l-19 -49q-104 -35 -216 -141.5t-179 -243.5zM553 51q46 187 172 385q-57 86 -107.5 189.5t-64.5 185.5l47 33q68 -143 194 -251t224 -134l-21 -49q-104 -36 -214 -140.5 t-175 -242.5z" />
<glyph unicode="&#xbc;" horiz-adv-x="1673" d="M135 618l94 9q45 5 45 32q7 129 7 172v189q0 64 -5 156q0 16 -18 16q-2 0 -45 -8t-72 -13l11 68q299 38 354 57l8 -6q-6 -123 -6 -260v-199q0 -94 4 -172q3 -27 33 -30l90 -11l2 -59q-47 0 -137 3t-127 3q-46 0 -126 -3t-106 -3zM369 -6q215 329 464.5 725.5t401.5 650.5 l78 -49q-444 -671 -869 -1382zM827 283q305 366 363 444q130 16 217 45l10 -8q-4 -176 -4 -395v-80q78 4 143 30v-53q-58 -37 -143 -49q0 -25 1 -85.5t1 -90.5q-177 -3 -239 -21l-9 9q6 66 9 178q-101 0 -198.5 7.5t-131.5 18.5zM944 305q62 -20 236 -20q10 195 10 342 q-135 -167 -246 -322z" />
<glyph unicode="&#xbd;" horiz-adv-x="1673" d="M96 618l94 9q46 6 46 32q6 117 6 172v189q0 86 -4 156q0 16 -19 16q-2 0 -45 -8t-72 -13l11 68q299 38 354 57l8 -6q-6 -123 -6 -258v-198q0 -93 4 -175q3 -27 33 -30l90 -11v-59q-45 0 -134.5 3t-127.5 3q-46 0 -126 -3t-106 -3zM317 -6q213 325 462 722t403 654l78 -49 q-423 -640 -867 -1382zM897 51q30 84 47 125q273 125 318 281q18 51 18 129q0 54 -20 92.5t-62 38.5q-88 0 -88 -127q0 -11 4 -38.5t0.5 -42t-18.5 -24.5q-23 -20 -70 -20q-111 0 -111 104q0 76 86 142q88 67 234 67q134 0 215.5 -57t81.5 -166q0 -104 -90 -168 q-58 -42 -301 -170q231 5 317 12q27 2 39 23q15 30 39 84l55 -17q-50 -160 -55 -282q-94 8 -436 8q-154 0 -197 -4z" />
<glyph unicode="&#xbe;" horiz-adv-x="1673" d="M82 713q0 41 35.5 69.5t85.5 28.5q31 0 45 -16t22 -52q10 -65 41 -100t76 -35q51 0 78 39t27 109q0 149 -140 149q-40 0 -73 -8l-29 49l8 15q107 4 150 36q61 35 61 117q0 52 -25 85.5t-69 33.5q-47 0 -71.5 -28.5t-24.5 -80.5q0 -33 4 -51q1 -21 -18.5 -34t-51.5 -13 q-107 0 -107 86q0 65 85 123.5t229 58.5h2q46 0 92 -8.5t91.5 -27t73.5 -54t28 -84.5q0 -86 -97 -127q-38 -15 -147 -41v-6q152 -6 217 -49q72 -40 72 -127q0 -99 -105 -160q-41 -27 -113.5 -45t-152.5 -18q-123 0 -211 45.5t-88 120.5zM414 -6q210 319 458 714.5t406 661.5 l80 -49q-440 -665 -866 -1382zM864 283q291 346 363 442q120 15 217 47l10 -10q-4 -172 -4 -393v-80q78 4 143 30v-53q-58 -37 -143 -49q0 -25 1 -85.5t1 -90.5q-178 -3 -240 -21l-8 9q5 51 8 178q-101 0 -197 7.5t-130 18.5zM983 305q58 -20 234 -20q10 195 10 342 q-155 -192 -244 -322z" />
<glyph unicode="&#xbf;" horiz-adv-x="915" d="M70 -100q0 148 120 227q158 110 218 162q36 30 47 56.5t0 74.5l59 20q120 -135 125 -243q3 -72 -61 -136q-26 -26 -71 -66t-92.5 -81t-56.5 -49q-47 -44 -47 -103q0 -81 40 -123t104 -42q60 0 94.5 38.5t34.5 92.5q0 40 -17 86q-9 28 -2.5 45.5t31.5 36.5q50 38 129 38 q49 0 85 -32.5t36 -94.5q0 -66 -37.5 -121t-96.5 -88t-125.5 -51t-131.5 -18q-180 0 -282.5 97t-102.5 274zM301 729q0 75 48.5 124.5t123.5 49.5h2q67 0 115.5 -50.5t48.5 -125.5q0 -73 -49.5 -122.5t-120.5 -49.5q-70 0 -119 50t-49 124z" />
<glyph unicode="&#xc0;" horiz-adv-x="1302" d="M-35 -6l2 63q86 8 123 31.5t68 99.5q43 115 164.5 471t162.5 482q28 92 33 133q54 0 155 12t132 29q88 -314 205 -704.5t159 -491.5q10 -26 28 -38t50 -15l76 -9v-63q-183 6 -319 6q-144 0 -322 -6l2 63q86 9 105.5 21t11.5 51q-27 122 -90 346q-49 2 -185 2 q-131 0 -174 -2q-74 -247 -82 -297q-7 -26 -4.5 -45t9 -32t28.5 -21.5t54 -13.5t85 -9l-2 -63q-31 0 -107 3t-126 3q-31 0 -115.5 -3t-126.5 -3zM315 1610q-6 43 19.5 70t62.5 30q59 6 113 -31q21 -16 130.5 -120t129.5 -121l-31 -47q-213 65 -329 110q-37 13 -64.5 42.5 t-30.5 66.5zM379 557q18 0 73.5 -1t86.5 -1q32 0 83.5 1t67.5 1q-16 62 -45.5 176.5t-53.5 207.5t-44 165q-129 -414 -168 -549z" />
<glyph unicode="&#xc1;" horiz-adv-x="1302" d="M-35 -6l2 63q86 8 123 31.5t68 99.5q43 115 164.5 471t162.5 482q28 92 33 133q54 0 155 12t132 29q88 -314 205 -704.5t159 -491.5q10 -26 28 -38t50 -15l76 -9v-63q-183 6 -319 6q-144 0 -322 -6l2 63q86 9 105.5 21t11.5 51q-27 122 -90 346q-49 2 -185 2 q-131 0 -174 -2q-74 -247 -82 -297q-7 -26 -4.5 -45t9 -32t28.5 -21.5t54 -13.5t85 -9l-2 -63q-31 0 -107 3t-126 3q-31 0 -115.5 -3t-126.5 -3zM379 557q18 0 73.5 -1t86.5 -1q32 0 83.5 1t67.5 1q-16 62 -45.5 176.5t-53.5 207.5t-44 165q-129 -414 -168 -549zM535 1432 q29 22 145 121.5t145 121.5q37 27 84.5 33.5t81 -17.5t25.5 -77q-4 -38 -36 -68t-73 -45q-85 -34 -342 -115z" />
<glyph unicode="&#xc2;" horiz-adv-x="1302" d="M-35 -6l2 63q86 8 123 31.5t68 99.5q43 115 164.5 471t162.5 482q28 92 33 133q54 0 155 12t132 29q88 -314 205 -704.5t159 -491.5q10 -26 28 -38t50 -15l76 -9v-63q-183 6 -319 6q-144 0 -322 -6l2 63q86 9 105.5 21t11.5 51q-27 122 -90 346q-49 2 -185 2 q-131 0 -174 -2q-74 -247 -82 -297q-7 -26 -4.5 -45t9 -32t28.5 -21.5t54 -13.5t85 -9l-2 -63q-31 0 -107 3t-126 3q-31 0 -115.5 -3t-126.5 -3zM360 1430q191 122 279 260l53 8q29 -55 101.5 -130t177.5 -138l-33 -54q-161 48 -272 113q-124 -69 -273 -113zM379 557 q18 0 73.5 -1t86.5 -1q32 0 83.5 1t67.5 1q-16 62 -45.5 176.5t-53.5 207.5t-44 165q-129 -414 -168 -549z" />
<glyph unicode="&#xc3;" horiz-adv-x="1302" d="M-35 -6l2 63q86 8 123 31.5t68 99.5q43 115 164.5 471t162.5 482q28 92 33 133q54 0 155 12t132 29q88 -314 205 -704.5t159 -491.5q10 -26 28 -38t50 -15l76 -9v-63q-183 6 -319 6q-144 0 -322 -6l2 63q86 9 105.5 21t11.5 51q-27 122 -90 346q-49 2 -185 2 q-131 0 -174 -2q-74 -247 -82 -297q-7 -26 -4.5 -45t9 -32t28.5 -21.5t54 -13.5t85 -9l-2 -63q-31 0 -107 3t-126 3q-31 0 -115.5 -3t-126.5 -3zM379 557q18 0 73.5 -1t86.5 -1q32 0 83.5 1t67.5 1q-16 62 -45.5 176.5t-53.5 207.5t-44 165q-129 -414 -168 -549zM387 1397 q2 74 20.5 134t60 100t101.5 40q64 0 144 -69q70 -58 98 -58q59 0 68 131l73 -14q-3 -116 -45.5 -193t-124.5 -77q-37 0 -71.5 17t-85.5 60q-35 28 -53 39t-37 11q-29 0 -50 -36t-24 -93z" />
<glyph unicode="&#xc4;" horiz-adv-x="1302" d="M-35 -6l2 63q86 8 123 31.5t68 99.5q43 115 164.5 471t162.5 482q28 92 33 133q54 0 155 12t132 29q88 -314 205 -704.5t159 -491.5q10 -26 28 -38t50 -15l76 -9v-63q-183 6 -319 6q-144 0 -322 -6l2 63q86 9 105.5 21t11.5 51q-27 122 -90 346q-49 2 -185 2 q-131 0 -174 -2q-74 -247 -82 -297q-7 -26 -4.5 -45t9 -32t28.5 -21.5t54 -13.5t85 -9l-2 -63q-31 0 -107 3t-126 3q-31 0 -115.5 -3t-126.5 -3zM328 1524q0 63 36 102t93 39h2q58 0 92.5 -36.5t34.5 -92.5q0 -64 -41 -102.5t-92 -38.5t-88 32.5t-37 96.5zM379 557 q18 0 73.5 -1t86.5 -1q32 0 83.5 1t67.5 1q-16 62 -45.5 176.5t-53.5 207.5t-44 165q-129 -414 -168 -549zM737 1524q0 63 35.5 102t91.5 39h2q60 0 94.5 -36.5t34.5 -92.5q0 -64 -40 -102.5t-93 -38.5q-50 0 -87.5 32.5t-37.5 96.5z" />
<glyph unicode="&#xc5;" horiz-adv-x="1302" d="M-35 -6l2 63q86 8 123 31.5t68 99.5q43 115 164.5 471t162.5 482q28 92 33 133q54 0 155 12t132 29q88 -314 205 -704.5t159 -491.5q10 -26 28 -38t50 -15l76 -9v-63q-183 6 -319 6q-144 0 -322 -6l2 63q86 9 105.5 21t11.5 51q-27 122 -90 346q-49 2 -185 2 q-131 0 -174 -2q-74 -247 -82 -297q-7 -26 -4.5 -45t9 -32t28.5 -21.5t54 -13.5t85 -9l-2 -63q-31 0 -107 3t-126 3q-31 0 -115.5 -3t-126.5 -3zM379 557q18 0 73.5 -1t86.5 -1q32 0 83.5 1t67.5 1q-16 62 -45.5 176.5t-53.5 207.5t-44 165q-129 -414 -168 -549zM440 1559 q0 98 62.5 151t161.5 53h2q90 0 144 -49t54 -141q0 -93 -61 -145t-154 -52t-151 47.5t-58 135.5zM575 1575q0 -70 22.5 -104.5t57.5 -34.5q76 0 76 143q0 20 -3 38.5t-10 40.5t-23.5 35t-39.5 13h-2q-24 0 -40.5 -13.5t-24 -35.5t-10.5 -41.5t-3 -40.5z" />
<glyph unicode="&#xc6;" horiz-adv-x="1814" d="M-35 -6v63q82 7 119 36t90 124q152 287 504 965q11 20 7 29t-26 10l-165 10l-5 61q67 1 236 -2.5t231 -3.5h402q184 0 299 17q-13 -92 -8 -381l-58 -2q-25 115 -65 190q-36 66 -97 87.5t-198 21.5h-60q-21 0 -28.5 -7.5t-9.5 -25.5q-9 -128 -9 -256v-260h93q109 0 153 40 t62 142h55q-10 -107 -12 -251t6 -230l-60 2q-6 33 -9 51t-11 46t-17 43.5t-24.5 34.5t-35 28.5t-48 16.5t-64.5 7l-88 -2v-160q0 -224 6 -319q2 -21 9.5 -30.5t35 -15t85.5 -5.5q124 0 184 11.5t108 53.5q50 41 89 117.5t59 152.5l57 -12q-3 -37 -25 -195.5t-30 -205.5 q-138 10 -494 10h-219q-68 0 -196.5 -3t-161.5 -3l2 63l100 9q31 3 45 14.5t15 42.5q8 148 8 313v162q-20 -1 -153.5 -2.5t-184.5 -3.5q-151 -299 -197 -436q-17 -41 -1.5 -61t75.5 -27l92 -11l-2 -63q-47 0 -123.5 3t-116.5 3q-42 0 -115 -3t-110 -3zM504 672 q107 -6 297 -2v544h-21q-180 -338 -276 -542z" />
<glyph unicode="&#xc7;" horiz-adv-x="1296" d="M82 623q0 351 219 542q179 154 459 154q228 0 352 -107l39 103l53 -19q-31 -245 -16 -444l-60 -8q-6 61 -20 116t-39.5 109t-61 92.5t-88 62t-116.5 23.5q-76 0 -130.5 -27.5t-101.5 -91.5q-57 -76 -88.5 -201.5t-31.5 -273.5q0 -91 12 -172.5t40 -155.5t70 -128 t105.5 -85.5t142.5 -31.5q258 0 363 297l61 -37q-57 -180 -168.5 -269.5t-294.5 -101.5q-5 -7 -14 -21.5t-16.5 -26.5t-12.5 -23q28 -6 53 -17t49 -29.5t38 -48t14 -67.5q0 -53 -25 -94t-72.5 -64.5t-109.5 -23.5q-47 0 -82.5 13t-54.5 27l22 62q41 -25 95 -25q37 0 59.5 17 t22.5 47q0 35 -37 55.5t-99 20.5l-10 24q98 152 111 172h-23q-294 8 -451 180.5t-157 475.5z" />
<glyph unicode="&#xc8;" horiz-adv-x="1216" d="M27 -6l2 63l106 9q31 3 45 17.5t17 47.5q10 185 10 367v376q0 222 -6 304q-1 24 -16 34t-50 13l-96 6v61q13 0 69.5 -1t94.5 -1q132 -4 192 -4h367q201 0 301 14q-14 -94 -8 -382l-60 -7q-25 129 -67 203q-38 66 -89.5 85.5t-193.5 19.5h-65q-39 0 -39 -35 q-11 -173 -11 -301v-181q25 -2 99 -2q108 0 151.5 43t61.5 150h55q-12 -107 -14 -256t6 -234l-60 3q-9 61 -18 95t-30 67t-59 47t-97 14q-70 0 -95 -4v-142q0 -236 7 -362q1 -21 8.5 -30.5t34 -15t82.5 -5.5q126 0 185 12.5t109 54.5q48 39 87 115.5t61 153.5l57 -15 q-1 -38 -24.5 -197.5t-32.5 -201.5q-180 8 -445 8h-253q-29 0 -100 -1t-107 -1q-136 -4 -172 -4zM266 1618q-6 43 19.5 70t62.5 30q61 7 113 -30q20 -16 130 -120t130 -122l-31 -47q-217 66 -330 110q-37 13 -64 42t-30 67z" />
<glyph unicode="&#xc9;" horiz-adv-x="1216" d="M27 -6l2 63l106 9q31 3 45 17.5t17 47.5q10 185 10 367v376q0 222 -6 304q-1 24 -16 34t-50 13l-96 6v61q13 0 69.5 -1t94.5 -1q132 -4 192 -4h367q201 0 301 14q-14 -94 -8 -382l-60 -7q-25 129 -67 203q-38 66 -89.5 85.5t-193.5 19.5h-65q-39 0 -39 -35 q-11 -173 -11 -301v-181q25 -2 99 -2q108 0 151.5 43t61.5 150h55q-12 -107 -14 -256t6 -234l-60 3q-9 61 -18 95t-30 67t-59 47t-97 14q-70 0 -95 -4v-142q0 -236 7 -362q1 -21 8.5 -30.5t34 -15t82.5 -5.5q126 0 185 12.5t109 54.5q48 39 87 115.5t61 153.5l57 -15 q-1 -38 -24.5 -197.5t-32.5 -201.5q-180 8 -445 8h-253q-29 0 -100 -1t-107 -1q-136 -4 -172 -4zM487 1440q29 22 145.5 121.5t145.5 121.5q37 27 84.5 33.5t81 -17.5t25.5 -77q-4 -38 -36 -68t-73 -45q-73 -29 -342 -114z" />
<glyph unicode="&#xca;" horiz-adv-x="1216" d="M27 -6l2 63l106 9q31 3 45 17.5t17 47.5q10 185 10 367v376q0 222 -6 304q-1 24 -16 34t-50 13l-96 6v61q13 0 69.5 -1t94.5 -1q132 -4 192 -4h367q201 0 301 14q-14 -94 -8 -382l-60 -7q-25 129 -67 203q-38 66 -89.5 85.5t-193.5 19.5h-65q-39 0 -39 -35 q-11 -173 -11 -301v-181q25 -2 99 -2q108 0 151.5 43t61.5 150h55q-12 -107 -14 -256t6 -234l-60 3q-9 61 -18 95t-30 67t-59 47t-97 14q-70 0 -95 -4v-142q0 -236 7 -362q1 -21 8.5 -30.5t34 -15t82.5 -5.5q126 0 185 12.5t109 54.5q48 39 87 115.5t61 153.5l57 -15 q-1 -38 -24.5 -197.5t-32.5 -201.5q-180 8 -445 8h-253q-29 0 -100 -1t-107 -1q-136 -4 -172 -4zM305 1450q191 122 279 260l53 8q29 -56 101 -130.5t177 -137.5l-32 -53q-166 49 -273 112q-121 -67 -272 -112z" />
<glyph unicode="&#xcb;" horiz-adv-x="1216" d="M27 -6l2 63l106 9q31 3 45 17.5t17 47.5q10 185 10 367v376q0 222 -6 304q-1 24 -16 34t-50 13l-96 6v61q13 0 69.5 -1t94.5 -1q132 -4 192 -4h367q201 0 301 14q-14 -94 -8 -382l-60 -7q-25 129 -67 203q-38 66 -89.5 85.5t-193.5 19.5h-65q-39 0 -39 -35 q-11 -173 -11 -301v-181q25 -2 99 -2q108 0 151.5 43t61.5 150h55q-12 -107 -14 -256t6 -234l-60 3q-9 61 -18 95t-30 67t-59 47t-97 14q-70 0 -95 -4v-142q0 -236 7 -362q1 -21 8.5 -30.5t34 -15t82.5 -5.5q126 0 185 12.5t109 54.5q48 39 87 115.5t61 153.5l57 -15 q-1 -38 -24.5 -197.5t-32.5 -201.5q-180 8 -445 8h-253q-29 0 -100 -1t-107 -1q-136 -4 -172 -4zM274 1536q0 63 36 102t93 39h3q58 0 92 -36.5t34 -92.5q0 -64 -41 -102.5t-92 -38.5t-88 32.5t-37 96.5zM684 1536q0 63 35.5 102t91.5 39h2q60 0 94.5 -36.5t34.5 -92.5 q0 -64 -40 -102.5t-93 -38.5q-50 0 -87.5 32.5t-37.5 96.5z" />
<glyph unicode="&#xcc;" horiz-adv-x="739" d="M27 1612q-6 43 19.5 70t62.5 30q58 6 112 -31q21 -16 130.5 -120t129.5 -121l-30 -47q-217 66 -330 110q-37 13 -64 42t-30 67zM41 -6l2 63q94 6 122.5 17.5t31.5 46.5q10 113 10 303v473q0 180 -4 266q-3 38 -32 49.5t-124 16.5l4 63q21 0 135 -3t183 -3q63 0 173.5 3 t139.5 3v-63q-90 -6 -116 -16.5t-27 -43.5q-9 -101 -9 -272v-465q0 -192 9 -307q3 -39 30 -51t119 -17l-4 -63q-29 0 -143.5 3t-184.5 3q-66 0 -177.5 -3t-137.5 -3z" />
<glyph unicode="&#xcd;" horiz-adv-x="739" d="M41 -6l2 63q94 6 122.5 17.5t31.5 46.5q10 113 10 303v473q0 180 -4 266q-3 38 -32 49.5t-124 16.5l4 63q21 0 135 -3t183 -3q63 0 173.5 3t139.5 3v-63q-90 -6 -116 -16.5t-27 -43.5q-9 -101 -9 -272v-465q0 -192 9 -307q3 -39 30 -51t119 -17l-4 -63q-29 0 -143.5 3 t-184.5 3q-66 0 -177.5 -3t-137.5 -3zM236 1430q29 22 145 121.5t145 121.5q37 27 84.5 33.5t81 -17.5t25.5 -77q-4 -38 -36 -68t-73 -45q-85 -34 -342 -115z" />
<glyph unicode="&#xce;" horiz-adv-x="739" d="M41 -6l2 63q94 6 122.5 17.5t31.5 46.5q10 113 10 303v473q0 180 -4 266q-3 38 -32 49.5t-124 16.5l4 63q21 0 135 -3t183 -3q63 0 173.5 3t139.5 3v-63q-90 -6 -116 -16.5t-27 -43.5q-9 -101 -9 -272v-465q0 -192 9 -307q3 -39 30 -51t119 -17l-4 -63q-29 0 -143.5 3 t-184.5 3q-66 0 -177.5 -3t-137.5 -3zM61 1436q191 122 279 260l53 8q29 -55 101.5 -130t177.5 -138l-33 -54q-161 48 -272 113q-124 -69 -273 -113z" />
<glyph unicode="&#xcf;" horiz-adv-x="739" d="M31 1528q0 63 36 102t93 39h2q58 0 92.5 -36.5t34.5 -92.5q0 -64 -41 -102.5t-92 -38.5t-88 32.5t-37 96.5zM41 -6l2 63q94 6 122.5 17.5t31.5 46.5q10 113 10 303v473q0 180 -4 266q-3 38 -32 49.5t-124 16.5l4 63q21 0 135 -3t183 -3q63 0 173.5 3t139.5 3v-63 q-90 -6 -116 -16.5t-27 -43.5q-9 -101 -9 -272v-465q0 -192 9 -307q3 -39 30 -51t119 -17l-4 -63q-29 0 -143.5 3t-184.5 3q-66 0 -177.5 -3t-137.5 -3zM440 1528q0 63 35.5 102t91.5 39h2q60 0 94.5 -36.5t34.5 -92.5q0 -64 -40 -102.5t-93 -38.5q-50 0 -87.5 32.5 t-37.5 96.5z" />
<glyph unicode="&#xd0;" horiz-adv-x="1466" d="M37 637l10 90q53 -3 182 -6v160q0 202 -4 288q-1 29 -12.5 40.5t-36.5 13.5l-113 12l3 59q14 0 125 -4t171 -4q30 1 152 4.5t197 3.5q297 0 426 -80q249 -151 249 -534q0 -101 -19 -192t-59 -174t-108 -149.5t-160 -107.5q-148 -63 -374 -63q-61 0 -179 4q-26 0 -78.5 1 t-76.5 1q-54 0 -159 -3t-116 -3l2 61l84 8q40 3 56 16t18 40q12 129 12 348v176q-101 0 -192 -6zM553 467q0 -293 6 -367q2 -21 19.5 -31t66.5 -10q105 0 169.5 32t107.5 93q106 162 106 482q0 330 -110 458q-43 51 -99.5 76t-161.5 25q-95 0 -98 -41q-6 -93 -6 -314v-151 q122 0 262 8l-12 -92q-13 0 -49.5 1t-93.5 2.5t-107 2.5v-174z" />
<glyph unicode="&#xd1;" horiz-adv-x="1376" d="M16 -6l2 63q11 0 95 13q33 4 50 28t23 72q10 88 21.5 358t11.5 598q-12 45 -33 66.5t-69 28.5l-88 8v63q8 0 106 -3t162 -3q157 0 229 6q17 -30 105 -170q50 -82 487 -725q2 543 -18 736q-7 50 -31 68.5t-82 21.5l-94 6l10 63q52 0 138.5 -3t117.5 -3q34 0 110.5 3 t106.5 3l2 -61q-72 -12 -96 -17q-27 -6 -39 -21t-20 -50q-11 -58 -20 -238t-9 -405v-502q-37 0 -103.5 -7.5t-99.5 -15.5q-99 160 -368 576.5t-332 515.5q0 -765 18 -913q11 -70 74 -80q139 -17 141 -17l-4 -63q-36 0 -130.5 3t-153.5 3q-55 0 -128.5 -3t-91.5 -3zM428 1415 q2 75 20.5 134.5t60 100t101.5 40.5q63 0 144 -70q69 -57 98 -57q59 0 68 131l73 -15q-3 -116 -45.5 -193t-124.5 -77q-36 0 -70.5 17.5t-86.5 60.5q-34 27 -53 38t-38 11q-29 0 -49.5 -36t-23.5 -93z" />
<glyph unicode="&#xd2;" horiz-adv-x="1439" d="M80 635q0 110 25 210t78 187t129 150.5t184 100t237 36.5h2q191 0 334 -85.5t217 -233.5t74 -338q0 -320 -165 -507.5t-474 -187.5q-158 0 -281 50t-201 140.5t-118.5 211.5t-40.5 266zM381 1630q-6 43 19.5 70.5t62.5 30.5q58 6 112 -31q21 -16 131 -120.5t130 -121.5 l-31 -47q-205 62 -330 111q-37 13 -64 42t-30 66zM451 672q0 -163 25.5 -303t66.5 -209q72 -125 192 -125q123 0 185 125q69 138 69 458q0 156 -20.5 290.5t-55.5 209.5q-36 68 -83.5 101.5t-114.5 33.5h-2q-119 0 -187 -127q-33 -61 -54 -179.5t-21 -274.5z" />
<glyph unicode="&#xd3;" horiz-adv-x="1439" d="M80 635q0 110 25 210t78 187t129 150.5t184 100t237 36.5h2q191 0 334 -85.5t217 -233.5t74 -338q0 -320 -165 -507.5t-474 -187.5q-158 0 -281 50t-201 140.5t-118.5 211.5t-40.5 266zM451 672q0 -163 25.5 -303t66.5 -209q72 -125 192 -125q123 0 185 125 q69 138 69 458q0 156 -20.5 290.5t-55.5 209.5q-36 68 -83.5 101.5t-114.5 33.5h-2q-119 0 -187 -127q-33 -61 -54 -179.5t-21 -274.5zM563 1456q29 22 145.5 122t145.5 122q37 27 84.5 33.5t80.5 -17.5t25 -78q-4 -38 -35.5 -67.5t-72.5 -44.5q-85 -34 -342 -115z" />
<glyph unicode="&#xd4;" horiz-adv-x="1439" d="M80 635q0 110 25 210t78 187t129 150.5t184 100t237 36.5h2q191 0 334 -85.5t217 -233.5t74 -338q0 -320 -165 -507.5t-474 -187.5q-158 0 -281 50t-201 140.5t-118.5 211.5t-40.5 266zM408 1456q190 121 278 260l53 8q29 -55 101.5 -130t177.5 -138l-33 -53 q-161 48 -272 113q-124 -69 -273 -113zM451 672q0 -163 25.5 -303t66.5 -209q72 -125 192 -125q123 0 185 125q69 138 69 458q0 156 -20.5 290.5t-55.5 209.5q-36 68 -83.5 101.5t-114.5 33.5h-2q-119 0 -187 -127q-33 -61 -54 -179.5t-21 -274.5z" />
<glyph unicode="&#xd5;" horiz-adv-x="1439" d="M80 635q0 110 25 210t78 187t129 150.5t184 100t237 36.5h2q191 0 334 -85.5t217 -233.5t74 -338q0 -320 -165 -507.5t-474 -187.5q-158 0 -281 50t-201 140.5t-118.5 211.5t-40.5 266zM430 1423q2 75 20.5 134.5t60 100t101.5 40.5q63 0 144 -70q69 -57 98 -57 q59 0 68 131l73 -14q-3 -116 -45.5 -193.5t-124.5 -77.5q-36 0 -70.5 17.5t-86.5 60.5q-34 28 -52.5 38.5t-37.5 10.5q-29 0 -50 -36t-24 -93zM451 672q0 -163 25.5 -303t66.5 -209q72 -125 192 -125q123 0 185 125q69 138 69 458q0 156 -20.5 290.5t-55.5 209.5 q-36 68 -83.5 101.5t-114.5 33.5h-2q-119 0 -187 -127q-33 -61 -54 -179.5t-21 -274.5z" />
<glyph unicode="&#xd6;" horiz-adv-x="1439" d="M80 635q0 110 25 210t78 187t129 150.5t184 100t237 36.5h2q191 0 334 -85.5t217 -233.5t74 -338q0 -320 -165 -507.5t-474 -187.5q-158 0 -281 50t-201 140.5t-118.5 211.5t-40.5 266zM381 1544q0 63 36 102.5t93 39.5h2q58 0 92.5 -37t34.5 -93q0 -64 -41 -102.5 t-92 -38.5t-88 32.5t-37 96.5zM451 672q0 -163 25.5 -303t66.5 -209q72 -125 192 -125q123 0 185 125q69 138 69 458q0 156 -20.5 290.5t-55.5 209.5q-36 68 -83.5 101.5t-114.5 33.5h-2q-119 0 -187 -127q-33 -61 -54 -179.5t-21 -274.5zM791 1544q0 63 35.5 102.5 t91.5 39.5h2q60 0 94.5 -37t34.5 -93q0 -64 -40.5 -102.5t-93.5 -38.5q-50 0 -87 32.5t-37 96.5z" />
<glyph unicode="&#xd7;" horiz-adv-x="1091" d="M123 121l336 342l-336 338l90 94l332 -344l336 348l90 -96l-338 -340l338 -342l-90 -96l-336 348l-332 -348z" />
<glyph unicode="&#xd8;" horiz-adv-x="1443" d="M82 633q0 139 43 261.5t123.5 218t208 151t286.5 55.5q191 0 332 -84q4 6 82 121l74 -43q-74 -103 -90 -123q106 -89 163.5 -226t57.5 -298q0 -207 -72.5 -363t-220.5 -246t-354 -90q-209 0 -348 88q-15 -23 -29.5 -44t-32.5 -47t-31 -44l-75 37q19 27 51.5 70.5 t50.5 70.5q-107 88 -163 228t-56 307zM449 655q0 -190 36 -315q91 142 245.5 392t207.5 335q-32 91 -80.5 138.5t-128.5 47.5h-2q-110 0 -182 -110q-41 -67 -68.5 -202t-27.5 -286zM512 238q67 -203 209 -203h2q64 0 110 27.5t80 91.5q37 70 59.5 204.5t22.5 296.5 q0 192 -30 312q-175 -273 -453 -729z" />
<glyph unicode="&#xd9;" horiz-adv-x="1349" d="M39 1233v61q37 0 147.5 -4t169.5 -4q60 0 164.5 4t138.5 4l7 -63l-99 -10q-21 -1 -30.5 -13t-12.5 -37q-12 -118 -13.5 -370.5t7.5 -423.5q4 -107 22.5 -158t57.5 -86q29 -29 84 -46t106 -17h3q48 0 85 6.5t75 27t64 55t45.5 94t26.5 140.5q12 220 9.5 413.5t-13.5 332.5 q-3 50 -20 65.5t-57 18.5l-105 10l-6 61q30 0 107 -4t118 -4q36 0 107 4t110 4l9 -61l-78 -8q-39 -3 -52 -21t-16 -65q-3 -63 -12 -379t-21 -416q-25 -197 -151 -289q-116 -88 -334 -88q-297 0 -410 137q-43 53 -63 122t-21 177q-1 81 -2 384.5t-2 367.5q-2 35 -9.5 50 t-29.5 16zM401 1614q-6 43 19.5 70t62.5 30q59 6 113 -31q21 -16 130.5 -120t129.5 -121l-31 -47q-213 65 -329 110q-37 13 -64.5 42.5t-30.5 66.5z" />
<glyph unicode="&#xda;" horiz-adv-x="1349" d="M39 1233v61q37 0 147.5 -4t169.5 -4q60 0 164.5 4t138.5 4l7 -63l-99 -10q-21 -1 -30.5 -13t-12.5 -37q-12 -118 -13.5 -370.5t7.5 -423.5q4 -107 22.5 -158t57.5 -86q29 -29 84 -46t106 -17h3q48 0 85 6.5t75 27t64 55t45.5 94t26.5 140.5q12 220 9.5 413.5t-13.5 332.5 q-3 50 -20 65.5t-57 18.5l-105 10l-6 61q30 0 107 -4t118 -4q36 0 107 4t110 4l9 -61l-78 -8q-39 -3 -52 -21t-16 -65q-3 -63 -12 -379t-21 -416q-25 -197 -151 -289q-116 -88 -334 -88q-297 0 -410 137q-43 53 -63 122t-21 177q-1 81 -2 384.5t-2 367.5q-2 35 -9.5 50 t-29.5 16zM575 1440q29 22 145.5 121.5t145.5 121.5q37 27 84.5 33.5t81 -17.5t25.5 -77q-4 -38 -36 -68t-73 -45q-73 -29 -342 -114z" />
<glyph unicode="&#xdb;" horiz-adv-x="1349" d="M39 1233v61q37 0 147.5 -4t169.5 -4q60 0 164.5 4t138.5 4l7 -63l-99 -10q-21 -1 -30.5 -13t-12.5 -37q-12 -118 -13.5 -370.5t7.5 -423.5q4 -107 22.5 -158t57.5 -86q29 -29 84 -46t106 -17h3q48 0 85 6.5t75 27t64 55t45.5 94t26.5 140.5q12 220 9.5 413.5t-13.5 332.5 q-3 50 -20 65.5t-57 18.5l-105 10l-6 61q30 0 107 -4t118 -4q36 0 107 4t110 4l9 -61l-78 -8q-39 -3 -52 -21t-16 -65q-3 -63 -12 -379t-21 -416q-25 -197 -151 -289q-116 -88 -334 -88q-297 0 -410 137q-43 53 -63 122t-21 177q-1 81 -2 384.5t-2 367.5q-2 35 -9.5 50 t-29.5 16zM426 1444q191 122 279 260l53 8q29 -56 101 -130.5t177 -137.5l-32 -53q-166 49 -273 112q-121 -67 -272 -112z" />
<glyph unicode="&#xdc;" horiz-adv-x="1349" d="M39 1233v61q37 0 147.5 -4t169.5 -4q60 0 164.5 4t138.5 4l7 -63l-99 -10q-21 -1 -30.5 -13t-12.5 -37q-12 -118 -13.5 -370.5t7.5 -423.5q4 -107 22.5 -158t57.5 -86q29 -29 84 -46t106 -17h3q48 0 85 6.5t75 27t64 55t45.5 94t26.5 140.5q12 220 9.5 413.5t-13.5 332.5 q-3 50 -20 65.5t-57 18.5l-105 10l-6 61q30 0 107 -4t118 -4q36 0 107 4t110 4l9 -61l-78 -8q-39 -3 -52 -21t-16 -65q-3 -63 -12 -379t-21 -416q-25 -197 -151 -289q-116 -88 -334 -88q-297 0 -410 137q-43 53 -63 122t-21 177q-1 81 -2 384.5t-2 367.5q-2 35 -9.5 50 t-29.5 16zM391 1534q0 63 36 102t93 39h2q58 0 92.5 -36.5t34.5 -92.5q0 -64 -41 -102.5t-92 -38.5t-88 32.5t-37 96.5zM801 1534q0 63 35.5 102t91.5 39h2q60 0 94.5 -36.5t34.5 -92.5q0 -64 -40 -102.5t-93 -38.5q-50 0 -87.5 32.5t-37.5 96.5z" />
<glyph unicode="&#xdd;" horiz-adv-x="1196" d="M-35 1229v63q16 0 129 -3t180 -3q87 0 192.5 3t131.5 3l6 -63l-86 -8q-24 -3 -26.5 -17.5t10.5 -40.5q82 -179 233 -477q149 297 209 459q12 41 7.5 55t-27.5 17q-15 2 -55 7t-60 7l6 61q14 0 93 -3t130 -3q44 0 113 3t102 3l7 -63q-88 -5 -125.5 -23t-75.5 -76 q-94 -143 -262 -487q-23 -45 -23 -96q-5 -304 6 -426q3 -23 12 -33.5t33 -13.5q117 -15 138 -17l8 -63q-61 0 -190.5 3t-194.5 3q-76 0 -187 -3t-159 -3l-7 63q28 2 132 17q38 5 55 20.5t20 50.5q6 66 11 387q0 47 -23 97q-35 79 -126.5 244t-154.5 266q-35 56 -68 72.5 t-114 17.5zM494 1442q29 22 145 122t145 122q37 27 84.5 33t81 -18t25.5 -77q-4 -38 -36 -68t-73 -45q-73 -29 -342 -114z" />
<glyph unicode="&#xde;" horiz-adv-x="1249" d="M41 -6l4 63q99 6 125 19.5t29 60.5q8 126 8 316v458q0 211 -2 256q-1 36 -29 47.5t-123 16.5l13 63q25 0 122 -2.5t170 -3.5q80 -1 187 2.5t131 3.5l2 -63q-65 -2 -93 -8t-36 -15.5t-10 -33.5q-4 -37 -4 -130q193 7 217 7q219 0 321 -95q105 -102 105 -282 q0 -181 -115 -293q-61 -60 -160 -89.5t-205 -29.5q-100 0 -168 19q0 -98 5 -152q1 -30 10.5 -42t43 -19t116.5 -11l-3 -63q-31 0 -144.5 3t-197.5 3q-58 0 -171 -3t-148 -3zM530 369q51 -33 119 -33q91 0 133 74q52 91 52 260q0 172 -60 248q-27 33 -62.5 47t-97.5 14 q-79 0 -79 -33q-5 -78 -5 -160v-417z" />
<glyph unicode="&#xdf;" horiz-adv-x="1261" d="M47 -6l2 63q73 1 95 13t24 47q8 102 8 336v340l-125 12l6 69h121v21q0 213 154 352q136 129 366 129q105 0 184 -26t123.5 -70.5t65.5 -97t21 -111.5q0 -55 -13 -88q-115 -29 -169 -77t-54 -103q0 -60 53 -107q23 -21 73.5 -61t68.5 -55q73 -56 109 -117t36 -152 q0 -156 -109.5 -247t-273.5 -91q-78 0 -211 35q6 66 -4 207l55 10q18 -80 63.5 -130t112.5 -50q50 0 89.5 34.5t39.5 94.5q0 72 -67 133q-11 9 -56.5 46.5t-70.5 60.5q-64 56 -93.5 110.5t-29.5 126.5q0 89 57.5 164t165.5 129q19 43 19 119q0 105 -49 175.5t-142 70.5 q-118 0 -168.5 -125t-50.5 -377v-424q0 -207 4 -262q3 -36 18.5 -48t67.5 -16l-2 -63q-49 1 -139.5 3.5t-136.5 2.5t-132 -3t-106 -3z" />
<glyph unicode="&#xe0;" horiz-adv-x="1069" d="M70 233q0 140 116 189q45 18 143.5 52t171.5 63t117 57v80q0 164 -116 164q-131 0 -131 -138q0 -14 2.5 -36t3 -34t-4.5 -26t-18 -24q-45 -33 -106 -33q-57 0 -95 26.5t-38 85.5q0 92 123 168t309 76q242 0 332 -131q28 -47 28 -98v-502q0 -44 10 -60t29 -16 q23 0 46.5 36.5t35.5 94.5l64 -26q-49 -230 -269 -230q-88 0 -136 37t-66 109q-143 -146 -287 -146q-124 0 -194 71t-70 191zM254 1323q0 48 24.5 72t59.5 24q72 0 119 -82q18 -29 82 -163t75 -156l-45 -33q-69 58 -162.5 138.5t-103.5 88.5q-19 21 -34 54t-15 57zM379 283 q0 -67 29.5 -115.5t85.5 -48.5q76 0 110 84q14 28 14 94v225q-21 -13 -77 -41.5t-80 -42.5q-42 -26 -62 -58.5t-20 -94.5v-2z" />
<glyph unicode="&#xe1;" horiz-adv-x="1069" d="M70 233q0 140 116 189q45 18 143.5 52t171.5 63t117 57v80q0 164 -116 164q-131 0 -131 -138q0 -14 2.5 -36t3 -34t-4.5 -26t-18 -24q-45 -33 -106 -33q-57 0 -95 26.5t-38 85.5q0 92 123 168t309 76q242 0 332 -131q28 -47 28 -98v-502q0 -44 10 -60t29 -16 q23 0 46.5 36.5t35.5 94.5l64 -26q-49 -230 -269 -230q-88 0 -136 37t-66 109q-143 -146 -287 -146q-124 0 -194 71t-70 191zM379 283q0 -67 29.5 -115.5t85.5 -48.5q76 0 110 84q14 28 14 94v225q-21 -13 -77 -41.5t-80 -42.5q-42 -26 -62 -58.5t-20 -94.5v-2zM428 1020 q17 27 98 160.5t99 160.5q57 80 127 80q37 0 56 -24t19 -64q0 -33 -22 -68t-53 -61q-22 -19 -61 -50t-106.5 -82.5t-111.5 -86.5z" />
<glyph unicode="&#xe2;" horiz-adv-x="1069" d="M70 233q0 140 116 189q45 18 143.5 52t171.5 63t117 57v80q0 164 -116 164q-131 0 -131 -138q0 -14 2.5 -36t3 -34t-4.5 -26t-18 -24q-45 -33 -106 -33q-57 0 -95 26.5t-38 85.5q0 92 123 168t309 76q242 0 332 -131q28 -47 28 -98v-502q0 -44 10 -60t29 -16 q23 0 46.5 36.5t35.5 94.5l64 -26q-49 -230 -269 -230q-88 0 -136 37t-66 109q-143 -146 -287 -146q-124 0 -194 71t-70 191zM266 1028q162 206 242 387l57 10q73 -180 240 -397l-47 -43q-47 36 -113.5 96.5t-109.5 108.5q-43 -48 -108.5 -107t-115.5 -98zM379 283 q0 -67 29.5 -115.5t85.5 -48.5q76 0 110 84q14 28 14 94v225q-21 -13 -77 -41.5t-80 -42.5q-42 -26 -62 -58.5t-20 -94.5v-2z" />
<glyph unicode="&#xe3;" horiz-adv-x="1069" d="M70 233q0 140 116 189q45 18 143.5 52t171.5 63t117 57v80q0 164 -116 164q-131 0 -131 -138q0 -14 2.5 -36t3 -34t-4.5 -26t-18 -24q-45 -33 -106 -33q-57 0 -95 26.5t-38 85.5q0 92 123 168t309 76q242 0 332 -131q28 -47 28 -98v-502q0 -44 10 -60t29 -16 q23 0 46.5 36.5t35.5 94.5l64 -26q-49 -230 -269 -230q-88 0 -136 37t-66 109q-143 -146 -287 -146q-124 0 -194 71t-70 191zM256 1032q3 113 47 190.5t133 77.5q57 0 139 -65q73 -59 101 -59q57 0 65 127l70 -15q-3 -118 -43 -192t-123 -74q-34 0 -67 16.5t-86 57.5 q-24 21 -35 29t-26.5 15t-31.5 7q-29 0 -48.5 -32t-22.5 -91zM379 283q0 -67 29.5 -115.5t85.5 -48.5q76 0 110 84q14 28 14 94v225q-21 -13 -77 -41.5t-80 -42.5q-42 -26 -62 -58.5t-20 -94.5v-2z" />
<glyph unicode="&#xe4;" horiz-adv-x="1069" d="M70 233q0 140 116 189q45 18 143.5 52t171.5 63t117 57v80q0 164 -116 164q-131 0 -131 -138q0 -14 2.5 -36t3 -34t-4.5 -26t-18 -24q-45 -33 -106 -33q-57 0 -95 26.5t-38 85.5q0 92 123 168t309 76q242 0 332 -131q28 -47 28 -98v-502q0 -44 10 -60t29 -16 q23 0 46.5 36.5t35.5 94.5l64 -26q-49 -230 -269 -230q-88 0 -136 37t-66 109q-143 -146 -287 -146q-124 0 -194 71t-70 191zM201 1161q0 64 37 105t96 41h2q61 0 96 -37.5t35 -98.5q0 -66 -42.5 -105.5t-96.5 -39.5q-51 0 -89 34t-38 101zM379 283q0 -67 29.5 -115.5 t85.5 -48.5q76 0 110 84q14 28 14 94v225q-21 -13 -77 -41.5t-80 -42.5q-42 -26 -62 -58.5t-20 -94.5v-2zM604 1161q0 64 37 105t96 41h2q60 0 95.5 -36.5t35.5 -96.5q0 -67 -42 -107.5t-95 -40.5q-52 0 -90.5 34.5t-38.5 100.5z" />
<glyph unicode="&#xe5;" horiz-adv-x="1069" d="M70 233q0 140 116 189q45 18 143.5 52t171.5 63t117 57v80q0 164 -116 164q-131 0 -131 -138q0 -14 2.5 -36t3 -34t-4.5 -26t-18 -24q-45 -33 -106 -33q-57 0 -95 26.5t-38 85.5q0 92 123 168t309 76q242 0 332 -131q28 -47 28 -98v-502q0 -44 10 -60t29 -16 q23 0 46.5 36.5t35.5 94.5l64 -26q-49 -230 -269 -230q-88 0 -136 37t-66 109q-143 -146 -287 -146q-124 0 -194 71t-70 191zM324 1182q0 98 61.5 151t159.5 53h2q92 0 148.5 -49t56.5 -141q0 -95 -62.5 -149t-154.5 -54q-94 0 -152.5 49t-58.5 140zM379 283 q0 -67 29.5 -115.5t85.5 -48.5q76 0 110 84q14 28 14 94v225q-21 -13 -77 -41.5t-80 -42.5q-42 -26 -62 -58.5t-20 -94.5v-2zM459 1194q0 -69 22.5 -105t59.5 -36q77 0 77 143q0 20 -3.5 41t-11 43t-24 35.5t-38.5 13.5h-2q-80 0 -80 -135z" />
<glyph unicode="&#xe6;" horiz-adv-x="1525" d="M70 227q0 81 30 124.5t90 70.5q33 13 81 30.5t91 32.5t89 32t89.5 36.5t77.5 38.5v86q0 77 -32 118.5t-90 41.5q-62 0 -94.5 -36.5t-30.5 -99.5q0 -13 2.5 -35.5t3.5 -35t-4.5 -28t-20.5 -25.5q-48 -29 -106 -29q-62 0 -96.5 29.5t-34.5 80.5q0 93 121.5 169t302.5 75 q99 0 166.5 -28.5t99.5 -73.5q50 49 123.5 75.5t152.5 26.5q97 0 170.5 -28t113 -67.5t64 -94t31 -95.5t6.5 -83q0 -60 -34 -76q-40 -25 -162 -31q-145 -10 -352 -6q-1 -41 2.5 -78t11.5 -71.5t21.5 -62.5t32.5 -51.5t44 -39.5t57 -24.5t70 -8.5q90 0 148 50.5t96 146.5 l61 -33q-50 -141 -149.5 -210t-261.5 -69q-137 0 -233 47.5t-142 135.5q-35 -32 -56 -50t-60.5 -47t-71 -45t-74 -28.5t-82.5 -12.5q-124 1 -193 72.5t-69 183.5zM379 272q0 -64 31 -110.5t82 -46.5q82 0 114 86q10 31 10 100l2 219q-12 -7 -72 -37.5t-89 -48.5 q-38 -24 -58 -58.5t-20 -101.5v-2zM922 496q31 -4 108 -4q84 0 125 12q33 11 33 67q0 54 -6 100t-20 84.5t-38.5 60.5t-58.5 22h-2q-63 0 -100.5 -94.5t-40.5 -247.5z" />
<glyph unicode="&#xe7;" horiz-adv-x="978" d="M70 422q0 139 56 246.5t170.5 171t274.5 63.5q154 0 252.5 -62t98.5 -167q0 -48 -25.5 -80.5t-59 -44.5t-71.5 -12q-39 0 -73 18.5t-27 50.5q12 62 12 86q0 144 -111 144q-84 0 -130 -103t-46 -270q0 -77 12.5 -141.5t39 -118.5t73.5 -84.5t111 -30.5q89 0 146.5 49 t98.5 160l62 -33q-81 -269 -344 -291q-6 -12 -21 -34.5t-22 -34.5q40 -8 73 -24.5t59 -53.5t26 -88q0 -83 -57.5 -135t-153.5 -52q-78 0 -140 39l21 66q45 -25 98 -25q38 0 60 17t22 49q0 35 -37 55.5t-100 20.5l-10 26q8 12 47.5 72t64.5 100q-247 6 -360 146 q-90 109 -90 305z" />
<glyph unicode="&#xe8;" horiz-adv-x="995" d="M70 422q0 99 29.5 184.5t86 152.5t148 105.5t207.5 38.5q98 0 173 -28t115.5 -67.5t65.5 -93.5t32 -95t7 -82q0 -64 -35 -82q-17 -8 -43 -14t-64.5 -9.5t-70.5 -6t-84.5 -3t-82 -1t-87.5 0t-78 0.5q-2 -69 10.5 -128t39.5 -106.5t74 -74.5t110 -27q167 0 245 203l64 -35 q-101 -283 -410 -283q-249 0 -360 140q-92 112 -92 311zM242 1323q0 48 24.5 72t59.5 24q71 0 118 -82q18 -29 82.5 -163.5t75.5 -155.5l-45 -33q-69 58 -162.5 138.5t-103.5 88.5q-19 21 -34 54t-15 57zM393 492h103q84 0 125 12q36 9 36 84q0 35 -5 72.5t-16.5 80 t-36.5 70t-60 27.5h-2q-66 0 -103.5 -95t-40.5 -251z" />
<glyph unicode="&#xe9;" horiz-adv-x="995" d="M70 422q0 99 29.5 184.5t86 152.5t148 105.5t207.5 38.5q98 0 173 -28t115.5 -67.5t65.5 -93.5t32 -95t7 -82q0 -64 -35 -82q-17 -8 -43 -14t-64.5 -9.5t-70.5 -6t-84.5 -3t-82 -1t-87.5 0t-78 0.5q-2 -69 10.5 -128t39.5 -106.5t74 -74.5t110 -27q167 0 245 203l64 -35 q-101 -283 -410 -283q-249 0 -360 140q-92 112 -92 311zM393 492h103q84 0 125 12q36 9 36 84q0 35 -5 72.5t-16.5 80t-36.5 70t-60 27.5h-2q-66 0 -103.5 -95t-40.5 -251zM412 1020q18 28 98 161t98 160q57 80 127 80q37 0 56.5 -24t19.5 -64q0 -33 -22.5 -68t-53.5 -61 q-11 -10 -278 -219z" />
<glyph unicode="&#xea;" horiz-adv-x="995" d="M70 422q0 99 29.5 184.5t86 152.5t148 105.5t207.5 38.5q98 0 173 -28t115.5 -67.5t65.5 -93.5t32 -95t7 -82q0 -64 -35 -82q-17 -8 -43 -14t-64.5 -9.5t-70.5 -6t-84.5 -3t-82 -1t-87.5 0t-78 0.5q-2 -69 10.5 -128t39.5 -106.5t74 -74.5t110 -27q167 0 245 203l64 -35 q-101 -283 -410 -283q-249 0 -360 140q-92 112 -92 311zM260 1028q162 206 242 387l57 10q73 -180 240 -397l-47 -43q-48 37 -114.5 97t-109.5 108q-96 -107 -223 -205zM393 492h103q84 0 125 12q36 9 36 84q0 35 -5 72.5t-16.5 80t-36.5 70t-60 27.5h-2q-66 0 -103.5 -95 t-40.5 -251z" />
<glyph unicode="&#xeb;" horiz-adv-x="995" d="M70 422q0 99 29.5 184.5t86 152.5t148 105.5t207.5 38.5q98 0 173 -28t115.5 -67.5t65.5 -93.5t32 -95t7 -82q0 -64 -35 -82q-17 -8 -43 -14t-64.5 -9.5t-70.5 -6t-84.5 -3t-82 -1t-87.5 0t-78 0.5q-2 -69 10.5 -128t39.5 -106.5t74 -74.5t110 -27q167 0 245 203l64 -35 q-101 -283 -410 -283q-249 0 -360 140q-92 112 -92 311zM186 1161q0 64 37 105t96 41h3q61 0 96 -37.5t35 -98.5q0 -66 -43 -105.5t-97 -39.5q-51 0 -89 34t-38 101zM393 492h103q84 0 125 12q36 9 36 84q0 35 -5 72.5t-16.5 80t-36.5 70t-60 27.5h-2q-66 0 -103.5 -95 t-40.5 -251zM590 1161q0 64 37 105t96 41h2q60 0 95.5 -36.5t35.5 -96.5q0 -67 -42 -107.5t-95 -40.5q-52 0 -90.5 34.5t-38.5 100.5z" />
<glyph unicode="&#xec;" horiz-adv-x="626" d="M31 1323q0 48 24.5 72t59.5 24q71 0 118 -82q18 -29 82.5 -163.5t75.5 -155.5l-45 -33q-69 58 -162.5 138.5t-103.5 88.5q-19 21 -34 54t-15 57zM45 -6l2 63q74 3 96.5 16t24.5 46q6 59 6 221v207q0 180 -2 213q-3 26 -24 33t-91 6l2 63q16 1 66.5 4t73.5 4.5t68 4.5 t74.5 6.5t66.5 8.5t69 11q-6 -147 -6 -326v-243q0 -68 6 -209q2 -37 21.5 -48.5t89.5 -17.5v-63q-32 0 -123.5 3t-161.5 3q-77 0 -156 -3t-102 -3z" />
<glyph unicode="&#xed;" horiz-adv-x="626" d="M45 -6l2 63q74 3 96.5 16t24.5 46q6 59 6 221v207q0 180 -2 213q-3 26 -24 33t-91 6l2 63q16 1 66.5 4t73.5 4.5t68 4.5t74.5 6.5t66.5 8.5t69 11q-6 -147 -6 -326v-243q0 -68 6 -209q2 -37 21.5 -48.5t89.5 -17.5v-63q-32 0 -123.5 3t-161.5 3q-77 0 -156 -3t-102 -3z M217 1020q17 27 98 160.5t99 160.5q57 80 127 80q37 0 56 -24t19 -64q0 -33 -22 -68t-53 -61q-22 -19 -61 -50t-106.5 -82.5t-111.5 -86.5z" />
<glyph unicode="&#xee;" horiz-adv-x="626" d="M43 1028q162 206 242 387l57 10q73 -180 240 -397l-47 -43q-48 37 -114.5 97t-109.5 108q-96 -107 -223 -205zM45 -6l2 63q74 3 96.5 16t24.5 46q6 59 6 221v207q0 180 -2 213q-3 26 -24 33t-91 6l2 63q16 1 66.5 4t73.5 4.5t68 4.5t74.5 6.5t66.5 8.5t69 11 q-6 -147 -6 -326v-243q0 -68 6 -209q2 -37 21.5 -48.5t89.5 -17.5v-63q-32 0 -123.5 3t-161.5 3q-77 0 -156 -3t-102 -3z" />
<glyph unicode="&#xef;" horiz-adv-x="626" d="M-20 1161q0 64 37 105t96 41h2q61 0 96 -37.5t35 -98.5q0 -66 -43 -105.5t-97 -39.5q-51 0 -88.5 34t-37.5 101zM45 -6l2 63q74 3 96.5 16t24.5 46q6 59 6 221v207q0 180 -2 213q-3 26 -24 33t-91 6l2 63q16 1 66.5 4t73.5 4.5t68 4.5t74.5 6.5t66.5 8.5t69 11 q-6 -147 -6 -326v-243q0 -68 6 -209q2 -37 21.5 -48.5t89.5 -17.5v-63q-32 0 -123.5 3t-161.5 3q-77 0 -156 -3t-102 -3zM383 1161q0 64 37 105t96 41h2q60 0 95.5 -36.5t35.5 -96.5q0 -67 -42 -107.5t-95 -40.5q-52 0 -90.5 34.5t-38.5 100.5z" />
<glyph unicode="&#xf0;" horiz-adv-x="1132" d="M70 422q0 211 131.5 346t353.5 135q92 0 156 -37q-19 141 -97 240q-127 -56 -297 -145l-32 77q60 27 278 127q-65 66 -154.5 102.5t-185.5 39.5l10 63q274 6 486 -133q44 23 86.5 44.5t86.5 44.5t66 34l31 -74q-109 -54 -207 -98q132 -108 201.5 -275t69.5 -362 q0 -272 -133 -426t-379 -154q-221 0 -346 125t-125 326zM399 449q0 -410 174 -410q83 0 121 92q45 98 45 381q0 152 -18 238q-47 88 -150 88h-2q-74 0 -114 -70q-26 -45 -41 -132t-15 -187z" />
<glyph unicode="&#xf1;" horiz-adv-x="1208" d="M55 -6v63q73 3 92.5 14t22.5 50q6 94 6 223v195q0 147 -6 227q-2 21 -19.5 27.5t-82.5 9.5l2 63q205 0 389 29q13 -85 16 -133q70 64 143 102.5t170 38.5q90 0 149.5 -34.5t86.5 -82.5q31 -54 31 -127v-544q0 -32 18.5 -41.5t100.5 -16.5l-3 -63q-40 0 -128.5 3t-141.5 3 q-73 0 -155 -3t-91 -3v63q54 3 73.5 16t21.5 44q8 82 8 274q1 202 -2 254.5t-15 73.5q-30 53 -94 53q-67 0 -120.5 -50.5t-53.5 -129.5v-258q0 -164 4 -223q2 -28 22 -39t81 -15v-63q-19 0 -114.5 3t-148.5 3q-63 0 -150 -3t-112 -3zM326 1032q3 113 47 190.5t133 77.5 q57 0 139 -65q73 -59 100 -59q58 0 66 127l70 -15q-3 -118 -43 -192t-123 -74q-34 0 -67.5 16.5t-86.5 57.5q-25 21 -35 29t-25.5 15t-31.5 7q-29 0 -49 -32t-23 -91z" />
<glyph unicode="&#xf2;" horiz-adv-x="1134" d="M70 428q0 210 134 342.5t374 132.5h2q219 0 353 -123t134 -338q0 -219 -136.5 -345t-367.5 -126q-123 0 -218.5 34.5t-154.5 96t-89.5 144t-30.5 182.5zM295 1323q0 48 24.5 72t59.5 24q72 0 119 -82q18 -29 82 -163t75 -156l-45 -33q-69 58 -162.5 138.5t-103.5 88.5 q-19 21 -34 54t-15 57zM399 471q0 -223 52 -336q42 -96 133 -96q82 0 118 84q41 103 41 299q0 227 -53 328q-44 86 -123 86h-2q-73 0 -119 -80q-47 -92 -47 -285z" />
<glyph unicode="&#xf3;" horiz-adv-x="1134" d="M70 428q0 210 134 342.5t374 132.5h2q219 0 353 -123t134 -338q0 -219 -136.5 -345t-367.5 -126q-123 0 -218.5 34.5t-154.5 96t-89.5 144t-30.5 182.5zM399 471q0 -223 52 -336q42 -96 133 -96q82 0 118 84q41 103 41 299q0 227 -53 328q-44 86 -123 86h-2 q-73 0 -119 -80q-47 -92 -47 -285zM465 1020q17 27 98 160.5t99 160.5q57 80 126 80q37 0 56.5 -24t19.5 -64q0 -33 -22.5 -68t-53.5 -61q-11 -10 -278 -219z" />
<glyph unicode="&#xf4;" horiz-adv-x="1134" d="M70 428q0 210 134 342.5t374 132.5h2q219 0 353 -123t134 -338q0 -219 -136.5 -345t-367.5 -126q-123 0 -218.5 34.5t-154.5 96t-89.5 144t-30.5 182.5zM315 1028q162 206 242 387l57 10q73 -180 240 -397l-47 -43q-47 36 -113.5 96.5t-109.5 108.5q-43 -48 -108.5 -107 t-115.5 -98zM399 471q0 -223 52 -336q42 -96 133 -96q82 0 118 84q41 103 41 299q0 227 -53 328q-44 86 -123 86h-2q-73 0 -119 -80q-47 -92 -47 -285z" />
<glyph unicode="&#xf5;" horiz-adv-x="1134" d="M70 428q0 210 134 342.5t374 132.5h2q219 0 353 -123t134 -338q0 -219 -136.5 -345t-367.5 -126q-123 0 -218.5 34.5t-154.5 96t-89.5 144t-30.5 182.5zM287 1032q3 113 47 190.5t133 77.5q57 0 139 -65q73 -59 101 -59q57 0 65 127l70 -15q-3 -118 -43 -192t-123 -74 q-34 0 -67.5 16.5t-86.5 57.5q-25 21 -35 29t-25.5 15t-31.5 7q-29 0 -49 -32t-23 -91zM399 471q0 -223 52 -336q42 -96 133 -96q82 0 118 84q41 103 41 299q0 227 -53 328q-44 86 -123 86h-2q-73 0 -119 -80q-47 -92 -47 -285z" />
<glyph unicode="&#xf6;" horiz-adv-x="1134" d="M70 428q0 210 134 342.5t374 132.5h2q219 0 353 -123t134 -338q0 -219 -136.5 -345t-367.5 -126q-123 0 -218.5 34.5t-154.5 96t-89.5 144t-30.5 182.5zM231 1161q0 64 37.5 105t96.5 41h2q61 0 96 -37.5t35 -98.5q0 -66 -43 -105.5t-97 -39.5q-51 0 -89 34t-38 101z M399 471q0 -223 52 -336q42 -96 133 -96q82 0 118 84q41 103 41 299q0 227 -53 328q-44 86 -123 86h-2q-73 0 -119 -80q-47 -92 -47 -285zM635 1161q0 64 37 105t96 41h2q60 0 95.5 -36.5t35.5 -96.5q0 -67 -42 -107.5t-95 -40.5q-52 0 -90.5 34.5t-38.5 100.5z" />
<glyph unicode="&#xf7;" horiz-adv-x="1091" d="M106 422v123h877v-123h-877zM442 170q0 45 32 78t73 33h2q46 0 76 -32t30 -79q0 -43 -31 -76t-75 -33q-41 0 -74 33t-33 76zM442 797q0 41 33.5 74.5t73.5 33.5q45 0 76.5 -33t31.5 -75q0 -49 -31 -80t-79 -31h-2q-38 0 -70.5 33.5t-32.5 77.5z" />
<glyph unicode="&#xf8;" horiz-adv-x="1136" d="M70 422q0 208 141 344.5t373 136.5q151 0 254 -53l67 92l80 -41l-78 -96q77 -59 119.5 -152t42.5 -209q0 -208 -140.5 -340.5t-371.5 -132.5q-153 0 -256 56l-76 -99l-75 39l83 101q-81 58 -122 151t-41 203zM395 442q0 -97 17 -166q104 144 301 429q-16 55 -50.5 94 t-87.5 39q-76 3 -122 -78q-24 -42 -41 -126t-17 -190v-2zM432 178q48 -141 139 -141q93 0 131 86q46 108 46 319v2q0 78 -13 164q-58 -79 -166 -234.5t-137 -195.5z" />
<glyph unicode="&#xf9;" horiz-adv-x="1189" d="M35 811l4 63q165 0 422 21q-19 -112 -19 -403q0 -274 11 -328q13 -66 79 -66q65 0 112.5 45t70.5 109q18 46 18 117v229q0 123 -6 168q-3 25 -26.5 32t-90.5 9v63q167 5 252 11q35 2 75 4.5t64.5 4t34.5 1.5q-6 -141 -6 -279v-235q0 -176 6 -250q2 -27 11 -38t33 -14.5 t81 -2.5l-2 -66q-63 -2 -209.5 -14.5t-208.5 -20.5q-5 67 -10 162q-145 -162 -344 -162q-100 0 -152.5 34t-70.5 77q-21 43 -21 121q0 75 2 219t2 199q0 114 -2 147q-3 28 -23.5 35.5t-86.5 7.5zM313 1323q0 48 24.5 72t59.5 24q72 0 119 -82q18 -29 82.5 -163.5 t75.5 -155.5l-45 -33q-69 58 -163 138t-104 89q-19 21 -34 54t-15 57z" />
<glyph unicode="&#xfa;" horiz-adv-x="1189" d="M35 811l4 63q165 0 422 21q-19 -112 -19 -403q0 -274 11 -328q13 -66 79 -66q65 0 112.5 45t70.5 109q18 46 18 117v229q0 123 -6 168q-3 25 -26.5 32t-90.5 9v63q167 5 252 11q35 2 75 4.5t64.5 4t34.5 1.5q-6 -141 -6 -279v-235q0 -176 6 -250q2 -27 11 -38t33 -14.5 t81 -2.5l-2 -66q-63 -2 -209.5 -14.5t-208.5 -20.5q-5 67 -10 162q-145 -162 -344 -162q-100 0 -152.5 34t-70.5 77q-21 43 -21 121q0 75 2 219t2 199q0 114 -2 147q-3 28 -23.5 35.5t-86.5 7.5zM487 1020q17 27 98 160.5t99 160.5q57 80 127 80q37 0 56.5 -24t19.5 -64 q0 -22 -11.5 -47t-28 -45t-36.5 -37q-17 -15 -48 -39.5t-62 -48.5t-81 -62.5t-88 -68.5z" />
<glyph unicode="&#xfb;" horiz-adv-x="1189" d="M35 811l4 63q165 0 422 21q-19 -112 -19 -403q0 -274 11 -328q13 -66 79 -66q65 0 112.5 45t70.5 109q18 46 18 117v229q0 123 -6 168q-3 25 -26.5 32t-90.5 9v63q167 5 252 11q35 2 75 4.5t64.5 4t34.5 1.5q-6 -141 -6 -279v-235q0 -176 6 -250q2 -27 11 -38t33 -14.5 t81 -2.5l-2 -66q-63 -2 -209.5 -14.5t-208.5 -20.5q-5 67 -10 162q-145 -162 -344 -162q-100 0 -152.5 34t-70.5 77q-21 43 -21 121q0 75 2 219t2 199q0 114 -2 147q-3 28 -23.5 35.5t-86.5 7.5zM322 1028q160 203 241 387l58 10q74 -183 239 -397l-47 -43 q-47 36 -113.5 96.5t-109.5 108.5q-43 -48 -108.5 -107.5t-114.5 -97.5z" />
<glyph unicode="&#xfc;" horiz-adv-x="1189" d="M35 811l4 63q165 0 422 21q-19 -112 -19 -403q0 -274 11 -328q13 -66 79 -66q65 0 112.5 45t70.5 109q18 46 18 117v229q0 123 -6 168q-3 25 -26.5 32t-90.5 9v63q167 5 252 11q35 2 75 4.5t64.5 4t34.5 1.5q-6 -141 -6 -279v-235q0 -176 6 -250q2 -27 11 -38t33 -14.5 t81 -2.5l-2 -66q-63 -2 -209.5 -14.5t-208.5 -20.5q-5 67 -10 162q-145 -162 -344 -162q-100 0 -152.5 34t-70.5 77q-21 43 -21 121q0 75 2 219t2 199q0 114 -2 147q-3 28 -23.5 35.5t-86.5 7.5zM256 1161q0 32 10 59t27.5 46t42 30t53.5 11h2q61 0 96 -37.5t35 -98.5 q0 -45 -21.5 -79t-52.5 -50t-65 -16q-51 0 -89 34t-38 101zM659 1161q0 64 37.5 105t96.5 41h2q60 0 95.5 -36.5t35.5 -96.5q0 -67 -42.5 -107.5t-95.5 -40.5q-52 0 -90.5 34.5t-38.5 100.5z" />
<glyph unicode="&#xfd;" horiz-adv-x="954" d="M-20 817v64q231 -7 256 -7q61 0 155.5 3.5t116.5 3.5l8 -64l-59 -8q-22 -3 -27 -13.5t2 -33.5q23 -69 60.5 -163.5t80 -196t48.5 -115.5q80 220 137 436q12 47 0 64.5t-62 23.5l-71 6l2 64q25 0 90.5 -4.5t101.5 -4.5q27 0 92.5 4.5t96.5 4.5l-2 -64q-67 -3 -96 -27 t-66 -114q-92 -226 -314 -836q-25 -68 -44.5 -113.5t-45 -90t-52.5 -69.5t-63 -40.5t-79 -15.5q-66 0 -109 38t-43 103q0 62 36 96.5t83 34.5q55 0 72 -39q13 -32 25.5 -45.5t37.5 -13.5q10 0 20 6.5t19.5 19t18 26.5t17 33.5t15 36t14 39t11.5 36t10 32.5t8 25 q-36 25 -82 133q-213 518 -282 659q-21 45 -40 60t-57 20zM432 1020q17 27 98 160.5t99 160.5q57 80 127 80q37 0 56 -24t19 -64q0 -33 -22 -68t-53 -61q-22 -19 -61 -50t-106.5 -82.5t-111.5 -86.5z" />
<glyph unicode="&#xfe;" horiz-adv-x="1169" d="M-37 -473l12 63q94 8 121.5 19t30.5 43q10 195 10 442v867q0 188 -4 266q-1 19 -10 27.5t-35.5 12.5t-81.5 3l10 63q70 0 224.5 11t205.5 26q-4 -51 -4 -600q79 60 154.5 96.5t167.5 36.5q160 0 246 -110q41 -52 65.5 -135t24.5 -175q0 -250 -124.5 -381t-342.5 -131 q-132 0 -199 52q0 -253 6 -357q2 -31 11 -43.5t41.5 -20t105.5 -8.5l-10 -63q-7 0 -109.5 3t-191.5 3q-71 0 -135 -2t-119.5 -5t-69.5 -3zM438 205q0 -46 21.5 -83.5t57 -58t77.5 -20.5h2q32 0 58.5 14.5t45 38t32.5 57.5t22.5 70t14 78t7.5 78.5t2 75.5q0 75 -13.5 146 t-33.5 106q-43 71 -121 71q-66 0 -115.5 -55t-54.5 -137q-5 -172 -2 -381z" />
<glyph unicode="&#xff;" horiz-adv-x="954" d="M-20 817v64q231 -7 256 -7q61 0 155.5 3.5t116.5 3.5l8 -64l-59 -8q-22 -3 -27 -13.5t2 -33.5q23 -69 60.5 -163.5t80 -196t48.5 -115.5q80 220 137 436q12 47 0 64.5t-62 23.5l-71 6l2 64q25 0 90.5 -4.5t101.5 -4.5q27 0 92.5 4.5t96.5 4.5l-2 -64q-67 -3 -96 -27 t-66 -114q-92 -226 -314 -836q-25 -68 -44.5 -113.5t-45 -90t-52.5 -69.5t-63 -40.5t-79 -15.5q-66 0 -109 38t-43 103q0 62 36 96.5t83 34.5q55 0 72 -39q13 -32 25.5 -45.5t37.5 -13.5q10 0 20 6.5t19.5 19t18 26.5t17 33.5t15 36t14 39t11.5 36t10 32.5t8 25 q-36 25 -82 133q-213 518 -282 659q-21 45 -40 60t-57 20zM195 1161q0 64 37 105t96 41h2q61 0 96 -37.5t35 -98.5q0 -66 -42.5 -105.5t-96.5 -39.5q-51 0 -89 34t-38 101zM598 1161q0 64 37 105t96 41h2q60 0 95.5 -36.5t35.5 -96.5q0 -67 -42 -107.5t-95 -40.5 q-52 0 -90.5 34.5t-38.5 100.5z" />
<glyph unicode="&#x152;" horiz-adv-x="2097" d="M82 618q0 195 71.5 352t196.5 244q70 48 168.5 76.5t202.5 28.5q244 0 360 -137q0 79 -2 108q102 -4 178 -4h379q19 0 66 -0.5t69 0t57 1.5t60.5 4.5t48.5 8.5q-13 -112 -8 -378l-59 -4q-22 110 -66 192q-36 66 -96 86.5t-195 20.5h-57q-21 0 -29 -7.5t-10 -25.5 q-12 -132 -12 -303v-172q23 -2 100 -2q101 0 148 43.5t61 142.5h55q-10 -111 -12 -252.5t6 -230.5l-59 2q-6 43 -13 72t-21.5 60t-35 49t-54.5 30t-79 12q-71 0 -96 -4v-135q0 -269 6 -377q3 -30 24 -39.5t103 -9.5q125 0 186.5 13t112.5 54q46 39 83 114.5t60 154.5l60 -13 q-3 -39 -24 -200t-29 -203q-20 2 -170 6q-144 4 -285 4h-229q-208 0 -234 -6q2 27 2 123q-61 -72 -161.5 -111t-219.5 -39q-226 0 -368 94q-115 80 -177.5 224.5t-62.5 332.5zM457 631q0 -88 9.5 -166.5t33 -154.5t60.5 -130t96 -87.5t135 -33.5q149 0 231 123q27 37 40 79 t20.5 133.5t7.5 256.5q0 190 -5.5 261.5t-19.5 115.5q-34 91 -105 154t-178 63q-72 0 -120.5 -24.5t-90.5 -85.5q-54 -78 -84 -210t-30 -292v-2z" />
<glyph unicode="&#x153;" horiz-adv-x="1656" d="M70 422q0 210 137 345.5t366 135.5q218 0 330 -143q58 69 140 106t174 37q69 0 125.5 -14.5t95 -37.5t67.5 -55.5t46 -65t27 -69.5t13.5 -65t3.5 -55q0 -68 -34 -84q-36 -22 -162 -29q-90 -6 -348 -6q-3 -154 53 -245t184 -91q164 0 244 195l59 -29q-40 -130 -140 -205.5 t-257 -75.5q-221 0 -317 138q-57 -68 -144 -103t-188 -35q-229 0 -352 124.5t-123 326.5zM399 440q0 -200 45 -307q36 -92 125 -92q93 0 131 84q43 111 43 332q0 205 -38 295q-36 86 -127 86q-78 0 -125 -78q-54 -102 -54 -320zM1055 496q31 -4 112 -4q75 0 119 14 q33 13 33 78q0 46 -5.5 87t-18 80.5t-37.5 63t-60 23.5h-2q-62 0 -100 -92.5t-41 -249.5z" />
<glyph unicode="&#x178;" horiz-adv-x="1196" d="M-35 1229v63q16 0 129 -3t180 -3q87 0 192.5 3t131.5 3l6 -63l-86 -8q-24 -3 -26.5 -17.5t10.5 -40.5q82 -179 233 -477q149 297 209 459q12 41 7.5 55t-27.5 17q-15 2 -55 7t-60 7l6 61q14 0 93 -3t130 -3q44 0 113 3t102 3l7 -63q-88 -5 -125.5 -23t-75.5 -76 q-94 -143 -262 -487q-23 -45 -23 -96q-5 -304 6 -426q3 -23 12 -33.5t33 -13.5q117 -15 138 -17l8 -63q-61 0 -190.5 3t-194.5 3q-76 0 -187 -3t-159 -3l-7 63q28 2 132 17q38 5 55 20.5t20 50.5q6 66 11 387q0 47 -23 97q-35 79 -126.5 244t-154.5 266q-35 56 -68 72.5 t-114 17.5zM317 1538q0 63 36 102t93 39h3q58 0 92 -36.5t34 -92.5q0 -64 -41 -102.5t-92 -38.5t-88 32.5t-37 96.5zM727 1538q0 63 35.5 102t91.5 39h2q60 0 94.5 -36.5t34.5 -92.5q0 -64 -40 -102.5t-93 -38.5q-50 0 -87.5 32.5t-37.5 96.5z" />
<glyph unicode="&#x2c6;" horiz-adv-x="933" d="M199 1028q160 203 241 387l58 10q74 -183 239 -397l-47 -43q-47 36 -113.5 96.5t-109.5 108.5q-96 -107 -223 -205z" />
<glyph unicode="&#x2dc;" horiz-adv-x="933" d="M188 1032q2 53 12.5 98.5t31 85t56 62t81.5 22.5q57 0 139 -65q73 -59 100 -59q58 0 66 127l69 -15q-3 -118 -42.5 -192t-122.5 -74q-34 0 -67.5 16.5t-86.5 57.5q-25 21 -35 29t-25.5 15t-31.5 7q-29 0 -49 -32t-23 -91z" />
<glyph unicode="&#x2000;" horiz-adv-x="881" />
<glyph unicode="&#x2001;" horiz-adv-x="1763" />
<glyph unicode="&#x2002;" horiz-adv-x="881" />
<glyph unicode="&#x2003;" horiz-adv-x="1763" />
<glyph unicode="&#x2004;" horiz-adv-x="587" />
<glyph unicode="&#x2005;" horiz-adv-x="440" />
<glyph unicode="&#x2006;" horiz-adv-x="293" />
<glyph unicode="&#x2007;" horiz-adv-x="293" />
<glyph unicode="&#x2008;" horiz-adv-x="220" />
<glyph unicode="&#x2009;" horiz-adv-x="352" />
<glyph unicode="&#x200a;" horiz-adv-x="97" />
<glyph unicode="&#x2010;" horiz-adv-x="684" d="M78 391l26 160q239 -6 504 0l-24 -160q-264 9 -506 0z" />
<glyph unicode="&#x2011;" horiz-adv-x="684" d="M78 391l26 160q239 -6 504 0l-24 -160q-264 9 -506 0z" />
<glyph unicode="&#x2012;" horiz-adv-x="684" d="M78 391l26 160q239 -6 504 0l-24 -160q-264 9 -506 0z" />
<glyph unicode="&#x2013;" horiz-adv-x="1153" d="M100 395l29 150q455 -4 924 0l-29 -150q-446 4 -924 0z" />
<glyph unicode="&#x2014;" horiz-adv-x="1986" d="M100 395l29 150q192 -1 874.5 -1t882.5 1l-28 -150q-190 1 -873.5 1t-884.5 -1z" />
<glyph unicode="&#x2018;" horiz-adv-x="475" d="M68 1122q0 74 30.5 137.5t80 104t108.5 64.5t119 28l12 -57q-104 -17 -171 -79t-67 -140q0 -10 6.5 -11.5t12.5 5.5q30 20 80 20q52 0 88.5 -39.5t35.5 -101.5q0 -61 -45.5 -105.5t-107.5 -44.5q-86 0 -134 60.5t-48 158.5z" />
<glyph unicode="&#x2019;" horiz-adv-x="475" d="M66 948q103 19 169 81.5t66 141.5q0 9 -5 10.5t-11 -3.5q-33 -23 -80 -23q-53 0 -90.5 39.5t-36.5 101.5q0 61 45.5 105.5t107.5 44.5q86 0 134.5 -60.5t48.5 -158.5q0 -74 -30.5 -137.5t-80 -104t-108.5 -64.5t-119 -28z" />
<glyph unicode="&#x201a;" horiz-adv-x="491" d="M59 -195q108 19 179 82t71 148q0 9 -6 11t-12 -3q-29 -20 -84 -20t-95 40.5t-40 108.5q2 63 49.5 109.5t111.5 46.5q92 0 142.5 -66t50.5 -170q0 -66 -23 -122.5t-60 -95.5t-84.5 -67.5t-94.5 -43t-92 -17.5z" />
<glyph unicode="&#x201c;" horiz-adv-x="899" d="M68 1122q0 74 30.5 137t79.5 103.5t108 64t120 27.5l12 -55q-104 -17 -171 -79t-67 -140q0 -10 6.5 -11.5t12.5 5.5q30 20 80 20q52 0 89.5 -39.5t37.5 -101.5q-1 -61 -47.5 -105.5t-108.5 -44.5q-86 0 -134 60.5t-48 158.5zM485 1122q0 74 30.5 137t80 103.5t108.5 64 t119 27.5l13 -55q-104 -17 -171 -79t-67 -142q0 -18 18 -7q30 23 78 23q53 0 90.5 -39.5t36.5 -101.5q0 -61 -45.5 -105.5t-107.5 -44.5q-86 0 -134.5 60.5t-48.5 158.5z" />
<glyph unicode="&#x201d;" horiz-adv-x="899" d="M66 948q103 19 169 81.5t66 141.5q0 9 -5 10.5t-11 -3.5q-33 -23 -80 -23q-53 0 -90.5 39.5t-36.5 101.5q0 61 45.5 105.5t107.5 44.5q86 0 134.5 -60.5t48.5 -158.5q0 -74 -31 -137t-80.5 -103.5t-108.5 -64t-118 -27.5zM481 948q104 19 171 81.5t67 141.5 q0 9 -5.5 10.5t-11.5 -3.5q-33 -23 -79 -23q-53 0 -91 39t-38 102q1 61 47 105.5t108 44.5q86 0 134 -60.5t48 -158.5q0 -74 -30.5 -137t-80.5 -103.5t-108.5 -64t-117.5 -27.5z" />
<glyph unicode="&#x201e;" horiz-adv-x="915" d="M59 -186q106 19 176 81t70 146q0 9 -6 11t-12 -3q-26 -20 -82 -20q-55 0 -94.5 40.5t-38.5 106.5q0 63 47 108.5t112 45.5q89 0 139 -65t50 -167q0 -81 -34 -147t-88 -106t-112.5 -62t-115.5 -25zM485 -186q107 19 177.5 81t70.5 146q0 9 -6 11t-12 -3q-26 -20 -82 -20 q-54 0 -94 40.5t-39 106.5q0 63 47 108.5t112 45.5q89 0 139 -65t50 -167q0 -81 -34 -147t-87.5 -106t-112 -62t-114.5 -25z" />
<glyph unicode="&#x2022;" horiz-adv-x="757" d="M117 451q0 116 76.5 194t185.5 78h2q112 0 185 -77.5t73 -192.5q0 -118 -76 -195.5t-184 -77.5q-109 0 -185.5 76.5t-76.5 194.5z" />
<glyph unicode="&#x2026;" horiz-adv-x="1820" d="M131 147q0 75 50 126t120 51h2q72 0 119 -51t47 -126q0 -76 -49 -126t-119 -50q-71 0 -120.5 50t-49.5 126zM739 147q0 75 50 126t120 51h2q72 0 119 -51t47 -126q0 -76 -49 -126t-119 -50q-71 0 -120.5 50t-49.5 126zM1348 147q0 75 50 126t120 51h2q72 0 119 -51 t47 -126q0 -76 -49 -126t-119 -50q-71 0 -120.5 50t-49.5 126z" />
<glyph unicode="&#x202f;" horiz-adv-x="352" />
<glyph unicode="&#x2039;" horiz-adv-x="688" d="M104 412l21 49q106 37 219.5 145t179.5 248l58 -25q-47 -189 -176 -395q55 -83 107.5 -192t68.5 -193l-50 -33q-70 146 -199.5 258t-228.5 138z" />
<glyph unicode="&#x203a;" horiz-adv-x="688" d="M104 41q47 186 177 395q-56 83 -108.5 192t-68.5 193l50 33q70 -145 199.5 -257t228.5 -138l-21 -49q-106 -37 -219.5 -145.5t-179.5 -248.5z" />
<glyph unicode="&#x205f;" horiz-adv-x="440" />
<glyph unicode="&#x20ac;" d="M31 516l18 76h105q0 67 4 100h-84l20 76h70q11 74 32.5 141.5t62.5 136t97 118t140 81t186 31.5q166 0 246 -63.5t80 -149.5q0 -64 -36 -97.5t-91 -33.5q-39 0 -60 18q-25 25 -16 49q8 54 8 80q0 67 -35 99t-92 32q-176 0 -209 -442l410 2l-21 -80l-393 2q-2 -33 -2 -100 l365 2l-19 -80l-342 2q2 -47 6.5 -91t15 -96t28.5 -93.5t43.5 -77.5t64 -56t86.5 -20q83 0 143.5 49t102.5 168l57 -29q-53 -163 -141.5 -231t-249.5 -68q-106 0 -188.5 34t-132.5 86.5t-84.5 127.5t-49 145t-20.5 152h-125z" />
<glyph unicode="&#x2122;" horiz-adv-x="825" d="M29 1161q1 7 12 133q42 -10 119 -10h57q95 0 129 10q0 -1 -2 -20t-3 -42t1 -67l-25 -4q-10 60 -28 78q-13 16 -58 14v-118q0 -24 1 -55t1 -33q4 -13 56 -15l-2 -33q-2 0 -44 1t-73 1q-16 0 -43.5 -1t-40.5 -1l-2 33q53 2 53 17q4 28 4 88v116q-45 0 -57 -18 q-15 -25 -31 -78zM354 999v33q30 0 41 7t11 30q8 104 10 170l-2 8q0 6 -13 6l-30 4l2 31q55 -2 88 -2q49 0 69 2q3 -13 12.5 -37t27.5 -63.5t24 -52.5q38 88 57 153q14 -2 74 -2q18 0 40 1t36 1l2 -31q-41 -2 -41 -16q-2 -8 -2 -49q-3 -85 6 -141q2 -10 9.5 -14.5t33.5 -4.5 v-33q-4 0 -38 1t-52 1t-51 -1t-37 -1l2 33q35 0 35 23q0 4 1.5 33t3 74.5t1.5 90.5h-2q-25 -66 -54 -151.5t-32 -93.5l-45 -9q-9 32 -46 126t-46 122h-3q-1 -34 -1 -71t0.5 -70.5t0.5 -38.5q1 -11 2.5 -16.5t7.5 -11.5t17 -7h27v-33q-9 0 -33 1t-37 1q-16 0 -43.5 -1 t-32.5 -1z" />
<glyph unicode="&#xe000;" horiz-adv-x="880" d="M0 0v881h881v-881h-881z" />
</font>
</defs>
</svg>
